<svg width="156" height="141" viewBox="0 0 156 141" fill="none" xmlns="http://www.w3.org/2000/svg">
<mask id="mask0_1796_10576" style="mask-type:alpha" maskUnits="userSpaceOnUse" x="0" y="0" width="156" height="141">
<rect width="156" height="141" fill="url(#paint0_linear_1796_10576)"/>
</mask>
<g mask="url(#mask0_1796_10576)">
<path d="M55.0088 137.155L64.3924 139.407C64.4275 139.415 64.4625 139.418 64.4975 139.418L78.0809 140.991L78.1218 141H78.1481L83.4196 140.615L87.4762 140.321C87.4762 140.321 87.4821 140.321 87.4879 140.318L98.7144 137.306L106.109 135.104L113.901 131.299L121.503 126.164L128.434 120.031L134.246 113.293L138.556 106.381V106.375L138.574 106.349L143.398 96.9335L143.41 96.8985C143.41 96.8985 143.416 96.8927 143.416 96.8869L146.921 87.5999L146.941 87.5416L147.47 81.497L147.686 79.0966L147.68 79.0791L148.988 64.1378L148.994 64.062L145.478 49.4936L142.566 40.1309L142.557 40.1047L142.534 40.026L142.493 39.9853L134.377 26.7248L134.348 26.6957C134.336 26.6782 134.327 26.6578 134.313 26.6432L127.347 19.7246L127.274 19.6518L127.26 19.646L115.645 9.67733L115.639 9.6715L115.583 9.62489L101.395 3.79286L92.2104 0.655448H92.1987L92.1345 0.652535L78.2649 0L68.89 0.0728276L58.16 2.79075L50.3155 6.11169L42.5235 9.73559L34.901 14.8597L28.0582 21.0938L22.4478 28.027L18.3795 34.0454L12.8335 44.0257L9.96551 53.6011L8.00876 66.6343L8 66.6664V66.6955L8.07009 76.8943L10.8767 91.4802V91.5297L14.8574 100.499C14.8574 100.502 14.8632 100.505 14.8632 100.511L14.8749 100.537L22.3894 114.036L22.4215 114.097L33.7707 124.748L33.7795 124.771L41.2619 130.641C41.3115 130.679 41.367 130.702 41.4225 130.717L54.9679 137.12L55.0058 137.149L55.0088 137.155ZM41.7759 129.916L36.884 126.079L48.1689 131.582L48.2799 131.847L51.875 134.681L41.7759 129.916ZM15.6722 100.144L14.653 97.8453L18.2948 104.356V104.787L18.435 105.108L15.6693 100.141L15.6722 100.144ZM8.89076 66.7945L12.0216 56.3336L14.8691 66.8674L14.8019 66.9868L11.2097 78.8082L8.8966 67.8083L8.89076 66.8004V66.7945ZM27.9413 22.6494L28.689 21.723L35.4325 15.5734L35.45 15.5618L35.9465 15.7366L27.512 23.4272L27.9413 22.6465V22.6494ZM58.4229 3.64138L58.8726 3.52777L66.4017 4.59105L53.6653 10.5163L53.566 10.5833L47.7396 8.36643L52.4854 6.16121L58.4258 3.64429L58.4229 3.64138ZM72.3158 0.932193L78.5015 1.28759L67.456 4.10165L67.1435 4.2473L60.0087 3.23937L68.963 0.958411L72.3187 0.932193H72.3158ZM92.0615 1.53812L92.336 1.63134L95.1543 2.59557L103.609 6.12334L92.371 6.24278L92.0994 6.31269L82.0791 1.61969L92.0556 1.54103L92.0615 1.53812ZM126.798 20.4238L127.365 20.986L134.765 32.9618L125.434 29.8943H125.341L117.286 17.2223L126.795 20.4209L126.798 20.4238ZM87.374 139.436L82.412 139.797L91.5299 137.688L91.9738 137.796L94.0007 137.65L87.374 139.433V139.436ZM55.4089 136.336L49.9387 132.019L64.8977 134.649L64.9473 134.772L69.4245 138.355L57.3131 136.793L55.4089 136.336ZM12.337 55.2849L18.8351 43.6354L22.5501 53.2107L15.1816 66.311L12.2669 55.5237L12.337 55.2849ZM47.1934 8.63152L53.125 10.8775L40.3857 19.4479L36.7175 15.6871L47.1934 8.63152ZM93.3231 136.811L104.862 129.892L105.055 129.942L107.47 129.776L98.9802 136.298L98.51 136.438L93.3231 136.811ZM67.8036 4.92606L77.0383 10.3124L62.1903 17.2456L54.4655 11.1193L67.713 4.94645L67.8007 4.92314L67.8036 4.92606ZM45.7565 123.609L45.9376 114.092L62.5087 120.002L62.2458 127.757L45.7536 123.612L45.7565 123.609ZM129.944 109.836L119.088 115.767L130.16 107.467L129.982 109.731L129.944 109.836ZM128.673 113.157L118.749 116.457L129.704 110.471L128.746 113.034L128.67 113.154L128.673 113.157ZM126.518 116.603L118.159 117.121L128.308 113.745L126.576 116.536L126.518 116.603ZM123.641 119.947L117.508 117.608L126.112 117.075L123.641 119.947ZM112.196 127.702L109.217 128.584L115.557 119.198L112.298 127.652L112.193 127.702H112.196ZM108.428 128.82L105.873 128.995L114.769 119.577L108.562 128.782L108.428 128.823V128.82ZM86.898 135.637L83.7029 133.024L100.181 127.55L101.723 128.847L86.9943 135.66L86.898 135.637ZM63.1337 127.879L63.3761 120.212L81.0394 122.863L80.7824 128.252L63.1337 127.879ZM47.4796 28.2513L56.0309 38.5491L42.3191 50.9647L34.311 40.2154L47.4826 28.2513H47.4796ZM80.4933 91.183L93.3874 102.043L87.7595 108.682L72.5816 100.598L80.4933 91.1801V91.183ZM117.724 102.969L113.933 104.802L109.088 90.9034L116.524 87.3144L117.724 102.969ZM109.439 107.823L106.024 110.855L94.4008 102.276L101.042 96.3509L109.441 107.823H109.439ZM113.781 105.923L116.024 116.422L110.306 108.271L113.778 105.923H113.781ZM106.46 111.68L115.271 116.984L103.855 114.735L106.46 111.68ZM106.793 111.362L109.956 108.548L115.683 116.716L106.79 111.362H106.793ZM103.533 115.123L114.754 117.337L101.673 118.173L103.533 115.123ZM114.182 105.67L117.683 103.972L116.398 116.041L114.182 105.67ZM94.0795 102.594L105.718 111.184L102.9 114.482L88.6006 109.061L94.0766 102.597L94.0795 102.594ZM101.39 118.636L114.208 117.818L100.373 121.468L101.39 118.636ZM118.156 103.744L121.424 102.798L116.895 115.589L118.156 103.741V103.744ZM113.539 105.02L109.789 107.549L101.39 96.077L108.703 91.1393L113.539 105.02ZM88.3173 109.425L102.654 114.861L100.63 118.167L84.3863 115.947L88.3144 109.425H88.3173ZM100.201 121.966L113.773 118.388L100.061 124.401L100.201 121.966ZM121.95 102.646L124.765 102.489L117.511 115.184L121.95 102.649V102.646ZM121.699 101.804L118.159 102.818L116.956 87.1251L123.965 85.1325L121.702 101.804H121.699ZM93.6882 101.72L80.8028 90.8655L90.423 82.2485L100.508 95.6372L93.6853 101.72H93.6882ZM80.134 90.2712L67.0063 77.9692L78.8987 67.2781L89.8886 81.5407L80.137 90.2683L80.134 90.2712ZM66.6996 78.2896L79.8303 90.5946L71.8076 100.135L56.9538 89.9887L66.6996 78.2896ZM72.3129 100.959L87.5084 109.052L83.4664 115.752L66.6675 110.471L72.3129 100.959ZM84.1614 116.361L100.467 118.592L99.3598 121.654L82.0324 122.464L84.1614 116.361ZM100.782 126.769L100.072 124.876L113.554 118.968L100.782 126.769ZM125.285 102.474L127.479 103.083L118.165 114.934L125.285 102.474ZM125.198 101.574L122.157 101.746L124.424 85.0218L130.504 84.7305L125.195 101.574H125.198ZM100.861 95.3633L90.7764 81.9747L101.395 74.8085L108.373 90.2945L100.861 95.3633ZM90.2361 81.2668L79.2491 67.0043L92.4032 58.131L101.001 74.0045L90.2361 81.2639V81.2668ZM78.703 66.3022L67.6809 52.2989L82.4091 42.3711L91.9563 57.3677L78.703 66.3022ZM67.3305 52.5728L78.3554 66.579L66.3754 77.3458L54.045 64.566L67.3334 52.5728H67.3305ZM56.6968 90.3528L71.5565 100.502L65.8322 110.139L49.7927 102.174L56.6997 90.3528H56.6968ZM66.4718 110.873L83.2999 116.16L81.1036 122.426L63.4608 119.778L66.4718 110.87V110.873ZM81.9126 122.91L99.316 122.1L99.1496 124.71L81.6761 128.165L81.9097 122.907L81.9126 122.91ZM99.2255 125.15L99.9761 127.151L83.3495 132.68L81.7462 128.608L99.2255 125.15ZM102.537 128.369L101.057 127.125L113.65 119.434L102.537 128.372V128.369ZM127.899 103.267L129.354 104.569L118.735 114.931L127.902 103.264L127.899 103.267ZM127.987 102.299L125.636 101.65L130.966 84.7567L135.709 86.1375L127.987 102.302V102.299ZM116.822 86.2395L113.016 69.2241L123.232 66.378L124.024 84.2032L116.819 86.2395H116.822ZM116.401 86.3939L108.758 90.076L101.778 74.5813L112.599 69.393L116.398 86.3939H116.401ZM101.387 73.7831L92.7887 57.9125L106.211 51.5211L112.359 68.5307L101.387 73.7831ZM92.336 57.1405L82.7946 42.1526L97.8412 35.0388L105.861 50.7113L92.336 57.1434V57.1405ZM67.126 51.5998L56.9451 38.9627L72.1756 28.7028L81.9068 41.6428L67.126 51.5998ZM56.5917 39.2366L66.7785 51.8795L53.4434 63.9076L42.874 51.661L56.5917 39.2366ZM53.7354 64.8894L66.0659 77.6691L56.2471 89.4497L42.8827 78.0304L53.7383 64.8894H53.7354ZM49.6116 102.579L65.6511 110.544L62.5904 119.562L45.9873 113.643L49.6116 102.579ZM105.137 129.045L103.06 128.517L114.079 119.656L105.218 129.039L105.137 129.045ZM116.238 118.674L116.17 125.759H116.165L112.885 127.364L116.235 118.674H116.238ZM119.073 115.219L129.564 104.982L130.206 106.87L119.073 115.219ZM129.911 103.875L128.381 102.503L136.088 86.3706L139.205 89.2546L129.911 103.875ZM130.706 83.8333L124.465 84.1304L123.676 66.2935L132.543 65.9497L130.706 83.8333ZM112.771 68.3705L106.626 51.3667L119.307 47.9089L123.13 65.4982L112.774 68.3734L112.771 68.3705ZM106.273 50.5394L98.2646 34.8931L112.485 31.0945L119.044 47.0699L106.27 50.5423L106.273 50.5394ZM82.2865 41.4098L72.567 28.4872L88.1421 21.1666L97.3797 34.2785L82.2835 41.4098H82.2865ZM56.3785 38.2694L47.833 27.9774L62.4736 18.1195L71.6032 28.0211L56.3785 38.2723V38.2694ZM47.2518 27.2958L40.9902 20.1121L54.0245 11.3378L61.8019 17.5048L47.2518 27.2958ZM34.0073 40.5533L42.0037 51.2852L30.8385 64.8981L23.3035 53.6943L34.0073 40.5533ZM42.5702 51.9901L53.1309 64.231L42.2402 77.4099L31.3934 65.6264L42.5702 51.9931V51.9901ZM42.6345 78.4003L55.9901 89.811L49.0304 101.711L34.9886 91.6841L42.6345 78.3974V78.4003ZM65.6833 134.221L63.2592 128.325L80.8233 128.698L82.4588 132.849L65.7066 134.239L65.6833 134.218V134.221ZM92.0527 136.901L87.6777 135.826L102.102 129.161L102.152 129.202L104.26 129.738L92.3681 136.878L92.0556 136.901H92.0527ZM116.617 125.456L116.684 118.199L119.906 123.233L116.614 125.459L116.617 125.456ZM117.023 117.896L123.273 120.282L120.259 122.953L117.02 117.899L117.023 117.896ZM130.236 104.193L139.391 89.7847L140.7 93.7815L140.685 93.9563L130.904 106.153L130.239 104.193H130.236ZM136.001 85.2956L131.147 83.8828L132.984 66.0109L139.888 68.1171L136.001 85.2956ZM123.565 65.4079L119.745 47.8477L130.75 47.5185L132.546 65.0612L123.565 65.4108V65.4079ZM119.482 46.968L112.946 31.0595L125.28 30.7886L130.545 46.6388L119.479 46.9709L119.482 46.968ZM97.7974 34.0979L88.589 21.0297L103.317 17.1669L112.058 30.2992L97.7974 34.095V34.0979ZM71.9858 27.7793L62.8796 17.9068L77.8648 10.9008L87.5463 20.4733L71.9858 27.7793ZM40.6398 20.383L46.9072 27.5754L33.8174 39.4609L28.9226 31.0508L40.6398 20.383ZM15.605 67.3772L23.0524 54.1196L30.5552 65.271L22.7428 79.015L15.5904 67.4238L15.605 67.3772ZM31.151 66.0109L41.9745 77.7711L34.3052 91.084L23.3211 79.7986L31.151 66.0109ZM34.8221 92.1094L48.8348 102.116L45.1812 113.247L30.8765 104.537L34.825 92.1065L34.8221 92.1094ZM49.0129 131.288L45.9581 124.11L62.2517 128.211L64.6961 134.16L49.2028 131.436L49.0129 131.285V131.288ZM70.8088 138.323L66.2119 134.644L82.6282 133.28L82.634 133.295L85.8816 135.952L71.1739 138.407L70.8059 138.32L70.8088 138.323ZM124.225 120.626L124.371 120.454L127.038 120.075L121.258 125.196L120.686 123.757L124.225 120.626ZM124.812 119.944L127.274 117.089L127.482 116.754L132.391 114.08L127.823 119.382L127.645 119.539L124.815 119.941L124.812 119.944ZM131.074 106.655L140.618 94.7545L140.215 99.4737L140.081 99.832L130.922 109.011L131.112 106.759L131.077 106.655H131.074ZM136.415 85.4588L140.273 68.4288L144.716 72.6586L144.754 72.7751L139.587 88.3952L136.415 85.4588ZM132.996 65.0845L131.205 47.6234L139.727 50.3326L139.745 50.3501L139.967 67.2111L132.993 65.0845H132.996ZM131.015 46.63L125.808 30.9517L135.221 34.0454L135.379 34.2027L139.573 49.3509L131.018 46.6329L131.015 46.63ZM112.523 30.1768H112.508L103.84 17.1523L116.503 16.9572L116.617 16.995L124.83 29.9059L112.523 30.1768ZM87.9756 20.2723H87.9727L78.3613 10.7668L92.4411 7.12836H92.5346L102.643 16.427L87.9786 20.2723H87.9756ZM77.6282 10.0386L77.526 10.0852L68.4169 4.76875L80.6948 1.62842H81.054L91.4277 6.48457L77.6282 10.0356V10.0386ZM19.1389 43.0935L28.6189 31.4003L33.4933 39.7842L22.8742 52.8146L19.1184 43.1314L19.1389 43.0935ZM11.712 80.2181L15.4211 67.9802L22.4916 79.4578L18.5285 92.2405L11.712 80.4774V80.2152V80.2181ZM19.1885 93.1232L23.1634 80.2676L34.0949 91.4976L30.1347 103.931L19.1885 93.1785V93.1202V93.1232ZM30.7684 115.636L30.856 105.044L45.0761 113.707L44.8775 123.242L30.8122 115.735L30.7684 115.636ZM86.3401 136.327L86.4891 136.45L90.5749 137.452L79.5353 140.004L78.2006 140.1L72.2807 138.672L86.3431 136.324L86.3401 136.327ZM100.172 135.943L108.27 129.72L108.536 129.703L111.314 128.887L106.311 134.02L105.82 134.262L100.172 135.946V135.943ZM112.161 128.637L112.485 128.541L115.651 126.997L113.784 130.303L113.483 130.507L107.494 133.438L112.161 128.634V128.637ZM116.357 126.656L116.585 126.545L120.315 124.028L120.899 125.496L114.611 129.747L116.357 126.656ZM133.212 113.125L127.958 115.988L129.529 113.462L129.66 113.11L136.807 107.496L133.548 112.734L133.212 113.125ZM137.776 105.944L137.496 106.392L129.964 112.309L130.84 109.981L130.864 109.699L139.701 100.843L137.779 105.944H137.776ZM141.515 93.4145L146.602 81.2494L146.068 87.3406L145.206 89.6245L141.234 97.8569L141.602 93.6796L141.515 93.4145ZM146.731 79.787L141.307 92.7765L139.999 88.7768L139.938 88.7215L144.981 73.4976L146.783 79.1752L146.731 79.787ZM140.431 67.3509H140.417L140.198 50.787L145.563 56.0073L145.697 56.4385L144.92 71.6245L140.428 67.348L140.431 67.3509ZM141.757 40.498L142.808 43.8801L145.454 54.6615L140.2 49.549L140.069 49.5082L136.012 34.8291L141.757 40.498ZM103.224 16.2755L103.145 16.2959L93.1829 7.12254L105.142 6.99436L105.54 7.12836L115.747 16.0803L103.224 16.2726V16.2755ZM45.0585 9.5375L36.3408 15.4074L35.9085 15.2559L42.9382 10.525L45.0556 9.54041L45.0585 9.5375ZM36.3583 15.958L40.0382 19.7304L28.5693 30.1681L26.925 24.5604L36.3583 15.958ZM18.4204 42.5633L12.3487 53.438L13.2891 45.5842L13.6395 44.4103L18.5489 35.5719L18.5431 42.4119L18.4204 42.5633ZM18.3503 92.8202L18.3182 92.9251L18.2978 103.45L12.6991 93.4465L11.7675 91.3462L11.7178 81.3775L18.3503 92.8231V92.8202ZM19.1856 104.604V93.7961L29.9916 104.417L29.8835 115.003L19.3462 104.971L19.1856 104.607V104.604ZM44.8658 123.74V123.813L47.906 130.959L35.2222 124.774L34.5125 124.218L31.0955 116.381L44.8687 123.74H44.8658ZM64.5764 138.536L61.3492 137.761L70.0904 138.888L70.4058 139.141L70.9519 139.273L64.5793 138.536H64.5764ZM141.126 99.1038L143.431 94.3263L142.592 96.5461L141.091 99.4766L141.123 99.1067L141.126 99.1038ZM145.495 72.175L145.341 72.0265L146.082 57.6678L148.1 64.1407L146.985 76.868L145.495 72.1721V72.175ZM135.697 33.2647L135.422 33.1744L128.72 22.3289L131.497 25.0876L133.653 27.2288L139.865 37.378L135.697 33.2647ZM116.644 16.0687H116.395L106.641 7.50415L115.131 10.3969L125.022 18.8856L116.646 16.0687H116.644ZM26.5775 24.9566L28.2042 30.506L18.9899 41.8613L18.9958 34.7679L19.1418 34.5028L20.5904 32.3587L26.5745 24.9566H26.5775ZM12.5414 48.0924L11.7792 54.4575L11.5368 54.8945L9.81073 60.6421L10.8329 53.8196L12.5414 48.0924ZM8.96085 76.8535L8.93165 72.612L8.91412 70.0426L10.941 79.6908L10.8387 80.0258L10.8183 80.0899L10.8504 86.6619L8.95793 76.8564L8.96085 76.8535ZM23.1488 113.561L19.8048 106.005L29.8747 115.606V115.813L32.8712 122.688L23.1458 113.561H23.1488Z" fill="white"/>
</g>
<defs>
<linearGradient id="paint0_linear_1796_10576" x1="52" y1="14" x2="118.209" y2="131.52" gradientUnits="userSpaceOnUse">
<stop stop-color="white" stop-opacity="0"/>
<stop offset="1" stop-color="white"/>
</linearGradient>
</defs>
</svg>
