<svg width="323" height="301" viewBox="0 0 323 301" fill="none" xmlns="http://www.w3.org/2000/svg">
<g style="mix-blend-mode:color-dodge" opacity="0.5">
<mask id="mask0_1458_16925" style="mask-type:luminance" maskUnits="userSpaceOnUse" x="-102" y="86" width="307" height="388">
<path d="M-101.872 150.901L101.762 86.1413L204.35 408.724L0.715554 473.484L-101.872 150.901Z" fill="white"/>
</mask>
<g mask="url(#mask0_1458_16925)">
<path d="M1.53919 256.317C2.12238 247.851 3.49614 239.456 5.66086 231.319C-7.40008 257.877 -5.83901 289.026 -2.87797 318.516C-9.82445 295.878 -11.1879 271.599 -6.89774 248.346C-8.92375 252.073 -10.9698 255.736 -12.9958 259.463C-11.2146 248.5 -7.31535 237.949 -1.53726 228.475C-12.7924 233.66 -23.4052 240.241 -33.0353 248.12C-28.6712 241.851 -24.2914 235.647 -19.8502 229.418C-25.6693 231.719 -31.9731 232.886 -38.2597 232.705C-36.0706 231.112 -33.9555 229.473 -31.8249 227.899C-37.0882 229.315 -42.5547 230.092 -47.9919 230.151C-46.2522 228.765 -44.528 227.315 -42.7883 225.929C-48.5709 227.317 -54.5985 227.951 -60.574 227.735C-57.1835 225.884 -53.5857 224.482 -49.8717 223.43C-56.4536 223.536 -63.0509 223.577 -69.6282 223.682C-67.5602 222.315 -65.5094 220.895 -63.4414 219.529C-68.1436 221.089 -73.5659 220.182 -77.4904 217.128C-75.5714 216.711 -73.6666 216.235 -71.8017 215.835C-76.6196 212.808 -79.5162 206.925 -78.9549 201.226C-80.2627 203.565 -81.4965 205.949 -82.7444 208.274C-82.3718 202.184 -81.2999 196.065 -79.4401 190.211C-81.0682 191.948 -82.7007 193.686 -84.2703 195.404C-83.2604 182.437 -80.6807 169.357 -74.3519 157.968C-68.0988 146.544 -57.8052 136.918 -45.2042 133.55C-62.6743 143.407 -75.3248 161.36 -78.7319 181.125C-76.0722 177.584 -73.471 174.061 -70.8068 170.518C-72.618 176.743 -74.3662 182.948 -76.1915 189.113C-74.3896 188.734 -72.6617 188.308 -70.9323 187.887C-78.1765 193.982 -76.2425 206.717 -68.7792 212.624C-61.3929 218.491 -50.7739 218.583 -41.6629 215.943C-44.8606 217.792 -48.0615 219.648 -51.2593 221.497C-47.2879 222.672 -42.9144 222.307 -39.1928 220.484C-39.4797 221.795 -39.6941 223.146 -39.9811 224.457C-37.8696 225.455 -35.7682 223.181 -33.6425 222.183C-31.52 221.191 -28.2949 224.273 -30.5303 225.113C-24.5002 222.68 -18.4515 220.306 -12.4155 217.876C-14.795 220.491 -17.1146 223.092 -19.4927 225.711C-11.7688 221.327 -4.108 216.963 3.61728 212.584C-3.69044 219.273 -10.9441 225.946 -18.2533 232.631C-10.9683 229.095 -3.70199 225.501 3.52447 221.984C5.25917 221.175 7.2302 219.908 7.083 218.028C6.4748 210.069 9.25727 201.865 14.545 195.882C0.718239 201.052 -12.2356 208.765 -23.3936 218.478C-15.7744 207.517 -4.70653 198.922 7.85763 194.223C-3.28169 196.546 -14.358 198.85 -25.4202 201.213C-17.427 196.679 -8.54456 193.726 0.532145 192.38C-13.5257 191.588 -27.7361 193.729 -40.9006 198.753C-36.6472 194.769 -31.3469 191.864 -25.6782 190.507C-32.6161 191.301 -39.4954 192.077 -46.4147 192.929C-44.0937 190.333 -40.5543 188.95 -37.1717 189.286C-39.4836 180.007 -34.6183 169.47 -26.0853 165.215C-31.1317 166.503 -36.1982 167.728 -41.3046 169.03C-30.2016 158.115 -11.8635 159.667 2.66794 165.189C17.1808 170.653 30.9302 179.373 46.4282 180.673C43.6997 169.663 38.4827 159.32 31.3478 150.612C41.3857 157.946 48.5826 169.076 51.2195 181.201C54.5242 174.437 55.4875 166.558 53.9052 159.167C58.3194 165.786 58.8329 174.865 55.2517 181.975C60.4013 185.858 68.3829 182.487 71.5158 176.803C74.6718 171.176 74.2846 164.302 73.658 157.891C74.9401 161.72 76.2178 165.55 77.5186 169.438C78.3341 162.31 79.1683 155.241 79.9839 148.114C83.02 156.648 82.3394 166.428 78.1654 174.495C82.2807 172.289 86.4086 170.139 90.5824 167.915C95.1027 165.58 100.574 163.196 105.065 165.618C109.884 168.258 110.549 174.791 111.074 180.273C111.616 185.81 113.788 192.438 119.25 193.268C127.47 172.68 119.776 146.881 101.612 134.174C112.598 138.445 121.168 148.237 124.711 159.564C128.289 170.814 126.97 183.434 121.965 194.139C119.854 198.596 126.053 203.751 124.016 208.254C122.199 212.232 125.544 216.688 129.049 219.235C132.514 221.855 136.816 224.273 137.917 228.546C141.844 243.73 149.229 258.071 159.317 270.205C157.239 269.325 155.184 268.506 153.047 267.645C155.594 272.226 158.142 276.808 160.689 281.389C158.225 279.284 155.699 277.198 153.212 275.035C157.239 280.623 159.132 287.791 158.282 294.608C157.012 290.007 155.214 285.568 152.914 281.359C155.115 289.901 155.67 298.907 154.466 307.635C153.711 302.033 152.22 296.536 150.144 291.224C151.594 299.817 151.028 308.728 148.625 317.129C148.477 311.21 147.746 305.278 146.609 299.475C146.51 309.263 144.383 319.122 140.41 328.022C141.588 321.037 141.879 313.883 141.242 306.831C140.193 315.638 137.211 324.228 132.577 331.861C133.93 325.207 135.295 318.608 136.666 312.012C134.218 316.641 131.794 321.327 129.369 326.013C132.459 315.144 134.278 303.911 134.787 292.58C132.88 297.488 131.03 302.377 129.127 307.284C130.956 297.906 131.286 288.238 130.064 278.74C124.032 306.209 124.559 335.119 131.674 362.322C134.08 360.209 136.508 358.153 138.918 356.039C145.406 363.926 131.619 377.295 138.264 385.068C145.137 393.155 142.585 405.716 137.138 414.827C128.703 428.679 114.149 438.635 98.2265 441.453C82.3041 444.272 65.188 439.894 52.5759 429.717C53.9234 430.121 53.3305 432.495 51.9336 432.746C50.5012 433.073 49.2158 432.069 48.1077 431.203C43.8775 427.796 39.6301 424.335 35.4629 420.908C36.9309 423.716 38.402 426.519 39.9472 429.368C30.3559 424.841 22.7362 416.417 19.1965 406.502C23.449 410.992 27.6431 415.5 31.8942 419.986C29.9073 416.574 28.6482 412.802 28.1194 408.927C31.8165 414.49 36.9553 419.15 42.7937 422.362C36.651 415.778 31.7491 408.03 28.4436 399.646C37.6859 411.147 47.1796 422.831 59.6636 430.61C72.1693 438.442 88.4512 441.802 101.792 435.508C88.0269 436.417 73.0014 437.023 61.6989 429.125C84.2631 434.274 108.855 429.857 128.26 417.204C115.411 421.801 102.047 425.605 88.4493 425.435C74.7702 425.226 60.7291 420.638 51.5482 410.53C73.1496 420.925 98.9413 422.291 121.515 414.146C127.795 411.891 134.202 408.635 137.498 402.839C140.788 397.041 139.401 388.24 133.305 385.619C134.899 389.027 133.428 393.281 130.666 395.894C127.958 398.489 124.283 399.851 120.651 400.942C107.71 404.864 94.1991 406.787 80.6601 406.598C71.7021 406.494 62.5108 405.438 54.6149 401.209C48.4897 397.89 43.4117 392.829 39.0384 387.352C24.2456 368.885 16.768 345.777 9.59338 323.217C13.4296 343.756 17.3243 364.277 21.1619 384.821C15.3473 371.586 10.778 357.825 7.58558 343.751C6.86469 349.759 6.12518 355.708 5.40429 361.715C1.3436 337.649 3.74543 312.495 12.3198 289.609C16.6408 278.155 22.5189 267.173 30.7493 258.133C48.2722 238.953 75.1508 230.212 101.154 230.029C113.905 229.954 127.284 232.056 137.591 239.626C136.426 229.917 129.402 221.561 120.799 216.914C112.195 212.266 102.234 210.816 92.4451 210.717C79.9307 210.525 67.3482 212.346 55.3626 216.029C50.4663 217.586 45.5845 219.391 40.4367 219.363C35.3692 219.369 29.8883 216.875 27.9987 212.149C25.5143 205.942 30.5882 198.679 36.9799 196.775C43.4114 194.794 50.3446 196.821 56.4193 199.577C62.5571 202.313 68.367 205.857 74.9658 207.223C86.7915 209.691 99.8911 203.855 106.017 193.433C110.738 197.387 113.283 203.768 112.522 209.853C114.708 211.085 117.279 211.487 119.703 211.038C122.405 207.225 119.906 201.984 117.211 198.153C113.663 193.058 109.341 187.945 103.41 186.046C97.4787 184.146 89.722 186.806 88.2432 192.861C86.3392 200.399 75.2839 200.962 68.6843 196.96C62.009 192.924 56.8582 186.217 49.3812 184.1C40.4795 181.539 31.1233 186.244 23.8677 192.085C17.9966 196.841 12.5733 202.803 10.6135 210.165C8.69351 217.451 11.2235 226.404 17.9854 229.903C16.3278 230.752 14.0205 229.558 13.6992 227.737C8.23721 236.6 4.11739 246.255 1.53919 256.317ZM112.686 280.223C114.344 279.374 116.1 278.429 117.992 278.535C119.887 278.636 121.841 280.136 121.717 281.974C119.915 280.749 117.32 280.865 115.659 282.295C116.387 284.18 119.009 284.758 120.934 283.953C122.785 283.106 124.088 281.344 125.288 279.679C125.466 279.429 125.686 279.106 125.864 278.857C123.333 279.983 120.057 278.969 118.715 276.571C117.886 275.165 117.673 273.498 116.748 272.192C115.776 270.96 113.444 270.482 112.747 271.923C113.055 274.714 113.038 277.48 112.686 280.223ZM56.5194 350.276C53.9101 343.271 50.2482 335.387 42.9726 333.717C53.3362 341.466 52.6155 357.167 59.2917 368.265C60.1391 369.73 63.1068 370.585 62.9383 368.839C61.6069 367.271 60.9586 365.232 61.0808 363.201C62.4734 364.557 63.8705 365.912 65.2444 367.209C68.0488 364.325 70.8391 361.381 73.6449 358.502C74.3506 357.698 75.1977 356.918 76.225 356.72C77.8545 356.39 79.4226 357.69 79.982 359.247C80.5999 360.785 80.3602 362.461 80.1848 364.123C79.7232 368.125 79.2415 372.064 78.7784 376.062C88.1603 377.702 97.8585 377.313 107.044 374.907C100.551 379.921 91.5822 380.592 83.5193 379.049C80.9113 378.53 77.4561 378.152 76.2808 380.518C84.9131 383.229 94.3119 383.317 103.013 380.808C107.308 379.571 111.828 377.236 113.453 373.057C115.799 367.113 111.263 360.919 108.613 355.018C103.808 344.35 105.001 331.131 98.009 321.675C91.6093 313.051 78.6701 310.104 69.1557 315.122C77.9188 323.698 83.3841 335.632 84.123 347.85C76.9085 340.903 78.7143 327.618 70.9524 321.161C62.001 319.067 52.4996 319.264 43.6226 321.83C49.8763 315.862 59.9576 314.45 67.6217 318.37C68.3608 316.658 66.1404 315.115 64.3276 314.665C53.1849 311.727 40.3923 317.718 35.4852 328.139C47.0058 327.622 57.6093 338.76 56.5194 350.276ZM44.7027 262.041C47.1127 268.014 49.5472 274.048 51.9802 280.078C48.2005 277.683 45.233 274.008 43.7036 269.806C42.999 271.829 44.3068 273.916 45.4985 275.653C49.9825 281.868 54.4022 288.099 58.8817 294.316C59.9739 294.93 60.7715 293.199 60.829 291.962C60.9235 289.236 61.0624 286.432 61.1569 283.706C61.5449 274.019 61.8381 263.846 57.3705 255.252C56.2055 252.991 54.6079 250.803 52.3449 249.531C50.0975 248.323 47.1005 248.186 45.1055 249.782C43.3613 251.169 42.7098 253.561 42.8946 255.747C42.9992 257.899 43.8603 259.999 44.7027 262.041ZM57.2588 375.398C56.0891 375.958 54.6761 377.374 55.5547 378.313C57.932 376.72 60.2568 375.148 62.64 373.558C62.9937 373.252 63.483 372.967 63.9226 373.15C65.0433 373.433 64.2457 375.163 63.3228 375.907C61.1124 377.636 58.9206 379.423 56.7116 381.157C54.7166 382.752 52.6019 384.58 52.199 387.146C51.7721 390.042 54.1123 392.96 56.9244 393.73C59.8149 394.546 62.9253 393.621 65.4255 391.993C67.8427 390.323 69.7959 387.972 71.7033 385.695C73.0388 384.052 74.5385 382.098 74.2397 379.943C73.5881 380.73 72.3082 380.944 71.4287 380.391C75.7485 374.201 77.7164 366.256 76.7377 358.737C71.7835 365.769 65.0272 371.575 57.2588 375.398ZM86.4008 235.108C83.0795 236.164 80.8834 239.558 77.5276 240.303C74.5556 241.055 71.4432 239.542 68.4567 240.046C65.6443 240.49 63.37 242.625 60.8724 244.059C58.3178 245.515 55.3689 246.324 52.4861 246.344C55.815 248.943 58.7521 252.117 61.0429 255.689C61.5255 251.364 63.0398 246.838 66.6153 244.353C70.2094 241.927 76.1555 242.86 77.5893 246.964C79.7323 243.2 82.6632 239.701 86.7431 238.21C90.7877 236.795 96.0336 238.144 97.8523 242.056C100.593 236.947 108.315 235.393 112.871 239.014C114.152 240.019 116.127 241.383 117.189 240.079C118.845 237.823 122.518 238.26 124.542 240.183C126.507 242.125 127.28 244.962 127.958 247.7C129.136 245.14 131.352 243.023 133.959 241.936C130.193 241.404 126.716 239.556 124.2 236.694C121.632 233.854 116.344 238.231 113.085 236.057C109.578 233.708 104.729 233.387 100.892 235.252C96.5052 237.415 91.0817 233.683 86.4008 235.108ZM77.7846 398.975C73.9927 400.374 69.4627 396.616 70.074 392.695C67.3936 393.741 64.7088 394.788 62.0239 395.835C60.369 396.49 58.6415 397.104 56.8617 396.961C54.2742 396.694 52.1359 394.614 51.0648 392.259C49.9352 389.922 49.7417 387.288 49.4852 384.674C47.7453 384.454 47.0399 386.864 47.3824 388.549C48.6214 395.281 55.8657 400.296 62.5962 399.053C67.0209 398.225 71.0607 402.654 75.5372 402.192C77.4721 402.027 79.1908 400.966 81.0885 400.684C85.1037 399.987 89.2064 402.79 93.11 401.742C95.3427 401.097 97.1494 399.298 99.4725 399.139C101.159 398.989 102.754 399.765 104.437 399.805C105.864 399.867 107.205 399.44 108.546 399.014C114.959 396.974 121.353 394.876 127.766 392.837C126.548 390.206 122.588 391.079 119.978 392.36C117.386 393.7 113.312 394.416 112.324 391.712C111.476 394.296 109.087 396.275 106.392 396.681C103.737 397.015 100.874 395.676 99.3788 393.391C97.3544 395.704 95.0003 397.994 91.9911 398.629C88.9819 399.264 85.2798 397.3 85.2042 394.241C82.3492 394.956 80.5652 398.026 77.7846 398.975ZM140.217 276.15C139.354 275.463 139.217 274.223 139.118 273.1C138.522 267.19 138.004 261.324 137.466 255.394C139.536 256.852 140.115 259.686 140.488 262.263C140.95 265.134 141.372 268.082 141.839 270.952C143.836 262.1 140.933 252.364 134.422 246.025C133.413 245.063 131.694 246.125 131 247.371C128.838 251.077 129.937 255.732 131.446 259.683C133.018 263.613 134.957 267.684 134.433 271.894C133.738 271.922 132.962 271.911 132.248 271.881C133.542 277.569 134.817 283.2 136.096 288.824C136.316 289.72 136.631 290.71 137.419 290.975C138.964 286.95 140.07 282.748 140.707 278.502C140.816 277.63 140.831 276.664 140.217 276.15ZM26.4248 270.168C24.0984 273.152 21.6541 276.561 21.9072 280.395C22.0867 282.97 23.5229 285.273 25.0847 287.348C25.3119 287.658 25.5946 287.954 25.9801 288.154C27.4606 288.773 28.3661 286.369 27.9821 284.757C29.9224 284.204 31.856 285.641 33.907 285.826C37.3082 286.221 40.2205 282.664 40.1103 279.294C40.04 275.848 37.781 272.78 35.0649 270.69C32.5171 268.741 28.3561 267.561 26.4248 270.168ZM97.8239 251.44C98.8942 246.734 95.2888 241.459 90.4975 240.931C85.6906 240.339 80.9479 244.607 80.9394 249.426C80.8846 250.47 81.1056 251.554 81.3235 252.644C81.4682 253.302 81.5745 254.041 82.1056 254.512C82.947 255.334 84.3439 255.083 85.5281 254.771C89.6072 253.667 93.7448 252.544 97.8239 251.44ZM67.2279 258.792C66.1756 258.101 65.0602 257.43 64.0079 256.739C64.6509 259.166 65.8789 261.406 67.613 263.229C68.1873 263.819 68.8913 264.428 69.7076 264.361C71.467 264.253 71.6603 261.619 72.9319 260.382C74.1682 259.221 76.3135 259.5 77.698 258.416C79.5406 256.933 78.8658 254.001 78.0261 251.765C77.3896 250.169 76.7358 248.518 75.2794 247.569C73.1688 246.184 70.3324 246.957 68.0916 248.185C66.785 248.923 65.4743 249.85 65.2246 251.277C64.8403 253.902 68.3089 256.332 67.2279 258.792ZM37.0115 375.93C36.7994 373.237 37.7043 370.442 39.5736 368.435C38.7285 366.588 35.9654 366.377 34.4553 367.689C32.9696 369.064 32.6633 371.341 33.2159 373.282C33.7114 375.245 34.9303 376.85 36.1433 378.451C37.4951 380.271 38.8995 382.069 40.2498 383.884C40.7071 384.512 41.3127 385.216 42.0679 385.363C43.458 385.495 44.33 383.999 44.8882 382.731C46.073 379.788 47.2931 376.768 48.5319 373.807C48.9762 372.571 49.4972 371.186 48.8553 369.978C48.1263 368.48 45.8997 368.351 44.3778 369.222C42.9188 370.072 41.9883 371.587 41.0019 372.927C40.0342 374.324 38.7196 375.644 37.0115 375.93ZM3.85567 179.831C0.873487 178.728 -2.70141 178.582 -5.16714 180.52C-7.08235 181.962 -8.02631 184.448 -7.67318 186.773C-0.0241745 186.392 7.74624 188.029 14.6651 191.414C13.1732 186.115 9.05629 181.646 3.85567 179.831ZM123.665 388.621C125.577 390.193 128.629 389.287 130.183 387.316C131.759 385.402 132.162 382.836 132.467 380.366C130.318 381.882 128.493 383.81 127.145 386.037C126.353 383.142 128.405 380.309 130.198 377.876C133.967 372.569 136.8 366.534 138.394 360.249C134.424 362.087 131.872 365.981 129.52 369.682C128.451 371.37 127.423 372.981 126.412 374.65C125.365 376.202 124.352 378.065 124.791 379.853C125.529 382.765 125.137 385.972 123.665 388.621ZM17.0996 299.387C17.3334 297.707 17.5186 295.656 16.1207 294.689C10.8086 305.238 13.1889 317.772 15.6811 329.239C16.4794 332.964 17.3148 336.807 19.7121 339.702C19.0511 334.585 18.3086 329.429 17.6431 324.314C17.132 320.884 16.6921 317.49 16.4922 314.026C16.1523 309.124 16.3962 304.234 17.0996 299.387ZM111.986 241.481C109.927 239.246 106.279 240.084 103.459 241.11C102.663 241.428 101.79 241.705 101.141 242.298C98.942 244.469 100.926 248.075 101.386 251.14C105.333 248.408 110.904 248.178 115.071 250.574C114.577 248.615 114.064 246.598 113.51 244.653C113.198 243.469 112.827 242.303 111.986 241.481ZM119.512 270.99C119.88 272.35 120.033 273.843 120.752 275.091C121.426 276.417 122.789 277.461 124.184 277.205C123.494 275.438 122.801 273.666 122.033 271.859C123.079 271.719 124 272.388 124.76 273.172C125.447 273.915 126.114 274.798 127.114 275.119C128.154 275.368 129.461 274.63 129.282 273.662C128.312 268.385 126.699 263.313 124.384 258.465C122.764 259.619 123.173 262.12 123.786 264.047C124.338 265.987 124.63 268.525 122.897 269.527C121.006 266.214 120.328 262.257 121.076 258.55C118.708 258.986 117.453 261.695 117.631 264.076C117.813 266.457 118.902 268.682 119.512 270.99ZM121.735 329.665C121.835 323.919 121.931 318.175 122.013 312.371C122.073 309.334 122.119 306.237 122.567 303.206C123.134 299.755 124.093 296.303 124.199 292.801C123.221 292.344 122.333 293.587 121.948 294.607C117.887 305.849 117.844 318.444 121.735 329.665ZM122.249 242.261C120.808 241.564 118.845 242.06 117.744 243.242C116.608 244.5 116.367 246.376 116.868 247.951C117.594 250.029 119.47 251.489 121.289 252.769C123.129 254.112 124.949 255.396 126.769 256.676C126.562 253.406 126.086 250.089 125.184 246.847C124.744 245.06 123.979 243.058 122.249 242.261ZM74.2575 192.685C75.4312 191.732 76.5105 190.686 77.4356 189.559C73.6774 188.633 69.5679 189.236 66.1901 191.143C69.2857 192.79 72.4353 194.42 75.5265 196.068C77.6796 197.182 80.3591 196.523 82.2557 195.023C84.1509 193.518 85.3421 191.405 86.5347 189.296C82.473 187.635 78.477 193.846 74.2575 192.685ZM85.8757 388.889C85.8879 388.117 84.8101 387.751 84.1267 388.033C83.3892 388.332 82.8174 388.965 82.0986 389.322C80.6936 390.155 78.6539 389.585 77.8206 388.18C76.74 386.403 73.7326 387.23 72.8552 389.115C71.9778 391 72.6049 393.174 73.236 395.158C78.2328 395.943 83.4951 393.308 85.8757 388.889ZM109.872 299.22C111.799 299.826 113.328 296.966 112.266 295.248C111.17 293.609 108.811 293.264 106.893 293.686C105.573 293.977 104.134 294.499 103.017 293.823C101.483 292.834 101.332 289.929 99.4929 290.003C99.979 292.544 100.002 295.233 99.5401 297.818C101.345 297.244 103.212 296.65 105.09 296.697C106.963 296.741 108.946 297.523 109.872 299.22ZM124.08 368.33C125.208 366.623 125.805 364.06 124.255 362.818C123.488 362.23 122.503 362.156 121.593 362.317C117.811 363.138 116.641 367.936 116.219 371.861C116.082 373.252 115.949 374.642 115.812 376.034C117.909 372.735 120.024 369.491 122.118 366.194C122.591 367.074 123.278 367.817 124.08 368.33ZM102.621 388.252C101.139 389.045 101.376 391.601 102.833 392.55C104.231 393.518 106.21 393.275 107.765 392.523C110.511 391.263 112.601 388.547 113.067 385.574C111.306 385.489 109.539 386.18 108.34 387.459C107.004 388.914 104.358 387.248 102.621 388.252ZM98.9126 299.881C98.446 297.011 97.9255 294.159 97.4634 291.288C96.2908 293.46 95.1386 295.883 95.529 298.325C95.9193 300.768 98.5415 302.952 100.78 301.918C102.24 301.261 103.912 302.077 105.397 302.506C106.939 302.913 109.11 302.48 109.25 300.895C106.1 299.265 102.33 298.923 98.9126 299.881ZM37.8924 263.438C35.4071 264.1 32.8632 264.78 30.3964 265.5C33.7056 266.821 37.0748 268.129 40.384 269.45C40.2116 265.074 39.9621 260.659 39.6369 256.209C37.7934 258.078 37.0953 260.932 37.8924 263.438ZM87.0611 391.401C86.9025 392.928 88.0656 394.357 89.5487 394.782C90.9934 395.289 92.5658 394.983 93.9681 394.343C96.4403 393.235 98.422 391.192 99.4431 388.747C98.5432 387.943 97.125 388.329 96.1295 389.032C95.1155 389.677 94.1345 390.628 92.953 390.746C91.827 390.852 90.8104 390.273 89.6544 390.066C88.5553 389.836 87.0972 390.299 87.0611 391.401ZM30.0268 367.492C32.2531 366.016 34.4195 364.554 36.5918 363.095C36.9012 362.868 37.2735 362.621 37.4916 362.294C37.9859 361.433 37.2855 360.243 36.362 359.957C35.4399 359.675 34.3655 360.146 33.6027 360.77C31.9016 362.277 28.8845 362.077 27.3986 360.241C27.5966 362.873 28.5294 365.401 30.0268 367.492ZM106.68 288.169C109.485 286.503 113.259 286.651 115.959 288.488C116.554 288.943 117.317 289.533 118.059 289.233C118.932 288.955 119.066 287.758 118.983 286.887C116.768 284.767 113.35 284.12 110.509 285.281C108.507 286.046 107.949 281.472 105.802 281.575C106.1 283.729 106.358 285.957 106.68 288.169ZM116.487 290.758C112.867 289.472 108.885 289.261 105.157 290.253C105.099 287.641 105.095 285.01 105.014 282.34C104.042 281.495 102.856 283.22 102.686 284.493C102.469 286.039 102.275 287.642 102.797 289.081C103.374 290.504 104.985 291.721 106.42 291.2C109.142 290.27 112.415 291.479 113.893 293.898C114.718 292.862 115.604 291.812 116.487 290.758ZM81.7114 186.658C84.2503 186.554 86.9031 186.419 89.1625 185.25C90.6401 184.458 91.9163 183.219 92.3673 181.599C88.3056 179.937 82.9876 182.397 81.7114 186.658ZM115.86 390.523C119.799 389.786 122.833 385.803 122.466 381.812C121.484 382.961 120.003 383.556 118.582 384.137C117.22 384.699 115.7 385.376 114.948 386.641C114.157 387.987 114.476 390.002 115.86 390.523ZM112.501 282.462C110.395 280.887 111.76 277.499 110.905 275.011C110.664 274.255 110.13 273.588 109.375 273.441C108.128 276.985 108.825 281 111.107 283.936C111.599 283.458 112.032 282.998 112.501 282.462ZM114.604 354.272C114.015 354.647 113.413 354.968 112.807 355.289C112.406 353.623 111.521 352.041 110.297 350.825C110.135 351.327 110.242 351.868 110.356 352.412C110.724 353.771 111.246 355.211 112.197 356.192C113.172 357.23 114.769 357.812 116.113 357.191C117.412 356.649 118.023 354.721 116.99 353.701C116.185 353.383 115.193 353.505 114.472 354.056M119.457 378.209C121.759 375.555 124.074 372.955 126.453 370.336C122.636 370.846 119.511 374.342 119.457 378.209ZM30.4016 357.358C29.3687 356.338 27.75 355.892 26.3318 356.279C26.9044 358.282 28.8753 359.835 31.0232 359.92C31.8818 359.395 31.1841 358.011 30.4601 357.339M115.458 362.41C115.664 362.855 115.93 363.285 116.136 363.73C116.686 363.045 117.221 362.295 117.771 361.61C118.083 360.162 116.122 359.245 114.672 359.126C114.888 360.212 115.182 361.338 115.458 362.41Z" fill="#AFAFB4"/>
</g>
<path d="M89.3911 250.975C90.4283 250.388 91.8171 250.719 92.5556 251.639C91.3475 252.281 90.1021 252.806 88.7823 253.097C88.0769 252.483 88.4622 251.077 89.3911 250.975Z" fill="#AFAFB4"/>
<path d="M25.1727 276.724C27.8402 278.443 30.5046 280.168 33.1721 281.886C33.6661 282.239 33.8893 282.942 33.6317 283.534C31.5635 283.295 29.4228 283.014 27.6765 281.964C25.8531 280.874 24.5852 278.71 25.1727 276.724Z" fill="#AFAFB4"/>
<path d="M57.905 264.394C58.598 268.598 58.9087 272.801 58.9083 277.038C58.8482 278.469 58.7313 280.112 57.6162 281.047C56.6334 273.718 55.9046 266.378 55.31 259.054C57.0749 260.163 57.585 262.374 57.905 264.394Z" fill="#AFAFB4"/>
<path d="M18.4318 224.044C19.5922 225.667 21.1135 227.428 20.7201 229.416C16.5376 226.767 13.4825 222.412 12.4478 217.538C11.41 212.669 12.4313 207.404 15.162 203.26C16.6637 203.744 16.3216 205.909 15.8379 207.411C14.0605 212.917 15.0523 219.276 18.4318 224.044Z" fill="#AFAFB4"/>
<path d="M19.7414 233.005C20.3355 233.455 20.9266 233.912 21.5208 234.362C19.5582 241.919 19.1973 249.868 20.503 257.605C21.0395 260.709 21.7093 264.218 19.835 266.801C14.728 273.757 10.8235 281.674 8.44782 289.942C7.06847 289.033 7.13217 287.021 7.31201 285.358C8.58615 274.234 9.80485 263.123 11.0649 251.939C11.6891 252.702 12.3006 253.409 12.9877 254.152C14.7508 246.981 17.0548 239.89 19.7414 233.005Z" fill="#AFAFB4"/>
<path d="M52.2883 134.898C53.2974 130.405 54.3836 125.951 55.3927 121.458C56.2059 125.823 56.9376 130.149 57.7308 134.451C61.3061 130.36 63.7003 125.174 64.4702 119.726C66.4119 123.603 66.2279 128.478 63.9936 132.142C66.1015 130.698 67.9078 128.712 69.1974 126.503C69.4174 130.03 67.995 133.63 65.4241 136.048C72.4397 132.662 80.5338 129.255 87.9074 132.044C79.0408 133.645 70.4827 137.011 62.9108 141.857C66.1429 143.138 68.5774 146.15 69.1484 149.566C61.959 143.508 51.9298 141.048 42.7698 143.128C45.845 144.524 48.2636 147.283 49.3425 150.473C29.922 138.864 8.20744 131.137 -14.1339 127.904C-13.676 125.901 -11.0033 125.625 -8.93821 125.871C2.01464 127.199 12.7546 129.884 23.0275 133.936C22.5266 132.361 22.0443 130.844 21.5434 129.269C24.5352 131.4 27.504 133.474 30.4727 135.547C30.3894 133.26 29.7437 131.027 28.5901 129.02C31.1673 130.252 33.1274 132.582 33.999 135.323C35.9382 133.552 34.2783 130.358 32.5055 128.414C30.7342 126.475 28.7437 123.644 30.3001 121.479C33.9748 125.96 37.7035 130.423 41.4322 134.887C40.561 127.909 38.5269 121.108 35.4815 114.757C41.6612 119.853 46.0488 126.996 47.8199 134.778C48.8832 131.873 49.3713 128.764 49.223 125.665C50.2647 128.738 51.248 131.83 52.2883 134.898Z" fill="#AFAFB4"/>
<mask id="mask1_1458_16925" style="mask-type:luminance" maskUnits="userSpaceOnUse" x="-107" y="200" width="124" height="144">
<path d="M-106.958 228.635L-19.9807 200.974L16.6578 316.182L-70.3197 343.843L-106.958 228.635Z" fill="white"/>
</mask>
<g mask="url(#mask1_1458_16925)">
<path d="M-38.0511 256.968C-37.5826 260.669 -37.809 264.399 -38.649 268.006C-36.6056 261.513 -33.8514 255.246 -30.5358 249.31C-30.5482 251.5 -30.616 253.702 -30.6683 255.968C-29.1552 253.044 -27.6452 250.126 -26.1352 247.207C-25.8869 248.798 -25.5629 250.425 -25.2375 252.056C-23.0042 248.778 -20.7708 245.501 -18.542 242.225C-18.0969 243.625 -17.7058 245.042 -17.2621 246.437C-15.1594 242.562 -12.2512 239.194 -8.73011 236.538C-12.1797 245.465 -15.6338 254.393 -19.0421 263.247C-19.3369 259.297 -19.2435 255.353 -18.7632 251.409C-23.9742 261.669 -27.2049 272.904 -28.2948 284.421C-29.4027 277.712 -29.5187 270.88 -28.7684 264.155C-33.3658 277.56 -32.9101 292.113 -32.3892 306.263C-34.5574 299.445 -35.8541 292.345 -36.1402 285.181C-38.0633 296.898 -38.1108 308.856 -36.2436 320.586C-38.4668 317.631 -40.1426 314.185 -40.9621 310.595C-39.91 317.129 -38.8226 323.587 -37.712 330.102C-39.964 325.233 -42.2205 320.366 -44.414 315.479C-43.6122 321.646 -42.2836 327.834 -40.4515 333.798C-43.3168 331.052 -45.3364 327.522 -46.3075 323.658C-45.7683 326.569 -45.8283 329.606 -46.4892 332.576C-48.385 325.602 -51.3524 318.904 -55.211 312.817C-53.6396 319.379 -52.0283 325.864 -50.4523 332.424C-54.9641 325.514 -58.4387 318.016 -60.8648 310.185C-59.9297 316.756 -58.9175 323.367 -57.9099 329.979C-60.9526 323.434 -63.3336 316.555 -64.9768 309.565C-64.4614 314.411 -63.8934 319.236 -63.3024 324.117C-68.1192 315.827 -72.1031 307.149 -75.2251 298.126C-75.1366 302.846 -74.3917 307.619 -73.0233 312.124C-74.1676 312.359 -75.0435 311.225 -75.5666 310.173C-81.8669 298.247 -85.5894 284.921 -86.425 271.386C-87.5432 276.751 -88.1436 282.14 -88.22 287.556C-92.3318 273.006 -92.2461 257.32 -88.0239 242.751C-89.022 243.648 -90.0216 244.541 -91.0197 245.438C-89.8467 239.029 -88.04 232.806 -85.6723 226.725C-84.4122 223.629 -81.4201 219.917 -78.5 221.62C-79.7379 224.194 -81.047 226.731 -82.4976 229.244C-80.5541 225.866 -77.0371 223.4 -73.1974 222.758C-77.0318 226.034 -79.9376 230.422 -81.4174 235.258C-79.4553 231.939 -76.3239 229.273 -72.7261 227.871C-75.9055 231.196 -78.1165 235.557 -78.9128 240.111C-76.5562 236.022 -72.8329 232.786 -68.549 230.908C-72.5274 235.96 -76.7479 241.668 -76.5666 248.097C-74.1631 242.129 -69.698 236.987 -64.1025 233.796C-66.4111 237.226 -68.57 240.737 -70.479 244.426C-67.5099 242.263 -64.5362 240.098 -61.5499 237.989C-65.7795 243.06 -68.648 249.171 -69.938 255.617C-66.3344 249.59 -62.3252 243.825 -57.9732 238.328C-59.098 241.258 -60.2783 244.2 -61.386 247.184C-58.8937 243.116 -54.4407 240.351 -49.7161 239.875C-55.3809 243.862 -59.3982 250.209 -60.612 257.081C-57.269 251.652 -52.8507 246.972 -47.6335 243.385C-50.1647 247.143 -52.0419 251.338 -53.1281 255.792C-49.9961 250.494 -45.599 245.949 -40.4289 242.635C-44.4828 249.256 -48.6012 255.893 -52.6611 262.511C-47.7588 257.934 -42.8024 253.34 -37.8602 248.686C-44.7729 263.085 -51.8941 278.635 -49.4467 294.418C-46.9823 281.568 -43.212 269.006 -38.0511 256.968Z" fill="#AFAFB4"/>
</g>
</g>
</svg>
