<svg width="14" height="13" viewBox="0 0 14 13" fill="none" xmlns="http://www.w3.org/2000/svg"><path d="M6.90919 0.196866C6.94494 0.119379 7.05506 0.119379 7.09081 0.196866L8.95151 4.23087C8.96608 4.26245 8.99601 4.2842 9.03055 4.28829L13.4421 4.81135C13.5268 4.8214 13.5609 4.92614 13.4982 4.98408L10.2366 8.00029C10.2111 8.0239 10.1997 8.05909 10.2065 8.0932L11.0722 12.4505C11.0889 12.5342 10.9998 12.5989 10.9253 12.5572L7.04884 10.3873C7.0185 10.3704 6.9815 10.3704 6.95116 10.3873L3.07468 12.5572C3.00022 12.5989 2.91112 12.5342 2.92776 12.4505L3.79354 8.0932C3.80032 8.05909 3.78889 8.0239 3.76335 8.00029L0.501775 4.98408C0.439125 4.92614 0.473156 4.8214 0.557896 4.81135L4.96946 4.28829C5.00399 4.2842 5.03392 4.26245 5.04849 4.23087L6.90919 0.196866Z" fill="black"></path></svg>