<svg width="18" height="24" viewBox="0 0 18 24" fill="none" xmlns="http://www.w3.org/2000/svg">
<path d="M17.1801 15.4102C17.1801 16.207 17.0785 16.9688 16.8754 17.6953C16.6723 18.4219 16.3871 19.1055 16.02 19.7461C15.6528 20.3867 15.2035 20.9688 14.6723 21.4922C14.141 22.0156 13.5629 22.4609 12.9379 22.8281C12.3129 23.1953 11.6293 23.4844 10.8871 23.6953C10.1449 23.9062 9.37932 24.0078 8.59026 24C7.79339 24 7.03167 23.8984 6.30511 23.6953C5.57854 23.4922 4.89495 23.207 4.25432 22.8398C3.6137 22.4727 3.03167 22.0234 2.50823 21.4922C1.98479 20.9609 1.53948 20.3828 1.17229 19.7578C0.805106 19.1328 0.516044 18.4492 0.305106 17.707C0.0941685 16.9648 -0.00739397 16.1992 0.000418527 15.4102C0.000418527 14.6367 0.0980748 13.875 0.293387 13.125C0.4887 12.375 0.797294 11.668 1.21917 11.0039C1.38323 11.332 1.55901 11.6562 1.74651 11.9766C1.93401 12.2969 2.14886 12.582 2.39104 12.832C2.63323 13.082 2.91448 13.2891 3.23479 13.4531C3.55511 13.6172 3.91839 13.6953 4.32464 13.6875C4.68401 13.6875 5.01995 13.6211 5.33245 13.4883C5.64495 13.3555 5.91839 13.168 6.15276 12.9258C6.38714 12.6836 6.57073 12.4102 6.70354 12.1055C6.83636 11.8008 6.90667 11.4648 6.91448 11.0977C6.91448 10.793 6.86761 10.5195 6.77386 10.2773C6.68011 10.0352 6.54729 9.78906 6.37542 9.53906C6.17229 9.25 5.99651 8.96875 5.84807 8.69531C5.69964 8.42188 5.57073 8.14453 5.46136 7.86328C5.35198 7.58203 5.27776 7.28516 5.2387 6.97266C5.19964 6.66016 5.17229 6.32422 5.15667 5.96484C5.15667 5.22266 5.28557 4.51172 5.54339 3.83203C5.8012 3.15234 6.16448 2.54688 6.63323 2.01562C7.10198 1.48438 7.64886 1.03906 8.27386 0.679688C8.89886 0.320312 9.58636 0.09375 10.3364 0C10.4535 1.67188 10.8442 3.20312 11.5082 4.59375C12.1723 5.98438 13.0864 7.27734 14.2504 8.47266C15.2035 9.44922 15.9301 10.5078 16.4301 11.6484C16.9301 12.7891 17.1801 14.043 17.1801 15.4102Z" fill="url(#paint0_linear_2380_2894)"/>
<defs>
<linearGradient id="paint0_linear_2380_2894" x1="8.59005" y1="0" x2="8.59005" y2="24.0004" gradientUnits="userSpaceOnUse">
<stop stop-color="#050505" stop-opacity="0.9"/>
<stop offset="1" stop-color="#3A3A41"/>
</linearGradient>
</defs>
</svg>
