<svg width="49" height="49" viewBox="0 0 49 49" fill="none" xmlns="http://www.w3.org/2000/svg">
<g clip-path="url(#clip0_1179_16536)">
<rect x="0.5" y="0.671875" width="48" height="48" rx="24" fill="white" fill-opacity="0.04"/>
<g opacity="0.2" filter="url(#filter0_f_1179_16536)">
<path d="M-134.745 156.453L-141.5 149.699L-23.0022 31.2012L59.6663 -47.4928L-16.2478 37.9556L-134.745 156.453Z" fill="url(#paint0_linear_1179_16536)"/>
</g>
<g opacity="0.32" filter="url(#filter1_f_1179_16536)">
<path d="M-78.4387 153.605L-85.1931 146.851L33.3045 28.3536L115.973 -50.3404L40.0588 35.1079L-78.4387 153.605Z" fill="url(#paint1_linear_1179_16536)"/>
</g>
<g opacity="0.32" filter="url(#filter2_f_1179_16536)">
<path d="M-56.8204 182.596L-63.5748 175.841L54.9228 57.3438L137.591 -21.3502L61.6771 64.0981L-56.8204 182.596Z" fill="url(#paint2_linear_1179_16536)"/>
</g>
<path d="M24.6416 20.6719L24.6416 24.6719M24.6416 28.6719L24.6316 28.6719M28.8416 15.6719L20.4416 15.6719C18.7614 15.6719 17.9214 15.6719 17.2796 15.9989C16.7151 16.2865 16.2562 16.7454 15.9686 17.3099C15.6416 17.9516 15.6416 18.7917 15.6416 20.4719L15.6416 28.8719C15.6416 30.552 15.6416 31.3921 15.9686 32.0338C16.2562 32.5983 16.7151 33.0573 17.2796 33.3449C17.9214 33.6719 18.7614 33.6719 20.4416 33.6719L28.8416 33.6719C30.5218 33.6719 31.3618 33.6719 32.0036 33.3449C32.5681 33.0573 33.027 32.5983 33.3146 32.0338C33.6416 31.3921 33.6416 30.552 33.6416 28.8719L33.6416 20.4719C33.6416 18.7917 33.6416 17.9516 33.3146 17.3099C33.027 16.7454 32.5681 16.2865 32.0036 15.9989C31.3618 15.6719 30.5218 15.6719 28.8416 15.6719Z" stroke="#050505" stroke-opacity="0.6" stroke-width="2" stroke-linecap="round" stroke-linejoin="round"/>
</g>
<rect x="1" y="1.17188" width="47" height="47" rx="23.5" stroke="white" stroke-opacity="0.1"/>
<defs>
<filter id="filter0_f_1179_16536" x="-161.609" y="-67.6019" width="241.386" height="244.165" filterUnits="userSpaceOnUse" color-interpolation-filters="sRGB">
<feFlood flood-opacity="0" result="BackgroundImageFix"/>
<feBlend mode="normal" in="SourceGraphic" in2="BackgroundImageFix" result="shape"/>
<feGaussianBlur stdDeviation="10.0549" result="effect1_foregroundBlur_1179_16536"/>
</filter>
<filter id="filter1_f_1179_16536" x="-105.303" y="-70.4495" width="241.386" height="244.165" filterUnits="userSpaceOnUse" color-interpolation-filters="sRGB">
<feFlood flood-opacity="0" result="BackgroundImageFix"/>
<feBlend mode="normal" in="SourceGraphic" in2="BackgroundImageFix" result="shape"/>
<feGaussianBlur stdDeviation="10.0549" result="effect1_foregroundBlur_1179_16536"/>
</filter>
<filter id="filter2_f_1179_16536" x="-83.6845" y="-41.4593" width="241.386" height="244.165" filterUnits="userSpaceOnUse" color-interpolation-filters="sRGB">
<feFlood flood-opacity="0" result="BackgroundImageFix"/>
<feBlend mode="normal" in="SourceGraphic" in2="BackgroundImageFix" result="shape"/>
<feGaussianBlur stdDeviation="10.0549" result="effect1_foregroundBlur_1179_16536"/>
</filter>
<linearGradient id="paint0_linear_1179_16536" x1="-138.123" y1="153.076" x2="-19.625" y2="34.5784" gradientUnits="userSpaceOnUse">
<stop stop-color="#050505"/>
<stop offset="1" stop-color="#050505"/>
</linearGradient>
<linearGradient id="paint1_linear_1179_16536" x1="-81.8159" y1="150.228" x2="36.6816" y2="31.7307" gradientUnits="userSpaceOnUse">
<stop stop-color="#050505"/>
<stop offset="1" stop-color="#050505"/>
</linearGradient>
<linearGradient id="paint2_linear_1179_16536" x1="-60.1976" y1="179.219" x2="58.2999" y2="60.721" gradientUnits="userSpaceOnUse">
<stop stop-color="#050505"/>
<stop offset="1" stop-color="#050505"/>
</linearGradient>
<clipPath id="clip0_1179_16536">
<rect x="0.5" y="0.671875" width="48" height="48" rx="24" fill="white"/>
</clipPath>
</defs>
</svg>
