<svg width="40" height="40" viewBox="0 0 40 40" fill="none" xmlns="http://www.w3.org/2000/svg">
<g clip-path="url(#clip0_1431_3635)">
<rect width="40" height="40" rx="20" fill="white"/>
<rect width="40" height="40" rx="20" fill="white" fill-opacity="0.04"/>
<g opacity="0.2" filter="url(#filter0_f_1431_3635)">
<path d="M-112.705 129.82L-118.334 124.192L-19.5857 25.4437L49.3047 -40.1346L-13.9571 31.0723L-112.705 129.82Z" fill="url(#paint0_linear_1431_3635)"/>
</g>
<g opacity="0.32" filter="url(#filter1_f_1431_3635)">
<path d="M-65.7812 127.445L-71.4099 121.817L27.3381 23.0687L96.2285 -42.5096L32.9667 28.6973L-65.7812 127.445Z" fill="url(#paint1_linear_1431_3635)"/>
</g>
<g opacity="0.32" filter="url(#filter2_f_1431_3635)">
<path d="M-47.7637 151.605L-53.3923 145.977L45.3557 47.2289L114.246 -18.3495L50.9843 52.8575L-47.7637 151.605Z" fill="url(#paint2_linear_1431_3635)"/>
</g>
<path d="M18.125 27.2921L19.3525 27.9741C19.5888 28.1054 19.707 28.171 19.8321 28.1968C19.9429 28.2195 20.0571 28.2195 20.1679 28.1968C20.293 28.171 20.4112 28.1054 20.6475 27.9741L21.875 27.2921M14.375 25.2088L13.1858 24.5482C12.9362 24.4095 12.8114 24.3401 12.7205 24.2415C12.6401 24.1543 12.5793 24.0509 12.5421 23.9382C12.5 23.8109 12.5 23.6681 12.5 23.3826V22.0838M12.5 17.9171V16.6184C12.5 16.3328 12.5 16.19 12.5421 16.0627C12.5793 15.9501 12.6401 15.8467 12.7205 15.7594C12.8114 15.6608 12.9362 15.5915 13.1858 15.4528L14.375 14.7921M18.125 12.7088L19.3525 12.0269C19.5888 11.8956 19.707 11.8299 19.8321 11.8042C19.9429 11.7814 20.0571 11.7814 20.1679 11.8042C20.293 11.8299 20.4112 11.8956 20.6475 12.0269L21.875 12.7088M25.625 14.7921L26.8142 15.4528C27.0638 15.5915 27.1886 15.6608 27.2795 15.7594C27.3599 15.8467 27.4207 15.9501 27.4579 16.0627C27.5 16.19 27.5 16.3328 27.5 16.6183V17.9171M27.5 22.0838V23.3826C27.5 23.6681 27.5 23.8109 27.4579 23.9382C27.4207 24.0509 27.3599 24.1543 27.2795 24.2415C27.1886 24.3401 27.0638 24.4095 26.8142 24.5482L25.625 25.2088M18.125 18.9588L20 20.0005M20 20.0005L21.875 18.9588M20 20.0005V22.0838M12.5 15.8338L14.375 16.8755M25.625 16.8755L27.5 15.8338M20 26.2505V28.3338" stroke="url(#paint3_linear_1431_3635)" stroke-linecap="round" stroke-linejoin="round"/>
</g>
<rect x="0.416667" y="0.416667" width="39.1667" height="39.1667" rx="19.5833" stroke="white" stroke-opacity="0.1" stroke-width="0.833333"/>
<defs>
<filter id="filter0_f_1431_3635" x="-135.092" y="-56.8929" width="201.155" height="203.471" filterUnits="userSpaceOnUse" color-interpolation-filters="sRGB">
<feFlood flood-opacity="0" result="BackgroundImageFix"/>
<feBlend mode="normal" in="SourceGraphic" in2="BackgroundImageFix" result="shape"/>
<feGaussianBlur stdDeviation="8.37904" result="effect1_foregroundBlur_1431_3635"/>
</filter>
<filter id="filter1_f_1431_3635" x="-88.1682" y="-59.2679" width="201.155" height="203.471" filterUnits="userSpaceOnUse" color-interpolation-filters="sRGB">
<feFlood flood-opacity="0" result="BackgroundImageFix"/>
<feBlend mode="normal" in="SourceGraphic" in2="BackgroundImageFix" result="shape"/>
<feGaussianBlur stdDeviation="8.37904" result="effect1_foregroundBlur_1431_3635"/>
</filter>
<filter id="filter2_f_1431_3635" x="-70.1507" y="-35.1077" width="201.155" height="203.471" filterUnits="userSpaceOnUse" color-interpolation-filters="sRGB">
<feFlood flood-opacity="0" result="BackgroundImageFix"/>
<feBlend mode="normal" in="SourceGraphic" in2="BackgroundImageFix" result="shape"/>
<feGaussianBlur stdDeviation="8.37904" result="effect1_foregroundBlur_1431_3635"/>
</filter>
<linearGradient id="paint0_linear_1431_3635" x1="-115.519" y1="127.006" x2="-16.7714" y2="28.258" gradientUnits="userSpaceOnUse">
<stop stop-color="#050505"/>
<stop offset="1" stop-color="#050505"/>
</linearGradient>
<linearGradient id="paint1_linear_1431_3635" x1="-68.5956" y1="124.631" x2="30.1524" y2="25.883" gradientUnits="userSpaceOnUse">
<stop stop-color="#050505"/>
<stop offset="1" stop-color="#050505"/>
</linearGradient>
<linearGradient id="paint2_linear_1431_3635" x1="-50.578" y1="148.791" x2="48.17" y2="50.0432" gradientUnits="userSpaceOnUse">
<stop stop-color="#050505"/>
<stop offset="1" stop-color="#050505"/>
</linearGradient>
<linearGradient id="paint3_linear_1431_3635" x1="20" y1="11.7871" x2="20" y2="28.3338" gradientUnits="userSpaceOnUse">
<stop stop-color="#050505"/>
<stop offset="1" stop-color="#72868B"/>
</linearGradient>
<clipPath id="clip0_1431_3635">
<rect width="40" height="40" rx="20" fill="white"/>
</clipPath>
</defs>
</svg>
