<svg width="36" height="40" viewBox="0 0 36 40" fill="none" xmlns="http://www.w3.org/2000/svg">
<g filter="url(#filter0_i_2643_4994)">
<path d="M17.4526 0.316023C17.7913 0.120467 18.2087 0.120467 18.5474 0.316023L34.7731 9.68398C35.1119 9.87953 35.3205 10.2409 35.3205 10.632V29.368C35.3205 29.7591 35.1119 30.1205 34.7731 30.316L18.5474 39.684C18.2087 39.8795 17.7913 39.8795 17.4526 39.684L1.22686 30.316C0.888145 30.1205 0.679491 29.7591 0.679491 29.368L0.679491 10.632C0.679491 10.2409 0.888147 9.87953 1.22686 9.68398L17.4526 0.316023Z" fill="#050505"/>
<path d="M17.4526 0.316023C17.7913 0.120467 18.2087 0.120467 18.5474 0.316023L34.7731 9.68398C35.1119 9.87953 35.3205 10.2409 35.3205 10.632V29.368C35.3205 29.7591 35.1119 30.1205 34.7731 30.316L18.5474 39.684C18.2087 39.8795 17.7913 39.8795 17.4526 39.684L1.22686 30.316C0.888145 30.1205 0.679491 29.7591 0.679491 29.368L0.679491 10.632C0.679491 10.2409 0.888147 9.87953 1.22686 9.68398L17.4526 0.316023Z" fill="url(#paint0_angular_2643_4994)" fill-opacity="0.5" style="mix-blend-mode:hard-light"/>
</g>
<path d="M17.7935 0.906494C17.9213 0.832734 18.0787 0.832734 18.2065 0.906495L34.4322 10.2744C34.56 10.3482 34.6387 10.4845 34.6387 10.632V29.368C34.6387 29.5155 34.56 29.6518 34.4322 29.7256L18.2065 39.0935C18.0787 39.1673 17.9213 39.1673 17.7935 39.0935L1.56777 29.7256C1.44001 29.6518 1.36131 29.5155 1.36131 29.368L1.36131 10.632C1.36131 10.4845 1.44001 10.3482 1.56777 10.2744L17.7935 0.906494Z" stroke="url(#paint1_linear_2643_4994)" stroke-width="1.36364"/>
<defs>
<filter id="filter0_i_2643_4994" x="0.679688" y="0.169312" width="34.6406" height="40.3351" filterUnits="userSpaceOnUse" color-interpolation-filters="sRGB">
<feFlood flood-opacity="0" result="BackgroundImageFix"/>
<feBlend mode="normal" in="SourceGraphic" in2="BackgroundImageFix" result="shape"/>
<feColorMatrix in="SourceAlpha" type="matrix" values="0 0 0 0 0 0 0 0 0 0 0 0 0 0 0 0 0 0 127 0" result="hardAlpha"/>
<feOffset dy="0.673684"/>
<feGaussianBlur stdDeviation="1.64211"/>
<feComposite in2="hardAlpha" operator="arithmetic" k2="-1" k3="1"/>
<feColorMatrix type="matrix" values="0 0 0 0 0 0 0 0 0 0 0 0 0 0 0 0 0 0 1 0"/>
<feBlend mode="normal" in2="shape" result="effect1_innerShadow_2643_4994"/>
</filter>
<radialGradient id="paint0_angular_2643_4994" cx="0" cy="0" r="1" gradientUnits="userSpaceOnUse" gradientTransform="translate(18 20) rotate(-44.1588) scale(18.2528)">
<stop offset="0.0369556" stop-color="#BAC3C4"/>
<stop offset="0.206473" stop-color="#99A6A7"/>
<stop offset="0.371415" stop-color="#99A6A7"/>
<stop offset="0.540908" stop-color="#99A6A7"/>
<stop offset="0.706335" stop-color="#BAC3C4"/>
<stop offset="0.874505" stop-color="#99A6A7"/>
</radialGradient>
<linearGradient id="paint1_linear_2643_4994" x1="18" y1="0" x2="18" y2="40" gradientUnits="userSpaceOnUse">
<stop stop-color="#182B2D"/>
<stop offset="0.01" stop-color="#4E6466"/>
<stop offset="0.29" stop-color="white"/>
<stop offset="0.64" stop-color="#E9ECEC"/>
<stop offset="1" stop-color="#6B7D7F"/>
</linearGradient>
</defs>
</svg>
