<svg width="61" height="86" viewBox="0 0 61 86" fill="none" xmlns="http://www.w3.org/2000/svg">
<g opacity="0.5" filter="url(#filter0_bdi_2380_1817)">
<rect x="-59" y="19.5176" width="100.503" height="44.4248" rx="4.93609" transform="rotate(-5.43402 -59 19.5176)" fill="white" fill-opacity="0.3"/>
<rect x="-58.6637" y="19.7955" width="99.8859" height="43.8078" rx="4.62758" transform="rotate(-5.43402 -58.6637 19.7955)" stroke="white" stroke-width="0.617011"/>
<path d="M-11.3549 30.6086L-12.07 23.0903L-9.704 22.8653C-9.18067 22.8155 -8.68139 22.8647 -8.20617 23.0128C-7.73165 23.1536 -7.30504 23.3771 -6.92636 23.6832C-6.54838 23.9819 -6.24183 24.3507 -6.00671 24.7895C-5.76423 25.2275 -5.61704 25.7193 -5.56515 26.2647C-5.51467 26.7954 -5.56316 27.3021 -5.71063 27.7847C-5.8588 28.2599 -6.08629 28.6831 -6.3931 29.0545C-6.7006 29.4184 -7.07742 29.7183 -7.52356 29.9541C-7.96232 30.1892 -8.45074 30.3324 -8.98881 30.3835L-11.3549 30.6086ZM-10.1269 29.2088L-9.16504 29.1173C-8.68594 29.0718 -8.27263 28.9209 -7.92512 28.6647C-7.57761 28.4085 -7.31855 28.0826 -7.14792 27.6871C-6.96993 27.2908 -6.90302 26.8605 -6.94719 26.3962C-6.99206 25.9244 -7.13891 25.5145 -7.38772 25.1663C-7.62987 24.81 -7.94538 24.5425 -8.33425 24.3638C-8.72383 24.1777 -9.15817 24.1075 -9.63728 24.1531L-10.5992 24.2446L-10.1269 29.2088ZM-2.79565 29.7944L-3.13536 26.2232L-6.30808 22.5422L-4.66069 22.3855L-2.5582 25.0192L-1.00106 22.0374L0.646327 21.8807L-1.77544 26.0939L-1.43572 29.665L-2.79565 29.7944ZM2.18478 29.3206L1.46959 21.8024L3.83563 21.5773C4.35897 21.5275 4.85824 21.5767 5.33347 21.7249C5.80799 21.8657 6.23459 22.0891 6.61328 22.3952C6.99126 22.694 7.29781 23.0627 7.53292 23.5015C7.77541 23.9395 7.92259 24.4313 7.97448 24.9767C8.02496 25.5074 7.97647 26.0141 7.829 26.4967C7.68083 26.9719 7.45334 27.3952 7.14654 27.7665C6.83903 28.1304 6.46221 28.4303 6.01608 28.6661C5.57731 28.9012 5.0889 29.0444 4.55082 29.0956L2.18478 29.3206ZM3.41269 27.9209L4.37459 27.8293C4.8537 27.7838 5.267 27.6329 5.61451 27.3767C5.96202 27.1205 6.22109 26.7947 6.39171 26.3991C6.56971 26.0029 6.63662 25.5726 6.59244 25.1082C6.54757 24.6365 6.40073 24.2265 6.15191 23.8783C5.90977 23.522 5.59426 23.2545 5.20538 23.0758C4.8158 22.8897 4.38146 22.8195 3.90236 22.8651L2.94046 22.9566L3.41269 27.9209ZM8.16321 28.7519L10.426 24.7435L7.44802 21.2337L9.11752 21.0748L11.1758 23.7128L12.6998 20.7341L14.3582 20.5763L12.0955 24.5847L15.0734 28.0946L13.4149 28.2523L11.3567 25.6144L9.83271 28.5931L8.16321 28.7519Z" fill="#050505"/>
<path d="M-10.7607 39.5928L-11.158 35.416L-8.67648 35.1799L-8.6385 35.5792L-10.6901 35.7743L-10.5487 37.2608L-8.55852 37.0715L-8.51996 37.4769L-10.5101 37.6662L-10.3687 39.1526L-8.31713 38.9575L-8.27915 39.3567L-10.7607 39.5928ZM-7.05101 39.2399L-7.27013 36.9365L-7.94579 37.0008L-7.98377 36.6015L-7.30811 36.5372L-7.40802 35.4869L-6.97806 35.446L-6.87814 36.4963L-6.20862 36.4327L-6.17064 36.8319L-6.84016 36.8956L-6.62105 39.199L-7.05101 39.2399ZM-5.36882 39.0799L-5.80705 34.4731L-5.37708 34.4322L-5.15154 36.8031C-5.07957 36.6476 -4.97864 36.514 -4.84876 36.4025C-4.71518 36.2865 -4.54806 36.2189 -4.34741 36.1998C-4.12219 36.1784 -3.93159 36.2057 -3.7756 36.2818C-3.61591 36.3534 -3.49161 36.4655 -3.40271 36.6182C-3.30972 36.7705 -3.25289 36.9552 -3.23225 37.1722L-3.07157 38.8613L-3.50153 38.9022L-3.66222 37.2131C-3.67234 37.1066 -3.69846 37.0058 -3.74057 36.9106C-3.77858 36.8151 -3.83941 36.7403 -3.92306 36.6863C-4.00261 36.6319 -4.10791 36.6109 -4.23894 36.6234C-4.46007 36.6444 -4.63372 36.7084 -4.75989 36.8155C-4.88607 36.9225 -4.97129 37.069 -5.01558 37.2551C-5.06025 37.437 -5.07051 37.6549 -5.04636 37.9088L-4.93885 39.039L-5.36882 39.0799ZM-0.973499 38.7051C-1.24376 38.7309 -1.49696 38.6971 -1.73309 38.6039C-1.96551 38.5061 -2.15922 38.3593 -2.31422 38.1633C-2.46961 37.9632 -2.56074 37.7219 -2.58762 37.4394C-2.61255 37.1773 -2.57167 36.9337 -2.46498 36.7087C-2.3583 36.4837 -2.20452 36.2976 -2.00366 36.1504C-1.8028 36.0032 -1.57134 35.9172 -1.30926 35.8922C-1.05538 35.8681 -0.815928 35.9093 -0.590916 36.016C-0.365905 36.1227 -0.177947 36.2742 -0.0270429 36.4706C0.123861 36.667 0.211388 36.8921 0.23554 37.146L0.2519 37.318L-2.30333 37.5611L-2.34131 37.1618L-0.240616 36.962C-0.309232 36.7619 -0.44025 36.6008 -0.633671 36.4787C-0.823386 36.3522 -1.03495 36.3 -1.26836 36.3222C-1.46082 36.3405 -1.62648 36.4017 -1.76532 36.5058C-1.90008 36.6095 -2.001 36.7431 -2.0681 36.9065C-2.13558 37.0658 -2.16017 37.2417 -2.14186 37.4341C-2.12394 37.6225 -2.06107 37.7839 -1.95326 37.9182C-1.84583 38.0485 -1.71471 38.1455 -1.55989 38.2093C-1.40507 38.2731 -1.24576 38.2972 -1.08197 38.2816C-0.955024 38.2695 -0.839682 38.2441 -0.735941 38.2053C-0.628105 38.1661 -0.531869 38.1136 -0.447234 38.0477C-0.358505 37.9814 -0.28157 37.8997 -0.216432 37.8026L0.134824 38.0419C0.0556428 38.1651 -0.0453764 38.276 -0.168234 38.3744C-0.287385 38.4684 -0.41648 38.5447 -0.555517 38.6034C-0.694944 38.658 -0.834271 38.6919 -0.973499 38.7051ZM1.04349 38.4699L0.7864 35.7672L1.21637 35.7263L1.26662 36.2546C1.30544 36.098 1.35371 35.9757 1.41144 35.8875C1.47287 35.7949 1.54503 35.7281 1.62791 35.6872C1.71039 35.6422 1.80078 35.615 1.89906 35.6056C1.9441 35.6013 1.98953 35.6011 2.03536 35.6051C2.08527 35.6086 2.13168 35.6186 2.17458 35.6352L2.22775 36.1941C2.17433 36.1538 2.12002 36.1259 2.06484 36.1105C2.00927 36.091 1.95282 36.0839 1.89549 36.0894C1.76445 36.1019 1.65428 36.1599 1.56496 36.2634C1.47934 36.3624 1.41674 36.4862 1.37714 36.6345C1.34124 36.7784 1.3305 36.9262 1.34491 37.0777L1.47346 38.429L1.04349 38.4699ZM4.3471 38.199C4.07684 38.2247 3.82364 38.191 3.58751 38.0977C3.35509 38 3.16138 37.8532 3.00638 37.6572C2.85099 37.4571 2.75986 37.2158 2.73298 36.9332C2.70805 36.6712 2.74893 36.4276 2.85561 36.2026C2.9623 35.9776 3.11607 35.7915 3.31693 35.6443C3.5178 35.4971 3.74926 35.411 4.01134 35.3861C4.26522 35.3619 4.50467 35.4032 4.72968 35.5099C4.95469 35.6166 5.14265 35.7681 5.29356 35.9645C5.44446 36.1609 5.53199 36.386 5.55614 36.6399L5.5725 36.8119L3.01727 37.0549L2.97929 36.6557L5.07998 36.4558C5.01137 36.2558 4.88035 36.0947 4.68693 35.9726C4.49721 35.846 4.28565 35.7939 4.05224 35.8161C3.85978 35.8344 3.69412 35.8956 3.55528 35.9997C3.42052 36.1034 3.3196 36.237 3.2525 36.4004C3.18502 36.5597 3.16043 36.7356 3.17874 36.928C3.19666 37.1164 3.25952 37.2777 3.36734 37.4121C3.47477 37.5424 3.60589 37.6394 3.76071 37.7032C3.91553 37.767 4.07484 37.7911 4.23863 37.7755C4.36558 37.7634 4.48092 37.738 4.58466 37.6992C4.69249 37.66 4.78873 37.6075 4.87336 37.5416C4.96209 37.4753 5.03903 37.3936 5.10417 37.2965L5.45542 37.5358C5.37624 37.659 5.27522 37.7698 5.15237 37.8683C5.03321 37.9623 4.90412 38.0386 4.76508 38.0973C4.62565 38.1519 4.48633 38.1858 4.3471 38.199ZM7.33371 37.9273C7.12077 37.9476 6.93816 37.9174 6.78588 37.8369C6.63321 37.7522 6.51242 37.6336 6.42352 37.4809C6.33872 37.3278 6.28677 37.1509 6.26768 36.9503L6.107 35.2611L6.53697 35.2202L6.69765 36.9094C6.70778 37.0158 6.73185 37.1168 6.76986 37.2124C6.81197 37.3076 6.8728 37.3823 6.95235 37.4368C7.036 37.4908 7.14334 37.5116 7.27438 37.4991C7.51598 37.4761 7.69723 37.4052 7.81814 37.2862C7.94315 37.1669 8.0237 37.0146 8.05979 36.8294C8.0955 36.64 8.10283 36.4348 8.0818 36.2137L7.97428 35.0835L8.40425 35.0426L8.66134 37.7452L8.23138 37.7861L8.18755 37.3255C8.10154 37.5072 7.98687 37.6482 7.84354 37.7487C7.7043 37.8487 7.53436 37.9082 7.33371 37.9273ZM9.45811 37.657L9.20102 34.9544L9.63098 34.9135L9.67188 35.3435C9.74054 35.1964 9.8359 35.0696 9.95798 34.963C10.0801 34.8563 10.2353 34.794 10.4236 34.7761C10.6284 34.7566 10.8065 34.7831 10.958 34.8554C11.1091 34.9237 11.232 35.0422 11.3265 35.2109C11.3944 35.0556 11.4912 34.9225 11.617 34.8113C11.7428 34.7002 11.8999 34.6357 12.0882 34.6178C12.2971 34.5979 12.4772 34.6241 12.6287 34.6965C12.7803 34.7689 12.9005 34.8814 12.9894 35.0341C13.0783 35.1868 13.1334 35.3757 13.1548 35.6009L13.3155 37.2901L12.8856 37.331L12.7249 35.6418C12.7128 35.5149 12.6839 35.4061 12.638 35.3154C12.5918 35.2206 12.5253 35.1505 12.4383 35.1051C12.355 35.0552 12.2479 35.0364 12.1169 35.0489C12.0063 35.0594 11.9007 35.1004 11.8001 35.172C11.7031 35.2391 11.6246 35.3251 11.5643 35.43C11.5036 35.5308 11.479 35.6405 11.4903 35.7593L11.6509 37.4484L11.221 37.4893L11.0603 35.8002C11.0482 35.6732 11.0193 35.5644 10.9735 35.4738C10.9273 35.379 10.8607 35.3089 10.7737 35.2634C10.6904 35.2135 10.5833 35.1948 10.4523 35.2072C10.3008 35.2217 10.172 35.2794 10.0659 35.3804C9.96387 35.481 9.88693 35.606 9.83505 35.7556C9.78316 35.9052 9.75702 36.0647 9.75661 36.2341L9.88808 37.6161L9.45811 37.657Z" fill="#8B8B92"/>
<path d="M-8.73613 50.517L-8.8399 49.4261L-9.92342 49.5292L-9.9718 49.0206L-8.88828 48.9175L-8.99205 47.8266L-8.47609 47.7776L-8.37232 48.8684L-7.28143 48.7647L-7.23305 49.2733L-8.32394 49.377L-8.22017 50.4679L-8.73613 50.517ZM-6.29493 50.5376L-3.9493 47.6742C-3.88261 47.5935 -3.82866 47.509 -3.78747 47.4208C-3.74675 47.3277 -3.71854 47.2332 -3.70285 47.1375C-3.68763 47.0369 -3.68493 46.935 -3.69474 46.8318C-3.71484 46.6205 -3.78444 46.4363 -3.90352 46.279C-4.02308 46.1168 -4.17621 45.9926 -4.36293 45.9062C-4.54964 45.8198 -4.75111 45.7869 -4.96732 45.8075C-5.19336 45.829 -5.39168 45.9074 -5.56227 46.0426C-5.73287 46.1778 -5.85842 46.3435 -5.93894 46.5396C-6.01992 46.7307 -6.04077 46.9286 -6.00148 47.1331L-6.52481 47.1829C-6.57134 46.8501 -6.53083 46.5463 -6.40327 46.2714C-6.27127 45.991 -6.08229 45.7623 -5.83635 45.5852C-5.58549 45.4077 -5.30527 45.3042 -4.99569 45.2747C-4.69594 45.2462 -4.4113 45.2935 -4.14175 45.4166C-3.86776 45.5343 -3.64022 45.711 -3.45913 45.9467C-3.27805 46.1823 -3.17208 46.4623 -3.14123 46.7866C-3.12674 46.939 -3.1326 47.0858 -3.15883 47.2271C-3.18014 47.368 -3.2218 47.5033 -3.28382 47.6332C-3.34093 47.7626 -3.4184 47.8865 -3.51622 48.0049L-5.09834 49.9032L-2.81337 49.6858L-2.76429 50.2018L-6.29493 50.5376ZM-1.23716 50.1309C-1.34526 50.1412 -1.44751 50.1088 -1.54391 50.0336C-1.64031 49.9585 -1.69365 49.8669 -1.70393 49.7588C-1.71515 49.6409 -1.68273 49.5386 -1.60667 49.452C-1.53108 49.3606 -1.43432 49.3092 -1.31639 49.298C-1.19354 49.2863 -1.08661 49.3158 -0.995593 49.3865C-0.904577 49.4571 -0.85346 49.5515 -0.842241 49.6694C-0.831023 49.7873 -0.865665 49.8923 -0.946169 49.9842C-1.02714 50.0712 -1.12414 50.1201 -1.23716 50.1309ZM1.81074 49.8335C1.49625 49.8634 1.2212 49.8127 0.985583 49.6815C0.75488 49.5497 0.561271 49.3648 0.404756 49.1268C0.252687 48.8835 0.132679 48.6122 0.0447305 48.3132C-0.043218 48.0141 -0.101449 47.7147 -0.129963 47.415C-0.152868 47.1742 -0.158808 46.9293 -0.147783 46.6804C-0.131844 46.4309 -0.0950805 46.1919 -0.0374931 45.9633C0.0250084 45.7342 0.11196 45.5276 0.223361 45.3435C0.339676 45.1589 0.486523 45.0086 0.663902 44.8925C0.845728 44.7711 1.0644 44.6982 1.31993 44.6739C1.57545 44.6496 1.80148 44.6802 1.99803 44.7656C2.19902 44.8456 2.37158 44.9656 2.5157 45.1254C2.66473 45.2848 2.78908 45.4713 2.88874 45.6849C2.99331 45.8981 3.07448 46.1259 3.13225 46.3683C3.19493 46.6103 3.23773 46.8517 3.26063 47.0925C3.28915 47.3922 3.28841 47.6972 3.25843 48.0075C3.22844 48.3178 3.15926 48.607 3.05089 48.8751C2.94697 49.1379 2.79415 49.3557 2.59243 49.5286C2.39071 49.7015 2.13015 49.8031 1.81074 49.8335ZM1.73885 49.3123C1.94523 49.2927 2.11606 49.212 2.25132 49.0702C2.39103 48.923 2.50044 48.744 2.57955 48.5332C2.66311 48.317 2.71579 48.0889 2.73757 47.8488C2.76381 47.6033 2.76688 47.3749 2.74678 47.1636C2.72387 46.9229 2.6764 46.6844 2.60435 46.4483C2.53676 46.2068 2.444 45.9876 2.32609 45.7905C2.21309 45.593 2.07459 45.4401 1.91057 45.3317C1.74608 45.2185 1.56065 45.1716 1.35427 45.1913C1.14788 45.2109 0.976824 45.2892 0.841093 45.426C0.704895 45.558 0.599462 45.7267 0.524796 45.9321C0.449662 46.1327 0.400967 46.3505 0.378712 46.5857C0.355989 46.8159 0.355145 47.0416 0.37618 47.2627C0.390671 47.415 0.414403 47.5863 0.447375 47.7766C0.480347 47.9668 0.528061 48.1556 0.590516 48.3431C0.657885 48.5301 0.741051 48.7006 0.840013 48.8549C0.938975 49.0091 1.06193 49.1288 1.20886 49.214C1.36072 49.2987 1.53738 49.3315 1.73885 49.3123ZM5.93526 49.4412C5.62077 49.4711 5.34571 49.4204 5.1101 49.2891C4.87939 49.1573 4.68578 48.9725 4.52927 48.7345C4.3772 48.4911 4.25719 48.2199 4.16924 47.9208C4.0813 47.6218 4.02306 47.3224 3.99455 47.0226C3.97165 46.7819 3.96571 46.537 3.97673 46.288C3.99267 46.0386 4.02943 45.7996 4.08702 45.571C4.14952 45.3419 4.23647 45.1353 4.34787 44.9511C4.46419 44.7665 4.61104 44.6162 4.78842 44.5002C4.97024 44.3787 5.18892 44.3059 5.44444 44.2816C5.69996 44.2573 5.926 44.2878 6.12254 44.3733C6.32353 44.4533 6.49609 44.5732 6.64021 44.7331C6.78925 44.8924 6.91359 45.0789 7.01325 45.2926C7.11782 45.5058 7.19899 45.7336 7.25676 45.976C7.31945 46.2179 7.36224 46.4593 7.38515 46.7001C7.41366 46.9998 7.41292 47.3049 7.38294 47.6151C7.35295 47.9254 7.28378 48.2146 7.17541 48.4828C7.07149 48.7455 6.91866 48.9633 6.71694 49.1362C6.51522 49.3091 6.25466 49.4108 5.93526 49.4412ZM5.86336 48.9199C6.06974 48.9003 6.24057 48.8196 6.37583 48.6778C6.51554 48.5306 6.62495 48.3517 6.70407 48.1408C6.78763 47.9246 6.8403 47.6965 6.86209 47.4564C6.88832 47.211 6.89139 46.9826 6.87129 46.7713C6.84838 46.5305 6.80091 46.2921 6.72887 46.056C6.66127 45.8145 6.56851 45.5952 6.4506 45.3982C6.33761 45.2007 6.1991 45.0477 6.03508 44.9394C5.8706 44.8261 5.68516 44.7793 5.47878 44.7989C5.2724 44.8186 5.10134 44.8968 4.96561 45.0337C4.82941 45.1656 4.72398 45.3343 4.64931 45.5398C4.57418 45.7403 4.52548 45.9581 4.50323 46.1933C4.4805 46.4236 4.47966 46.6492 4.50069 46.8704C4.51518 47.0227 4.53892 47.194 4.57189 47.3842C4.60486 47.5745 4.65257 47.7633 4.71503 47.9507C4.7824 48.1377 4.86556 48.3083 4.96453 48.4625C5.06349 48.6167 5.18644 48.7364 5.33338 48.8216C5.48523 48.9063 5.66189 48.9391 5.86336 48.9199ZM9.0068 49.082L11.2793 43.8083L11.8248 43.7564L9.5375 49.0316L9.0068 49.082ZM12.0285 48.869C11.8811 48.883 11.7434 48.8688 11.6154 48.8265C11.4923 48.7836 11.3819 48.7173 11.2841 48.6274C11.1912 48.5371 11.1168 48.4326 11.0609 48.314C11.0045 48.1904 10.9698 48.0598 10.9567 47.9222C10.9441 47.7896 10.954 47.6597 10.9866 47.5326C11.0186 47.4007 11.0693 47.2818 11.1386 47.1761C11.2128 47.0698 11.3085 46.9814 11.4257 46.9107C11.5429 46.8401 11.6777 46.7975 11.8301 46.783C11.9775 46.769 12.113 46.7859 12.2365 46.8336C12.3645 46.876 12.4749 46.9423 12.5678 47.0327C12.6607 47.123 12.7353 47.2299 12.7917 47.3535C12.8476 47.4721 12.8821 47.6002 12.8952 47.7378C12.9078 47.8705 12.8981 48.0028 12.866 48.1348C12.8384 48.2614 12.7875 48.3778 12.7133 48.484C12.6391 48.5902 12.5459 48.6784 12.4335 48.7486C12.3208 48.8139 12.1857 48.854 12.0285 48.869ZM11.9899 48.4636C12.1521 48.4482 12.2696 48.38 12.3423 48.259C12.4147 48.1331 12.444 47.9989 12.4305 47.8564C12.4193 47.7385 12.3962 47.6266 12.3614 47.5209C12.3261 47.4102 12.2707 47.3237 12.1954 47.2615C12.12 47.1992 12.0111 47.1749 11.8686 47.1884C11.7458 47.2001 11.6503 47.2389 11.5822 47.3049C11.5186 47.3655 11.4742 47.4466 11.4492 47.5481C11.429 47.6492 11.4246 47.7587 11.4358 47.8767C11.454 48.0683 11.508 48.2194 11.5979 48.3298C11.6922 48.4349 11.8229 48.4795 11.9899 48.4636ZM8.98748 46.0642C8.83514 46.0787 8.69498 46.0648 8.56699 46.0224C8.44345 45.9747 8.33524 45.9056 8.24235 45.8153C8.14947 45.725 8.07507 45.6205 8.01916 45.5018C7.96769 45.3778 7.93565 45.2495 7.92303 45.1168C7.90994 44.9792 7.91967 44.8469 7.9522 44.7198C7.98428 44.5879 8.03741 44.4688 8.11159 44.3625C8.18578 44.2563 8.27927 44.1706 8.39206 44.1053C8.5093 44.0346 8.64163 43.9923 8.78905 43.9783C8.94629 43.9633 9.08668 43.9797 9.21023 44.0275C9.33868 44.0747 9.4469 44.1438 9.53487 44.2346C9.62776 44.3249 9.70239 44.4319 9.75877 44.5554C9.81468 44.6741 9.84894 44.7997 9.86156 44.9324C9.87465 45.07 9.86493 45.2023 9.83239 45.3294C9.79985 45.4564 9.74403 45.5733 9.66493 45.68C9.59074 45.7862 9.49503 45.8746 9.37779 45.9453C9.265 46.0106 9.13489 46.0502 8.98748 46.0642ZM8.94891 45.6588C9.11598 45.6429 9.23322 45.5723 9.30063 45.4469C9.37294 45.321 9.40279 45.1917 9.39017 45.059C9.37989 44.9509 9.35978 44.8438 9.32984 44.7375C9.29943 44.6264 9.24632 44.5372 9.17052 44.4701C9.09424 44.398 8.9824 44.369 8.83498 44.383C8.72687 44.3933 8.63608 44.4292 8.5626 44.4907C8.49357 44.5469 8.44337 44.6186 8.412 44.7058C8.38555 44.7926 8.37723 44.8876 8.38705 44.9908C8.40575 45.1874 8.45382 45.3539 8.53125 45.4903C8.61314 45.6214 8.75236 45.6775 8.94891 45.6588Z" fill="#05A83E"/>
</g>
<defs>
<filter id="filter0_bdi_2380_1817" x="-75" y="0" width="136.258" height="85.7427" filterUnits="userSpaceOnUse" color-interpolation-filters="sRGB">
<feFlood flood-opacity="0" result="BackgroundImageFix"/>
<feGaussianBlur in="BackgroundImageFix" stdDeviation="5"/>
<feComposite in2="SourceAlpha" operator="in" result="effect1_backgroundBlur_2380_1817"/>
<feColorMatrix in="SourceAlpha" type="matrix" values="0 0 0 0 0 0 0 0 0 0 0 0 0 0 0 0 0 0 127 0" result="hardAlpha"/>
<feOffset dy="6"/>
<feGaussianBlur stdDeviation="8"/>
<feColorMatrix type="matrix" values="0 0 0 0 0.0196078 0 0 0 0 0.0196078 0 0 0 0 0.0196078 0 0 0 0.04 0"/>
<feBlend mode="normal" in2="effect1_backgroundBlur_2380_1817" result="effect2_dropShadow_2380_1817"/>
<feBlend mode="normal" in="SourceGraphic" in2="effect2_dropShadow_2380_1817" result="shape"/>
<feColorMatrix in="SourceAlpha" type="matrix" values="0 0 0 0 0 0 0 0 0 0 0 0 0 0 0 0 0 0 127 0" result="hardAlpha"/>
<feOffset dy="4"/>
<feGaussianBlur stdDeviation="2"/>
<feComposite in2="hardAlpha" operator="arithmetic" k2="-1" k3="1"/>
<feColorMatrix type="matrix" values="0 0 0 0 1 0 0 0 0 1 0 0 0 0 1 0 0 0 0.25 0"/>
<feBlend mode="normal" in2="shape" result="effect3_innerShadow_2380_1817"/>
</filter>
</defs>
</svg>
