<svg width="396" height="44" viewBox="0 0 396 44" fill="none" xmlns="http://www.w3.org/2000/svg">
<path opacity="0.4" d="M66 9L66 35" stroke="url(#paint0_linear_1470_17411)"/>
<path opacity="0.4" d="M74 9L74 35" stroke="url(#paint1_linear_1470_17411)"/>
<path opacity="0.4" d="M82 9L82 35" stroke="url(#paint2_linear_1470_17411)"/>
<path opacity="0.4" d="M90 9L90 35" stroke="url(#paint3_linear_1470_17411)"/>
<path opacity="0.4" d="M98 9L98 35" stroke="url(#paint4_linear_1470_17411)"/>
<path opacity="0.4" d="M106 9L106 35" stroke="url(#paint5_linear_1470_17411)"/>
<path d="M114 2V42" stroke="url(#paint6_linear_1470_17411)"/>
<path opacity="0.4" d="M122 9L122 35" stroke="url(#paint7_linear_1470_17411)"/>
<path opacity="0.4" d="M130 9L130 35" stroke="url(#paint8_linear_1470_17411)"/>
<path opacity="0.4" d="M138 9L138 35" stroke="url(#paint9_linear_1470_17411)"/>
<path opacity="0.4" d="M146 9L146 35" stroke="url(#paint10_linear_1470_17411)"/>
<path opacity="0.4" d="M154 9L154 35" stroke="url(#paint11_linear_1470_17411)"/>
<path opacity="0.4" d="M162 9L162 35" stroke="url(#paint12_linear_1470_17411)"/>
<path d="M170 2V42" stroke="url(#paint13_linear_1470_17411)"/>
<path opacity="0.4" d="M178 9L178 35" stroke="url(#paint14_linear_1470_17411)"/>
<path opacity="0.4" d="M186 9L186 35" stroke="url(#paint15_linear_1470_17411)"/>
<path opacity="0.4" d="M194 9L194 35" stroke="url(#paint16_linear_1470_17411)"/>
<path opacity="0.4" d="M202 9L202 35" stroke="url(#paint17_linear_1470_17411)"/>
<path opacity="0.4" d="M210 9L210 35" stroke="url(#paint18_linear_1470_17411)"/>
<path opacity="0.4" d="M218 9L218 35" stroke="url(#paint19_linear_1470_17411)"/>
<path d="M226 2V42" stroke="url(#paint20_linear_1470_17411)"/>
<path opacity="0.4" d="M234 9L234 35" stroke="url(#paint21_linear_1470_17411)"/>
<path opacity="0.4" d="M242 9L242 35" stroke="url(#paint22_linear_1470_17411)"/>
<path opacity="0.4" d="M250 9L250 35" stroke="url(#paint23_linear_1470_17411)"/>
<path opacity="0.4" d="M258 9L258 35" stroke="url(#paint24_linear_1470_17411)"/>
<path opacity="0.4" d="M266 9L266 35" stroke="url(#paint25_linear_1470_17411)"/>
<path opacity="0.4" d="M274 9L274 35" stroke="url(#paint26_linear_1470_17411)"/>
<path d="M282 2V42" stroke="url(#paint27_linear_1470_17411)"/>
<path opacity="0.4" d="M290 9L290 35" stroke="url(#paint28_linear_1470_17411)"/>
<path opacity="0.4" d="M298 9L298 35" stroke="url(#paint29_linear_1470_17411)"/>
<path opacity="0.4" d="M306 9L306 35" stroke="url(#paint30_linear_1470_17411)"/>
<path opacity="0.4" d="M314 9L314 35" stroke="url(#paint31_linear_1470_17411)"/>
<path opacity="0.4" d="M322 9L322 35" stroke="url(#paint32_linear_1470_17411)"/>
<path opacity="0.4" d="M330 9L330 35" stroke="url(#paint33_linear_1470_17411)"/>
<path d="M7 22C7 21.4477 7.44772 21 8 21L388 21V22V23H8.00001C7.44772 23 7 22.5523 7 22Z" fill="url(#paint34_linear_1470_17411)"/>
<g filter="url(#filter0_d_1470_17411)">
<path d="M322.59 21.9937C322.59 15.3698 327.96 10 334.584 10H335.411C342.035 10 347.405 15.3698 347.405 21.9937C347.405 28.6177 342.035 33.9875 335.411 33.9875H334.584C327.96 33.9875 322.59 28.6177 322.59 21.9937Z" fill="#FDFCFA"/>
<path d="M323.044 21.9937C323.044 15.6207 328.211 10.4543 334.584 10.4543H335.411C341.784 10.4543 346.95 15.6207 346.95 21.9937C346.95 28.3668 341.784 33.5332 335.411 33.5332H334.584C328.211 33.5332 323.044 28.3668 323.044 21.9937Z" stroke="url(#paint35_linear_1470_17411)" stroke-width="0.908616"/>
<g clip-path="url(#clip0_1470_17411)">
<g clip-path="url(#clip1_1470_17411)">
<mask id="mask0_1470_17411" style="mask-type:luminance" maskUnits="userSpaceOnUse" x="331" y="14" width="10" height="16">
<path d="M331.136 14.9121H340.044V29.0235H331.136V14.9121Z" fill="white"/>
</mask>
<g mask="url(#mask0_1470_17411)">
<path d="M333.915 20.4051C334.045 20.0761 334.205 19.76 334.394 19.4641C333.54 20.3541 333.208 21.6113 332.953 22.8202C332.963 21.8332 333.216 20.8514 333.68 19.9818C333.553 20.1043 333.425 20.224 333.298 20.3464C333.507 19.9334 333.795 19.5635 334.144 19.2601C333.632 19.3239 333.127 19.4513 332.645 19.6426C332.897 19.4487 333.15 19.2575 333.405 19.0662C333.145 19.0841 332.879 19.0508 332.632 18.9642C332.739 18.9286 332.844 18.8902 332.948 18.8546C332.721 18.8443 332.494 18.8061 332.278 18.7398C332.364 18.7067 332.451 18.6709 332.538 18.6378C332.29 18.6199 332.043 18.5689 331.808 18.4848C331.966 18.4541 332.127 18.4439 332.288 18.449C332.025 18.3701 331.762 18.2884 331.5 18.2094C331.599 18.1813 331.699 18.1508 331.798 18.1226C331.591 18.1252 331.388 18.0206 331.27 17.8498C331.352 17.8574 331.433 17.8625 331.513 17.8702C331.359 17.6891 331.319 17.4188 331.413 17.1995C331.331 17.2759 331.252 17.355 331.173 17.4316C331.265 17.1944 331.385 16.9648 331.533 16.7558C331.446 16.8042 331.359 16.8526 331.275 16.9011C331.479 16.3986 331.747 15.9116 332.142 15.5391C332.535 15.1643 333.066 14.9119 333.609 14.9373C332.79 15.1082 332.061 15.6616 331.676 16.4038C331.826 16.2967 331.974 16.1896 332.125 16.0825C331.974 16.3069 331.826 16.5313 331.676 16.7532C331.752 16.7609 331.826 16.7658 331.9 16.7709C331.535 16.9215 331.451 17.4519 331.673 17.7808C331.892 18.1073 332.313 18.2451 332.709 18.2553C332.558 18.2884 332.407 18.3216 332.257 18.3547C332.4 18.4516 332.578 18.4923 332.749 18.4669C332.721 18.5154 332.696 18.5663 332.668 18.6148C332.739 18.6811 332.851 18.6173 332.948 18.6045C333.045 18.5919 333.134 18.7551 333.035 18.7603C333.305 18.7398 333.576 18.7219 333.846 18.7016C333.718 18.7754 333.593 18.8494 333.466 18.9235C333.828 18.8469 334.188 18.7703 334.55 18.6939C334.175 18.8674 333.802 19.0408 333.428 19.214C333.762 19.1656 334.096 19.1146 334.427 19.0662C334.506 19.056 334.601 19.0306 334.619 18.954C334.695 18.6301 334.909 18.3394 335.195 18.1685C334.58 18.1992 333.968 18.3419 333.402 18.5868C333.843 18.2476 334.392 18.046 334.95 18.0181C334.478 17.9696 334.009 17.9212 333.54 17.8753C333.915 17.7962 334.305 17.7911 334.682 17.8523C334.134 17.6432 333.542 17.5487 332.956 17.582C333.175 17.4775 333.423 17.429 333.665 17.4468C333.379 17.3907 333.096 17.3346 332.81 17.281C332.935 17.2072 333.094 17.1969 333.224 17.253C333.249 16.8552 333.576 16.4981 333.968 16.4368C333.752 16.4242 333.535 16.4089 333.315 16.3961C333.894 16.1028 334.603 16.3961 335.111 16.7991C335.618 17.1995 336.054 17.7196 336.654 17.9671C336.684 17.4952 336.608 17.0184 336.434 16.5823C336.741 17.0005 336.886 17.5336 336.837 18.0486C337.054 17.8216 337.192 17.5208 337.222 17.2072C337.314 17.5259 337.22 17.8931 336.988 18.1303C337.143 18.3496 337.503 18.3165 337.699 18.1303C337.896 17.9466 337.967 17.6686 338.023 17.406C338.026 17.5743 338.028 17.7427 338.031 17.9135C338.153 17.6407 338.276 17.3704 338.398 17.0975C338.411 17.4749 338.26 17.8549 337.993 18.1226C338.184 18.087 338.375 18.0537 338.569 18.0181C338.778 17.9824 339.026 17.9568 339.173 18.1098C339.332 18.2756 339.275 18.5435 339.227 18.7679C339.179 18.9947 339.181 19.2855 339.388 19.3875C339.974 18.6734 339.995 17.5513 339.433 16.817C339.816 17.1255 340.033 17.6228 340.03 18.1175C340.03 18.6097 339.819 19.0943 339.484 19.4564C339.344 19.6068 339.525 19.8899 339.388 20.043C339.265 20.1781 339.342 20.3974 339.449 20.5429C339.553 20.6907 339.694 20.8411 339.683 21.0248C339.648 21.6776 339.76 22.3407 340.007 22.9502C339.936 22.889 339.865 22.8305 339.791 22.7693C339.834 22.9834 339.877 23.1976 339.921 23.4118C339.849 23.2971 339.775 23.1823 339.704 23.065C339.793 23.3378 339.778 23.6465 339.658 23.9066C339.666 23.7077 339.65 23.5087 339.612 23.3124C339.592 23.6796 339.5 24.0444 339.342 24.3759C339.382 24.1438 339.393 23.9066 339.377 23.6693C339.326 24.029 339.191 24.3759 338.99 24.6793C339.059 24.4422 339.105 24.1973 339.133 23.9524C339.005 24.3401 338.796 24.7049 338.526 25.0082C338.661 24.7456 338.763 24.4651 338.827 24.1769C338.674 24.5135 338.447 24.8171 338.166 25.0618C338.304 24.8145 338.441 24.5696 338.579 24.3249C338.424 24.4779 338.268 24.6334 338.113 24.7889C338.373 24.3962 338.587 23.9729 338.75 23.5292C338.612 23.7 338.477 23.8709 338.339 24.0418C338.531 23.6924 338.666 23.3124 338.737 22.9197C338.151 23.9347 337.806 25.0899 337.745 26.2605C337.868 26.2069 337.99 26.156 338.113 26.1024C338.271 26.4977 337.554 26.8546 337.72 27.2474C337.891 27.6555 337.631 28.1223 337.299 28.4154C336.789 28.8591 336.085 29.0708 335.417 28.9816C334.749 28.8924 334.124 28.5022 333.752 27.9386C333.8 27.9717 333.746 28.0585 333.688 28.0508C333.627 28.0457 333.588 27.9896 333.555 27.9411C333.43 27.7524 333.305 27.5612 333.183 27.3724C333.206 27.5025 333.229 27.6325 333.254 27.7652C332.93 27.4641 332.734 27.0332 332.719 26.5946C332.831 26.8267 332.941 27.0588 333.053 27.2907C333.017 27.1301 333.015 26.9643 333.043 26.8037C333.119 27.0714 333.264 27.3214 333.456 27.5228C333.295 27.1836 333.198 26.8139 333.173 26.4391C333.395 27.0127 333.624 27.5968 334.022 28.0636C334.42 28.5327 335.024 28.8719 335.634 28.7904C335.075 28.6526 334.471 28.4869 334.121 28.0303C334.953 28.5199 335.986 28.6552 336.916 28.3977C336.348 28.418 335.769 28.4002 335.231 28.2217C334.69 28.0406 334.19 27.6809 333.953 27.1633C334.68 27.8492 335.687 28.2294 336.687 28.191C336.965 28.1807 337.261 28.1323 337.465 27.9437C337.669 27.7549 337.725 27.3878 337.516 27.2066C337.536 27.3622 337.424 27.5126 337.281 27.5815C337.141 27.6504 336.978 27.6581 336.819 27.6555C336.256 27.6478 335.695 27.5535 335.159 27.375C334.805 27.2576 334.453 27.0995 334.193 26.8318C333.991 26.6225 333.853 26.3574 333.749 26.0845C333.395 25.1639 333.389 24.1515 333.389 23.1646C333.282 24.029 333.178 24.8935 333.071 25.7581C333.007 25.1588 332.999 24.5544 333.05 23.955C332.946 24.1845 332.841 24.4115 332.737 24.6411C332.879 23.6337 333.293 22.6647 333.922 21.8639C334.239 21.4634 334.611 21.1014 335.052 20.8463C335.991 20.3057 337.169 20.298 338.204 20.6193C338.712 20.7774 339.217 21.0299 339.531 21.4609C339.607 21.0605 339.433 20.6397 339.15 20.3464C338.867 20.0531 338.49 19.8696 338.102 19.742C337.608 19.5763 337.085 19.4897 336.562 19.4845C336.348 19.4845 336.131 19.4946 335.927 19.4284C335.725 19.3646 335.539 19.1963 335.524 18.9847C335.504 18.7067 335.797 18.4823 336.075 18.4874C336.355 18.49 336.605 18.6581 336.812 18.8443C337.021 19.0306 337.207 19.2448 337.452 19.3824C337.891 19.6298 338.485 19.5635 338.86 19.2268C338.997 19.4436 339.018 19.7292 338.911 19.9613C338.982 20.0379 339.079 20.0864 339.181 20.0992C339.337 19.9818 339.304 19.742 339.245 19.5558C339.168 19.3085 339.061 19.0508 338.85 18.9004C338.638 18.75 338.296 18.7577 338.161 18.9796C337.99 19.255 337.544 19.1377 337.332 18.8953C337.118 18.6506 336.998 18.3191 336.728 18.1405C336.406 17.9263 335.975 17.995 335.613 18.1354C335.32 18.2502 335.029 18.4185 334.858 18.6862C334.69 18.9514 334.677 19.3391 334.902 19.5635C334.825 19.5763 334.749 19.4997 334.759 19.4233C334.43 19.7064 334.144 20.0379 333.915 20.4051ZM338.028 22.759C338.105 22.7462 338.187 22.7309 338.26 22.759C338.334 22.787 338.393 22.8712 338.365 22.9427C338.309 22.8712 338.204 22.8431 338.12 22.8789C338.125 22.963 338.222 23.0191 338.309 23.0114C338.393 23.0012 338.467 22.9476 338.536 22.8966C338.546 22.889 338.559 22.8789 338.569 22.8712C338.454 22.884 338.337 22.8023 338.314 22.6901C338.299 22.6238 338.311 22.5549 338.291 22.4913C338.268 22.4301 338.181 22.3816 338.136 22.4301C338.113 22.5448 338.077 22.6545 338.028 22.759ZM334.912 24.8324C334.897 24.5212 334.851 24.1617 334.583 24.0034C334.897 24.4422 334.67 25.0569 334.795 25.5821C334.81 25.651 334.917 25.7225 334.932 25.651C334.899 25.5719 334.899 25.4827 334.93 25.4035C334.968 25.475 335.006 25.5465 335.045 25.6154C335.192 25.5362 335.34 25.4545 335.488 25.3756C335.526 25.3525 335.57 25.3323 335.613 25.3374C335.682 25.3449 335.728 25.4163 335.731 25.4852C335.736 25.5541 335.705 25.6177 335.677 25.6815C335.608 25.8347 335.539 25.9851 335.47 26.138C335.822 26.3217 336.213 26.4288 336.608 26.4493C336.287 26.5664 335.922 26.4798 335.621 26.3166C335.524 26.2631 335.391 26.2044 335.315 26.2835C335.624 26.5003 335.996 26.6225 336.373 26.6328C336.559 26.6379 336.768 26.6023 336.886 26.4568C337.054 26.2503 336.952 25.9469 336.921 25.679C336.865 25.1945 337.08 24.6844 336.921 24.2204C336.776 23.7969 336.299 23.5164 335.858 23.5955C336.098 24.0469 336.164 24.5901 336.039 25.0848C335.84 24.7177 336.08 24.2127 335.853 23.8581C335.524 23.6619 335.144 23.5496 334.759 23.5394C335.083 23.3813 335.501 23.4526 335.756 23.7052C335.807 23.6465 335.738 23.5571 335.672 23.5164C335.266 23.2589 334.682 23.3353 334.356 23.6872C334.82 23.8123 335.101 24.3887 334.912 24.8324ZM335.557 21.1778C335.577 21.4455 335.598 21.716 335.618 21.9863C335.499 21.8434 335.427 21.6599 335.419 21.4737C335.366 21.5451 335.391 21.6446 335.417 21.7286C335.516 22.0322 335.613 22.3356 335.713 22.6391C335.748 22.6773 335.802 22.6187 335.82 22.5702C335.858 22.4631 335.899 22.3535 335.937 22.2464C336.075 21.8664 336.215 21.466 336.146 21.0681C336.128 20.9636 336.093 20.8565 336.019 20.7774C335.945 20.701 335.827 20.6577 335.728 20.6959C335.641 20.7289 335.585 20.8157 335.565 20.9049C335.542 20.9917 335.549 21.086 335.557 21.1778ZM334.624 25.8398C334.57 25.8473 334.496 25.8857 334.519 25.9341C334.634 25.9008 334.746 25.8677 334.861 25.8347C334.879 25.827 334.902 25.8219 334.917 25.8347C334.958 25.8601 334.904 25.9187 334.858 25.9367C334.749 25.9774 334.639 26.0207 334.529 26.0617C334.43 26.0999 334.323 26.1457 334.274 26.2426C334.221 26.3522 334.277 26.4977 334.379 26.5639C334.483 26.6328 334.619 26.6353 334.739 26.6023C334.856 26.5664 334.963 26.4977 335.068 26.4314C335.141 26.3829 335.226 26.3243 335.241 26.2349C335.205 26.2579 335.152 26.2503 335.124 26.2172C335.373 26.0258 335.552 25.7351 335.608 25.424C335.323 25.6408 334.981 25.786 334.624 25.8398ZM337.554 20.6346C337.409 20.6346 337.279 20.7417 337.136 20.7289C337.008 20.7213 336.904 20.6218 336.779 20.6041C336.661 20.5862 336.544 20.6423 336.427 20.6677C336.307 20.6933 336.179 20.6882 336.065 20.6525C336.164 20.7978 336.241 20.961 336.287 21.1319C336.36 20.9662 336.478 20.8055 336.651 20.752C336.825 20.701 337.049 20.8132 337.054 20.9943C337.187 20.8719 337.347 20.7699 337.528 20.7622C337.707 20.7571 337.898 20.877 337.921 21.0553C338.095 20.887 338.421 20.9228 338.556 21.1242C338.594 21.1803 338.656 21.2595 338.714 21.2211C338.809 21.1524 338.949 21.2162 339.005 21.3182C339.059 21.4201 339.054 21.5426 339.046 21.6599C339.125 21.5731 339.24 21.517 339.357 21.5068C339.214 21.438 339.099 21.3207 339.036 21.1752C338.969 21.0299 338.704 21.137 338.602 21.0095C338.492 20.8719 338.304 20.7978 338.128 20.8234C337.926 20.8539 337.758 20.6372 337.554 20.6346ZM335.141 27.0358C334.973 27.0434 334.841 26.8369 334.914 26.6889C334.795 26.6966 334.675 26.7042 334.555 26.7119C334.481 26.717 334.405 26.7196 334.336 26.6914C334.236 26.6481 334.178 26.5385 334.165 26.4314C334.149 26.3243 334.175 26.2172 334.198 26.1101C334.131 26.0794 334.073 26.1662 334.065 26.2375C334.029 26.5206 334.254 26.8113 334.537 26.847C334.723 26.87 334.828 27.097 335.011 27.1352C335.09 27.1531 335.172 27.1326 335.251 27.1454C335.419 27.1684 335.547 27.3316 335.715 27.3393C335.812 27.3419 335.907 27.2933 336.001 27.3163C336.07 27.3316 336.123 27.3826 336.19 27.4055C336.246 27.4259 336.304 27.4259 336.363 27.4259C336.643 27.4259 336.924 27.4234 337.205 27.4234C337.189 27.3035 337.021 27.2881 336.901 27.3061C336.781 27.3265 336.61 27.3035 336.605 27.1836C336.539 27.2755 336.419 27.324 336.307 27.3061C336.197 27.2858 336.1 27.1964 336.07 27.0867C335.96 27.1531 335.838 27.2143 335.71 27.2015C335.583 27.1887 335.46 27.0639 335.496 26.9415C335.373 26.9338 335.264 27.0332 335.141 27.0358ZM339.173 22.9451C339.148 22.9069 339.158 22.8559 339.168 22.81C339.219 22.5677 339.273 22.3281 339.326 22.0857C339.39 22.1698 339.377 22.2897 339.36 22.3968C339.342 22.5167 339.321 22.6391 339.304 22.759C339.495 22.4326 339.502 22.0092 339.324 21.6751C339.296 21.6241 339.214 21.6446 339.171 21.6853C339.038 21.8052 339.023 22.004 339.033 22.18C339.046 22.356 339.071 22.5423 338.997 22.7029C338.969 22.6952 338.939 22.685 338.911 22.6748C338.89 22.9171 338.87 23.1569 338.85 23.3965C338.847 23.4349 338.847 23.4782 338.875 23.4987C338.987 23.3583 339.084 23.2053 339.163 23.0447C339.179 23.0114 339.191 22.9732 339.173 22.9451ZM334.728 21.2697C334.598 21.3589 334.458 21.4634 334.42 21.619C334.394 21.7235 334.422 21.8332 334.458 21.9353C334.463 21.9505 334.471 21.9658 334.483 21.9786C334.534 22.022 334.601 21.9379 334.606 21.869C334.69 21.8715 334.749 21.953 334.828 21.9863C334.958 22.045 335.119 21.9404 335.157 21.8052C335.197 21.6674 335.147 21.517 335.065 21.3997C334.988 21.29 334.838 21.1906 334.728 21.2697ZM337.801 21.4278C337.903 21.2544 337.827 20.9992 337.643 20.9177C337.46 20.8335 337.217 20.9431 337.156 21.1345C337.141 21.1752 337.136 21.2211 337.131 21.2672C337.128 21.2951 337.123 21.3258 337.138 21.3512C337.161 21.3945 337.22 21.4022 337.271 21.4048C337.447 21.4125 337.625 21.4201 337.801 21.4278ZM336.493 21.3333C336.46 21.2926 336.424 21.2518 336.391 21.2111C336.386 21.3156 336.406 21.4201 336.452 21.5144C336.468 21.5451 336.488 21.5782 336.521 21.5859C336.592 21.6038 336.633 21.5016 336.7 21.4686C336.763 21.438 336.845 21.4762 336.914 21.4506C337.006 21.415 337.016 21.29 337.011 21.1906C337.006 21.1191 337.001 21.0453 336.955 20.9892C336.888 20.9075 336.766 20.9024 336.661 20.9228C336.6 20.9356 336.536 20.9559 336.508 21.0095C336.46 21.1089 336.567 21.2492 336.493 21.3333ZM333.813 25.6051C333.838 25.4955 333.91 25.3959 334.009 25.3398C333.999 25.2557 333.892 25.2124 333.815 25.2455C333.739 25.2813 333.698 25.3679 333.695 25.452C333.69 25.5362 333.718 25.6154 333.746 25.6943C333.777 25.7837 333.81 25.8729 333.841 25.962C333.851 25.9928 333.866 26.0284 333.894 26.0437C333.948 26.0666 334.002 26.0182 334.04 25.9748C334.124 25.8729 334.211 25.7683 334.297 25.6664C334.33 25.6228 334.369 25.5744 334.358 25.5183C334.348 25.4496 334.262 25.4163 334.19 25.4317C334.121 25.447 334.065 25.4955 334.009 25.5362C333.953 25.5795 333.884 25.6154 333.813 25.6051ZM334.973 17.3958C334.869 17.3143 334.728 17.2633 334.606 17.3092C334.512 17.3422 334.443 17.429 334.427 17.5259C334.736 17.6074 335.024 17.7706 335.256 17.9925C335.264 17.7631 335.157 17.5336 334.973 17.3958ZM337.095 27.2041C337.151 27.2907 337.284 27.2933 337.37 27.2346C337.457 27.1785 337.506 27.0816 337.549 26.9873C337.444 27.0204 337.347 27.074 337.266 27.1454C337.271 27.0204 337.388 26.9338 337.49 26.8598C337.707 26.6966 337.896 26.4926 338.038 26.2631C337.858 26.2859 337.707 26.4083 337.567 26.5257C337.503 26.5792 337.442 26.6302 337.381 26.6838C337.319 26.7322 337.256 26.7934 337.25 26.87C337.243 26.995 337.187 27.1175 337.095 27.2041ZM333.989 22.3127C334.019 22.2489 334.053 22.1698 334.009 22.1137C333.665 22.4657 333.601 22.9937 333.555 23.4807C333.54 23.6388 333.525 23.802 333.583 23.9473C333.622 23.7357 333.657 23.5215 333.695 23.3099C333.718 23.1671 333.744 23.0268 333.78 22.8866C333.828 22.6876 333.9 22.4964 333.989 22.3127ZM338.49 21.2111C338.436 21.0963 338.281 21.0835 338.156 21.0886C338.12 21.0912 338.082 21.0912 338.049 21.1065C337.934 21.165 337.967 21.3333 337.947 21.4609C338.138 21.4022 338.362 21.4634 338.498 21.6113C338.503 21.5272 338.508 21.4406 338.51 21.3563C338.513 21.3054 338.513 21.2544 338.49 21.2111ZM338.416 22.4785C338.414 22.5372 338.401 22.5984 338.414 22.657C338.424 22.7183 338.464 22.7769 338.523 22.7844C338.518 22.7055 338.513 22.6263 338.505 22.5448C338.549 22.5525 338.577 22.5907 338.597 22.6315C338.615 22.6696 338.63 22.7132 338.666 22.7385C338.704 22.7616 338.765 22.7488 338.77 22.708C338.799 22.4862 338.799 22.2643 338.768 22.0424C338.689 22.0678 338.674 22.1724 338.674 22.2566C338.671 22.3407 338.651 22.4452 338.569 22.4631C338.536 22.3076 338.559 22.1418 338.635 22.004C338.536 21.9914 338.452 22.0832 338.429 22.18C338.406 22.2769 338.421 22.3791 338.416 22.4785ZM337.763 24.8375C337.84 24.6106 337.916 24.3836 337.993 24.154C338.033 24.0341 338.074 23.9117 338.13 23.7969C338.197 23.667 338.278 23.542 338.327 23.4042C338.294 23.3736 338.243 23.4118 338.214 23.4475C337.911 23.8428 337.75 24.3426 337.763 24.8375ZM338.888 21.3717C338.839 21.3258 338.755 21.3207 338.696 21.3538C338.635 21.3894 338.602 21.4609 338.602 21.5298C338.605 21.6215 338.661 21.7032 338.717 21.7771C338.773 21.8536 338.829 21.9277 338.885 22.0015C338.918 21.869 338.941 21.7312 338.946 21.591C338.952 21.5144 338.946 21.4252 338.888 21.3717ZM337.608 18.7959C337.666 18.7729 337.722 18.7449 337.773 18.7118C337.636 18.6276 337.465 18.5996 337.307 18.6327C337.409 18.7372 337.513 18.8418 337.615 18.9463C337.687 19.0178 337.801 19.0254 337.896 18.9898C337.99 18.954 338.064 18.8851 338.138 18.8164C337.998 18.699 337.761 18.8953 337.608 18.7959ZM335.59 26.7373C335.6 26.7068 335.562 26.6786 335.532 26.6812C335.499 26.6838 335.468 26.7017 335.435 26.7068C335.368 26.7221 335.295 26.6737 335.279 26.6074C335.259 26.5231 335.129 26.518 335.07 26.5818C335.011 26.6456 335.009 26.7399 335.009 26.8267C335.197 26.921 335.44 26.8828 335.59 26.7373ZM337.676 23.4782C337.745 23.5266 337.842 23.4323 337.822 23.3506C337.799 23.2717 337.71 23.2282 337.628 23.2207C337.572 23.2156 337.508 23.2181 337.472 23.1772C337.424 23.1185 337.455 23.0012 337.381 22.9809C337.368 23.088 337.335 23.1951 337.284 23.2919C337.363 23.2919 337.444 23.2919 337.518 23.3175C337.592 23.3429 337.661 23.399 337.676 23.4782ZM337.368 26.4032C337.434 26.3497 337.49 26.2554 337.444 26.1865C337.421 26.1534 337.383 26.138 337.345 26.1329C337.184 26.1178 337.077 26.2936 337.011 26.4442C336.988 26.4977 336.965 26.5513 336.942 26.6048C337.067 26.5003 337.192 26.3981 337.317 26.2936C337.324 26.3345 337.342 26.3727 337.368 26.4032ZM336.264 26.9235C336.195 26.9363 336.172 27.0409 336.218 27.097C336.261 27.1531 336.343 27.1684 336.414 27.1582C336.539 27.1429 336.656 27.0614 336.712 26.9491C336.643 26.9235 336.565 26.9287 336.501 26.9643C336.429 27.0052 336.345 26.9056 336.264 26.9235ZM337.233 23.366C337.25 23.2461 337.266 23.1262 337.284 23.0063C337.21 23.0777 337.133 23.1594 337.118 23.2614C337.103 23.3634 337.179 23.4833 337.281 23.4705C337.347 23.4628 337.404 23.5164 337.457 23.5522C337.513 23.5878 337.605 23.5981 337.631 23.5368C337.526 23.4323 337.381 23.3711 337.233 23.366ZM335.269 21.1473C335.162 21.1422 335.052 21.137 334.945 21.1345C335.06 21.2288 335.177 21.3233 335.292 21.4176C335.34 21.2416 335.386 21.063 335.43 20.8821C335.333 20.9331 335.269 21.0376 335.269 21.1473ZM335.606 26.8521C335.58 26.9107 335.608 26.9822 335.662 27.0178C335.713 27.0562 335.779 27.0639 335.843 27.0562C335.955 27.0434 336.06 26.9873 336.131 26.9031C336.105 26.8598 336.044 26.8572 335.996 26.8726C335.947 26.8854 335.896 26.9107 335.848 26.9005C335.802 26.8905 335.769 26.8546 335.725 26.8318C335.685 26.8088 335.621 26.8088 335.606 26.8521ZM333.642 25.1817C333.749 25.1512 333.853 25.1204 333.958 25.0899C333.973 25.0848 333.991 25.0797 334.004 25.0695C334.035 25.0415 334.022 24.9854 333.989 24.9624C333.956 24.9395 333.907 24.9446 333.869 24.9598C333.782 24.9982 333.665 24.9521 333.629 24.8604C333.604 24.9675 333.609 25.0797 333.642 25.1817ZM337.689 22.9988C337.822 22.9681 337.97 23.0216 338.054 23.1287C338.072 23.1543 338.095 23.1874 338.128 23.1848C338.166 23.1848 338.187 23.139 338.194 23.1033C338.133 22.9911 338.005 22.9222 337.878 22.9325C337.789 22.9376 337.824 22.7488 337.738 22.7258C337.722 22.8151 337.704 22.9069 337.689 22.9988ZM338.046 23.2256C337.919 23.1287 337.763 23.0701 337.602 23.0624C337.633 22.9579 337.666 22.8533 337.697 22.7462C337.669 22.7004 337.6 22.7539 337.577 22.8023C337.549 22.861 337.521 22.9222 337.523 22.986C337.528 23.0498 337.577 23.1185 337.641 23.1159C337.761 23.1134 337.875 23.2028 337.903 23.3175C337.949 23.2868 337.998 23.2563 338.046 23.2256ZM337.98 18.6506C338.082 18.6786 338.189 18.7067 338.294 18.6888C338.362 18.676 338.429 18.6429 338.467 18.5843C338.327 18.4669 338.084 18.4974 337.98 18.6506ZM336.761 27.181C336.927 27.2015 337.097 27.0816 337.133 26.9184C337.08 26.9517 337.013 26.9566 336.95 26.9617C336.888 26.9669 336.819 26.9745 336.774 27.0153C336.725 27.0588 336.712 27.1429 336.761 27.181ZM337.993 22.8456C337.929 22.7565 338.026 22.6391 338.023 22.5295C338.023 22.4964 338.011 22.4631 337.982 22.4478C337.888 22.5728 337.865 22.7411 337.919 22.8866C337.944 22.8738 337.967 22.861 337.993 22.8456ZM337.169 25.725C337.141 25.7325 337.113 25.7376 337.085 25.7427C337.09 25.6715 337.075 25.5974 337.041 25.5337C337.029 25.5516 337.026 25.5744 337.024 25.5974C337.021 25.6561 337.024 25.7199 337.049 25.7709C337.075 25.8244 337.131 25.8677 337.192 25.8601C337.25 25.855 337.299 25.786 337.271 25.7325C337.243 25.7097 337.202 25.702 337.166 25.7148M337.059 26.7373C337.184 26.6609 337.309 26.5869 337.437 26.5129C337.279 26.4849 337.11 26.5843 337.059 26.7373ZM333.785 24.7838C333.757 24.7303 333.698 24.6921 333.637 24.6895C333.634 24.7763 333.693 24.8629 333.777 24.8935C333.818 24.8834 333.808 24.8196 333.787 24.7838M337.1 26.0591C337.103 26.0794 337.108 26.0999 337.11 26.1201C337.141 26.0999 337.171 26.0768 337.202 26.0565C337.233 26.003 337.166 25.9418 337.11 25.9187C337.105 25.9646 337.103 26.013 337.1 26.0591Z" fill="#050505"/>
</g>
<path d="M337.477 21.3067C337.526 21.2964 337.577 21.3271 337.594 21.373C337.538 21.3832 337.482 21.3884 337.426 21.3832C337.406 21.35 337.439 21.299 337.477 21.3067Z" fill="#050505"/>
<path d="M334.601 21.5156C334.685 21.6176 334.769 21.7198 334.853 21.8218C334.868 21.842 334.868 21.8727 334.851 21.893C334.772 21.8574 334.69 21.8192 334.634 21.7554C334.575 21.6891 334.552 21.5871 334.601 21.5156Z" fill="#050505"/>
<path d="M334.382 26.3485C334.604 26.3103 334.818 26.2211 335 26.0858C335.027 26.0656 335.074 26.0679 335.099 26.0935C335.007 26.2032 334.913 26.3179 334.783 26.3817C334.655 26.4455 334.487 26.4481 334.382 26.3485Z" fill="#050505"/>
<path d="M336.054 21.4412C336.028 21.617 335.987 21.7879 335.934 21.9562C335.913 22.0123 335.888 22.0761 335.832 22.0991C335.885 21.7956 335.949 21.4947 336.018 21.1963C336.074 21.2626 336.066 21.3569 336.054 21.4412Z" fill="#050505"/>
<path d="M336.738 24.1598C336.638 24.0501 336.503 23.971 336.358 23.9379C336.279 23.92 336.194 23.9149 336.123 23.8792C336.049 23.8434 335.988 23.7696 336.001 23.6904C336.314 23.7135 336.613 23.8715 336.807 24.1164C336.791 24.1393 336.766 24.1546 336.738 24.1598Z" fill="#050505"/>
<path d="M334.997 19.3377C335.023 19.4168 335.061 19.506 335.02 19.58C334.887 19.422 334.821 19.2103 334.842 19.0036C334.862 18.7971 334.969 18.6008 335.13 18.4707C335.183 18.5089 335.142 18.5906 335.104 18.6441C334.964 18.8404 334.923 19.1056 334.997 19.3377Z" fill="#050505"/>
<path d="M334.936 19.7119C334.954 19.7373 334.972 19.7629 334.99 19.7883C334.816 20.0637 334.702 20.375 334.656 20.6988C334.638 20.8289 334.62 20.9768 334.513 21.0557C334.222 21.2676 333.967 21.5327 333.768 21.8312C333.725 21.7776 333.753 21.6985 333.781 21.6347C333.972 21.2089 334.161 20.7829 334.352 20.3545C334.368 20.3927 334.383 20.4285 334.401 20.4667C334.561 20.2041 334.743 19.9515 334.936 19.7119Z" fill="#050505"/>
<path d="M337.471 16.2253C337.568 16.0596 337.667 15.8964 337.764 15.7306C337.741 15.9143 337.716 16.0954 337.693 16.2763C337.887 16.159 338.047 15.9832 338.147 15.7765C338.175 15.955 338.106 16.1464 337.971 16.2637C338.073 16.233 338.17 16.1769 338.249 16.1055C338.213 16.2484 338.111 16.3734 337.978 16.437C338.3 16.3911 338.664 16.358 338.922 16.562C338.55 16.5136 338.167 16.5391 337.805 16.636C337.917 16.7277 337.976 16.8782 337.955 17.0211C337.746 16.6896 337.379 16.4651 336.989 16.4321C337.093 16.5264 337.155 16.6665 337.157 16.8069C336.532 16.1003 335.767 15.519 334.921 15.1083C334.964 15.0345 335.074 15.0573 335.153 15.0932C335.571 15.2843 335.964 15.5267 336.321 15.8174C336.321 15.7485 336.321 15.6822 336.321 15.6133C336.413 15.7357 336.504 15.8556 336.596 15.9755C336.622 15.8836 336.624 15.7867 336.604 15.6924C336.691 15.7739 336.739 15.8913 336.739 16.0112C336.838 15.9653 336.813 15.8174 336.767 15.7178C336.721 15.6184 336.678 15.4808 336.767 15.4144C336.856 15.6389 336.948 15.8633 337.04 16.0877C337.093 15.7995 337.098 15.5036 337.058 15.2129C337.239 15.4934 337.323 15.8326 337.295 16.1641C337.374 16.0621 337.433 15.9448 337.466 15.8198C337.468 15.955 337.468 16.0903 337.471 16.2253Z" fill="#050505"/>
<mask id="mask1_1470_17411" style="mask-type:luminance" maskUnits="userSpaceOnUse" x="329" y="17" width="5" height="6">
<path d="M329.959 17.9365H333.764V22.9763H329.959V17.9365Z" fill="white"/>
</mask>
<g mask="url(#mask1_1470_17411)">
<path d="M332.339 19.9292C332.311 20.0822 332.254 20.2275 332.176 20.3601C332.339 20.128 332.527 19.9138 332.734 19.7199C332.706 19.8067 332.675 19.8934 332.645 19.9827C332.742 19.8857 332.839 19.7888 332.935 19.692C332.925 19.7583 332.918 19.827 332.91 19.8959C333.04 19.794 333.17 19.692 333.3 19.59C333.3 19.6512 333.298 19.7125 333.298 19.7735C333.43 19.6461 333.588 19.5491 333.762 19.488C333.512 19.7991 333.262 20.1101 333.015 20.4188C333.053 20.2582 333.106 20.1026 333.175 19.952C332.839 20.2938 332.568 20.6993 332.38 21.1431C332.42 20.8625 332.502 20.5897 332.617 20.332C332.265 20.8064 332.099 21.3903 331.941 21.9591C331.941 21.6608 331.979 21.3624 332.058 21.0742C331.834 21.5154 331.681 21.9898 331.607 22.4794C331.556 22.3339 331.533 22.1758 331.546 22.0229C331.505 22.2957 331.466 22.566 331.428 22.8389C331.4 22.617 331.372 22.3952 331.347 22.1733C331.301 22.4284 331.275 22.691 331.273 22.9511C331.194 22.8058 331.158 22.6401 331.168 22.4743C331.153 22.5967 331.112 22.7166 331.048 22.8263C331.061 22.5253 331.028 22.2217 330.951 21.9311C330.931 22.2117 330.913 22.4897 330.893 22.7702C330.801 22.4387 330.758 22.0969 330.76 21.7551C330.714 22.028 330.671 22.3034 330.627 22.5788C330.589 22.2804 330.582 21.977 330.605 21.6786C330.564 21.8776 330.525 22.0764 330.487 22.2778C330.401 21.8876 330.352 21.4925 330.342 21.0947C330.286 21.2833 330.255 21.4823 330.253 21.6786C330.204 21.6734 330.184 21.6173 330.176 21.5689C330.077 21.0155 330.097 20.4391 330.235 19.8908C330.123 20.0898 330.031 20.2964 329.959 20.5105C329.98 19.8806 330.181 19.2585 330.533 18.733C330.482 18.7561 330.431 18.7789 330.38 18.8019C330.508 18.5622 330.658 18.3377 330.829 18.1261C330.918 18.019 331.084 17.9093 331.178 18.0139C331.097 18.1005 331.013 18.1848 330.923 18.2663C331.043 18.1566 331.214 18.1031 331.375 18.1261C331.181 18.2078 331.01 18.3454 330.89 18.5188C331.01 18.4118 331.168 18.3454 331.329 18.3352C331.161 18.4271 331.018 18.5724 330.928 18.7433C331.074 18.6106 331.262 18.5291 331.456 18.5086C331.235 18.659 330.995 18.8325 330.921 19.0902C331.092 18.8834 331.334 18.7356 331.597 18.6795C331.462 18.7866 331.331 18.8988 331.209 19.0213C331.354 18.9728 331.5 18.9244 331.645 18.8783C331.413 19.0264 331.222 19.2329 331.089 19.4727C331.308 19.2788 331.54 19.1004 331.783 18.937C331.701 19.0392 331.617 19.1411 331.535 19.2457C331.686 19.1155 331.898 19.062 332.091 19.1028C331.816 19.1896 331.576 19.391 331.441 19.6487C331.642 19.4752 331.877 19.3451 332.13 19.2685C331.982 19.3858 331.854 19.5288 331.755 19.692C331.946 19.5211 332.178 19.3961 332.425 19.3297C332.181 19.5416 331.933 19.7532 331.688 19.9648C331.941 19.8449 332.196 19.725 332.451 19.6026C331.994 20.0873 331.515 20.6151 331.413 21.273C331.673 20.7936 331.982 20.3422 332.339 19.9292Z" fill="#050505"/>
</g>
</g>
</g>
</g>
<defs>
<filter id="filter0_d_1470_17411" x="318.047" y="8.18277" width="33.9007" height="33.0735" filterUnits="userSpaceOnUse" color-interpolation-filters="sRGB">
<feFlood flood-opacity="0" result="BackgroundImageFix"/>
<feColorMatrix in="SourceAlpha" type="matrix" values="0 0 0 0 0 0 0 0 0 0 0 0 0 0 0 0 0 0 127 0" result="hardAlpha"/>
<feOffset dy="2.72585"/>
<feGaussianBlur stdDeviation="2.27154"/>
<feColorMatrix type="matrix" values="0 0 0 0 0.18 0 0 0 0 0.18 0 0 0 0 0.26 0 0 0 0.08 0"/>
<feBlend mode="normal" in2="BackgroundImageFix" result="effect1_dropShadow_1470_17411"/>
<feBlend mode="normal" in="SourceGraphic" in2="effect1_dropShadow_1470_17411" result="shape"/>
</filter>
<linearGradient id="paint0_linear_1470_17411" x1="66.5" y1="9" x2="66.5" y2="35" gradientUnits="userSpaceOnUse">
<stop stop-color="#AFAFB4" stop-opacity="0"/>
<stop offset="0.5" stop-color="#AFAFB4"/>
<stop offset="1" stop-color="#AFAFB4" stop-opacity="0"/>
</linearGradient>
<linearGradient id="paint1_linear_1470_17411" x1="74.5" y1="9" x2="74.5" y2="35" gradientUnits="userSpaceOnUse">
<stop stop-color="#AFAFB4" stop-opacity="0"/>
<stop offset="0.5" stop-color="#AFAFB4"/>
<stop offset="1" stop-color="#AFAFB4" stop-opacity="0"/>
</linearGradient>
<linearGradient id="paint2_linear_1470_17411" x1="82.5" y1="9" x2="82.5" y2="35" gradientUnits="userSpaceOnUse">
<stop stop-color="#AFAFB4" stop-opacity="0"/>
<stop offset="0.5" stop-color="#AFAFB4"/>
<stop offset="1" stop-color="#AFAFB4" stop-opacity="0"/>
</linearGradient>
<linearGradient id="paint3_linear_1470_17411" x1="90.5" y1="9" x2="90.5" y2="35" gradientUnits="userSpaceOnUse">
<stop stop-color="#AFAFB4" stop-opacity="0"/>
<stop offset="0.5" stop-color="#AFAFB4"/>
<stop offset="1" stop-color="#AFAFB4" stop-opacity="0"/>
</linearGradient>
<linearGradient id="paint4_linear_1470_17411" x1="98.5" y1="9" x2="98.5" y2="35" gradientUnits="userSpaceOnUse">
<stop stop-color="#AFAFB4" stop-opacity="0"/>
<stop offset="0.5" stop-color="#AFAFB4"/>
<stop offset="1" stop-color="#AFAFB4" stop-opacity="0"/>
</linearGradient>
<linearGradient id="paint5_linear_1470_17411" x1="106.5" y1="9" x2="106.5" y2="35" gradientUnits="userSpaceOnUse">
<stop stop-color="#AFAFB4" stop-opacity="0"/>
<stop offset="0.5" stop-color="#AFAFB4"/>
<stop offset="1" stop-color="#AFAFB4" stop-opacity="0"/>
</linearGradient>
<linearGradient id="paint6_linear_1470_17411" x1="114.5" y1="2" x2="114.5" y2="42" gradientUnits="userSpaceOnUse">
<stop offset="0.1" stop-color="#AFAFB4" stop-opacity="0"/>
<stop offset="0.5" stop-color="#AFAFB4"/>
<stop offset="0.9" stop-color="#AFAFB4" stop-opacity="0"/>
</linearGradient>
<linearGradient id="paint7_linear_1470_17411" x1="122.5" y1="9" x2="122.5" y2="35" gradientUnits="userSpaceOnUse">
<stop stop-color="#AFAFB4" stop-opacity="0"/>
<stop offset="0.5" stop-color="#AFAFB4"/>
<stop offset="1" stop-color="#AFAFB4" stop-opacity="0"/>
</linearGradient>
<linearGradient id="paint8_linear_1470_17411" x1="130.5" y1="9" x2="130.5" y2="35" gradientUnits="userSpaceOnUse">
<stop stop-color="#AFAFB4" stop-opacity="0"/>
<stop offset="0.5" stop-color="#AFAFB4"/>
<stop offset="1" stop-color="#AFAFB4" stop-opacity="0"/>
</linearGradient>
<linearGradient id="paint9_linear_1470_17411" x1="138.5" y1="9" x2="138.5" y2="35" gradientUnits="userSpaceOnUse">
<stop stop-color="#AFAFB4" stop-opacity="0"/>
<stop offset="0.5" stop-color="#AFAFB4"/>
<stop offset="1" stop-color="#AFAFB4" stop-opacity="0"/>
</linearGradient>
<linearGradient id="paint10_linear_1470_17411" x1="146.5" y1="9" x2="146.5" y2="35" gradientUnits="userSpaceOnUse">
<stop stop-color="#AFAFB4" stop-opacity="0"/>
<stop offset="0.5" stop-color="#AFAFB4"/>
<stop offset="1" stop-color="#AFAFB4" stop-opacity="0"/>
</linearGradient>
<linearGradient id="paint11_linear_1470_17411" x1="154.5" y1="9" x2="154.5" y2="35" gradientUnits="userSpaceOnUse">
<stop stop-color="#AFAFB4" stop-opacity="0"/>
<stop offset="0.5" stop-color="#AFAFB4"/>
<stop offset="1" stop-color="#AFAFB4" stop-opacity="0"/>
</linearGradient>
<linearGradient id="paint12_linear_1470_17411" x1="162.5" y1="9" x2="162.5" y2="35" gradientUnits="userSpaceOnUse">
<stop stop-color="#AFAFB4" stop-opacity="0"/>
<stop offset="0.5" stop-color="#AFAFB4"/>
<stop offset="1" stop-color="#AFAFB4" stop-opacity="0"/>
</linearGradient>
<linearGradient id="paint13_linear_1470_17411" x1="170.5" y1="2" x2="170.5" y2="42" gradientUnits="userSpaceOnUse">
<stop offset="0.1" stop-color="#AFAFB4" stop-opacity="0"/>
<stop offset="0.5" stop-color="#AFAFB4"/>
<stop offset="0.9" stop-color="#AFAFB4" stop-opacity="0"/>
</linearGradient>
<linearGradient id="paint14_linear_1470_17411" x1="178.5" y1="9" x2="178.5" y2="35" gradientUnits="userSpaceOnUse">
<stop stop-color="#AFAFB4" stop-opacity="0"/>
<stop offset="0.5" stop-color="#AFAFB4"/>
<stop offset="1" stop-color="#AFAFB4" stop-opacity="0"/>
</linearGradient>
<linearGradient id="paint15_linear_1470_17411" x1="186.5" y1="9" x2="186.5" y2="35" gradientUnits="userSpaceOnUse">
<stop stop-color="#AFAFB4" stop-opacity="0"/>
<stop offset="0.5" stop-color="#AFAFB4"/>
<stop offset="1" stop-color="#AFAFB4" stop-opacity="0"/>
</linearGradient>
<linearGradient id="paint16_linear_1470_17411" x1="194.5" y1="9" x2="194.5" y2="35" gradientUnits="userSpaceOnUse">
<stop stop-color="#AFAFB4" stop-opacity="0"/>
<stop offset="0.5" stop-color="#AFAFB4"/>
<stop offset="1" stop-color="#AFAFB4" stop-opacity="0"/>
</linearGradient>
<linearGradient id="paint17_linear_1470_17411" x1="202.5" y1="9" x2="202.5" y2="35" gradientUnits="userSpaceOnUse">
<stop stop-color="#AFAFB4" stop-opacity="0"/>
<stop offset="0.5" stop-color="#AFAFB4"/>
<stop offset="1" stop-color="#AFAFB4" stop-opacity="0"/>
</linearGradient>
<linearGradient id="paint18_linear_1470_17411" x1="210.5" y1="9" x2="210.5" y2="35" gradientUnits="userSpaceOnUse">
<stop stop-color="#AFAFB4" stop-opacity="0"/>
<stop offset="0.5" stop-color="#AFAFB4"/>
<stop offset="1" stop-color="#AFAFB4" stop-opacity="0"/>
</linearGradient>
<linearGradient id="paint19_linear_1470_17411" x1="218.5" y1="9" x2="218.5" y2="35" gradientUnits="userSpaceOnUse">
<stop stop-color="#AFAFB4" stop-opacity="0"/>
<stop offset="0.5" stop-color="#AFAFB4"/>
<stop offset="1" stop-color="#AFAFB4" stop-opacity="0"/>
</linearGradient>
<linearGradient id="paint20_linear_1470_17411" x1="226.5" y1="2" x2="226.5" y2="42" gradientUnits="userSpaceOnUse">
<stop offset="0.1" stop-color="#AFAFB4" stop-opacity="0"/>
<stop offset="0.5" stop-color="#AFAFB4"/>
<stop offset="0.9" stop-color="#AFAFB4" stop-opacity="0"/>
</linearGradient>
<linearGradient id="paint21_linear_1470_17411" x1="234.5" y1="9" x2="234.5" y2="35" gradientUnits="userSpaceOnUse">
<stop stop-color="#AFAFB4" stop-opacity="0"/>
<stop offset="0.5" stop-color="#AFAFB4"/>
<stop offset="1" stop-color="#AFAFB4" stop-opacity="0"/>
</linearGradient>
<linearGradient id="paint22_linear_1470_17411" x1="242.5" y1="9" x2="242.5" y2="35" gradientUnits="userSpaceOnUse">
<stop stop-color="#AFAFB4" stop-opacity="0"/>
<stop offset="0.5" stop-color="#AFAFB4"/>
<stop offset="1" stop-color="#AFAFB4" stop-opacity="0"/>
</linearGradient>
<linearGradient id="paint23_linear_1470_17411" x1="250.5" y1="9" x2="250.5" y2="35" gradientUnits="userSpaceOnUse">
<stop stop-color="#AFAFB4" stop-opacity="0"/>
<stop offset="0.5" stop-color="#AFAFB4"/>
<stop offset="1" stop-color="#AFAFB4" stop-opacity="0"/>
</linearGradient>
<linearGradient id="paint24_linear_1470_17411" x1="258.5" y1="9" x2="258.5" y2="35" gradientUnits="userSpaceOnUse">
<stop stop-color="#AFAFB4" stop-opacity="0"/>
<stop offset="0.5" stop-color="#AFAFB4"/>
<stop offset="1" stop-color="#AFAFB4" stop-opacity="0"/>
</linearGradient>
<linearGradient id="paint25_linear_1470_17411" x1="266.5" y1="9" x2="266.5" y2="35" gradientUnits="userSpaceOnUse">
<stop stop-color="#AFAFB4" stop-opacity="0"/>
<stop offset="0.5" stop-color="#AFAFB4"/>
<stop offset="1" stop-color="#AFAFB4" stop-opacity="0"/>
</linearGradient>
<linearGradient id="paint26_linear_1470_17411" x1="274.5" y1="9" x2="274.5" y2="35" gradientUnits="userSpaceOnUse">
<stop stop-color="#AFAFB4" stop-opacity="0"/>
<stop offset="0.5" stop-color="#AFAFB4"/>
<stop offset="1" stop-color="#AFAFB4" stop-opacity="0"/>
</linearGradient>
<linearGradient id="paint27_linear_1470_17411" x1="282.5" y1="2" x2="282.5" y2="42" gradientUnits="userSpaceOnUse">
<stop offset="0.1" stop-color="#AFAFB4" stop-opacity="0"/>
<stop offset="0.5" stop-color="#AFAFB4"/>
<stop offset="0.9" stop-color="#AFAFB4" stop-opacity="0"/>
</linearGradient>
<linearGradient id="paint28_linear_1470_17411" x1="290.5" y1="9" x2="290.5" y2="35" gradientUnits="userSpaceOnUse">
<stop stop-color="#AFAFB4" stop-opacity="0"/>
<stop offset="0.5" stop-color="#AFAFB4"/>
<stop offset="1" stop-color="#AFAFB4" stop-opacity="0"/>
</linearGradient>
<linearGradient id="paint29_linear_1470_17411" x1="298.5" y1="9" x2="298.5" y2="35" gradientUnits="userSpaceOnUse">
<stop stop-color="#AFAFB4" stop-opacity="0"/>
<stop offset="0.5" stop-color="#AFAFB4"/>
<stop offset="1" stop-color="#AFAFB4" stop-opacity="0"/>
</linearGradient>
<linearGradient id="paint30_linear_1470_17411" x1="306.5" y1="9" x2="306.5" y2="35" gradientUnits="userSpaceOnUse">
<stop stop-color="#AFAFB4" stop-opacity="0"/>
<stop offset="0.5" stop-color="#AFAFB4"/>
<stop offset="1" stop-color="#AFAFB4" stop-opacity="0"/>
</linearGradient>
<linearGradient id="paint31_linear_1470_17411" x1="314.5" y1="9" x2="314.5" y2="35" gradientUnits="userSpaceOnUse">
<stop stop-color="#AFAFB4" stop-opacity="0"/>
<stop offset="0.5" stop-color="#AFAFB4"/>
<stop offset="1" stop-color="#AFAFB4" stop-opacity="0"/>
</linearGradient>
<linearGradient id="paint32_linear_1470_17411" x1="322.5" y1="9" x2="322.5" y2="35" gradientUnits="userSpaceOnUse">
<stop stop-color="#AFAFB4" stop-opacity="0"/>
<stop offset="0.5" stop-color="#AFAFB4"/>
<stop offset="1" stop-color="#AFAFB4" stop-opacity="0"/>
</linearGradient>
<linearGradient id="paint33_linear_1470_17411" x1="330.5" y1="9" x2="330.5" y2="35" gradientUnits="userSpaceOnUse">
<stop stop-color="#AFAFB4" stop-opacity="0"/>
<stop offset="0.5" stop-color="#AFAFB4"/>
<stop offset="1" stop-color="#AFAFB4" stop-opacity="0"/>
</linearGradient>
<linearGradient id="paint34_linear_1470_17411" x1="12" y1="22" x2="384.5" y2="22" gradientUnits="userSpaceOnUse">
<stop stop-color="#FCFBF7"/>
<stop offset="0.782692" stop-color="#6B7D7F"/>
<stop offset="1" stop-color="#FCFBF7"/>
</linearGradient>
<linearGradient id="paint35_linear_1470_17411" x1="334.997" y1="10" x2="334.997" y2="33.9875" gradientUnits="userSpaceOnUse">
<stop stop-color="#C9C9CC"/>
<stop offset="0.9" stop-color="#EEEEEF"/>
</linearGradient>
<clipPath id="clip0_1470_17411">
<rect width="14.5379" height="14.5379" fill="white" transform="translate(327.729 14.7246)"/>
</clipPath>
<clipPath id="clip1_1470_17411">
<rect width="11.812" height="14.1744" fill="white" transform="translate(329.091 14.9062)"/>
</clipPath>
</defs>
</svg>
