<svg width="445" height="138" viewBox="0 0 445 138" fill="none" xmlns="http://www.w3.org/2000/svg">
<mask id="mask0_122_1030" style="mask-type:luminance" maskUnits="userSpaceOnUse" x="34" y="5" width="80" height="127">
<path d="M34.6431 5.96045H114V131.671H34.6431V5.96045Z" fill="white"/>
</mask>
<g mask="url(#mask0_122_1030)">
<path d="M59.3767 54.9073C60.536 51.9767 61.9671 49.1602 63.6489 46.5242C56.0375 54.4531 53.0842 65.6527 50.813 76.4227C50.9025 67.6292 53.1526 58.8831 57.288 51.1367C56.1515 52.2275 55.0151 53.2938 53.8786 54.3847C55.7429 50.7052 58.3104 47.4099 61.4216 44.7073C56.8548 45.2755 52.3581 46.4102 48.0631 48.1149C50.3132 46.3874 52.5615 44.6845 54.8344 42.9798C52.5159 43.1394 50.1536 42.843 47.9491 42.0714C48.9031 41.7539 49.8362 41.412 50.7674 41.0945C48.7453 41.0033 46.7232 40.6631 44.7923 40.0721C45.5639 39.7774 46.3374 39.4582 47.109 39.1636C44.9063 39.004 42.7018 38.5498 40.6113 37.8009C42.0196 37.5273 43.4506 37.4361 44.8835 37.4817C42.5422 36.7785 40.2026 36.0506 37.8631 35.3474C38.7488 35.0966 39.6344 34.8247 40.5201 34.574C38.6804 34.5968 36.8634 33.6655 35.8182 32.1432C36.5442 32.2116 37.2721 32.2572 37.9771 32.3256C36.6126 30.7121 36.2496 28.3042 37.0897 26.3505C36.3636 27.0309 35.6586 27.736 34.9553 28.4182C35.7726 26.3049 36.8406 24.26 38.1577 22.3975C37.3861 22.8289 36.6126 23.2603 35.8638 23.6917C37.6807 19.2161 40.0658 14.8772 43.5874 11.5591C47.0862 8.21989 51.8127 5.97154 56.6514 6.19778C49.3591 7.72006 42.8614 12.6499 39.431 19.2617C40.7709 18.3076 42.088 17.3536 43.4296 16.3995C42.088 18.3988 40.7709 20.3981 39.431 22.3747C40.1114 22.4431 40.7709 22.4869 41.4303 22.5325C38.1805 23.8741 37.4317 28.5988 39.4082 31.5294C41.3619 34.4372 45.1097 35.6648 48.6313 35.756C47.2914 36.0506 45.9498 36.347 44.6099 36.6417C45.8831 37.5045 47.4721 37.8676 48.9943 37.6413C48.7453 38.0728 48.5173 38.527 48.2683 38.9584C48.9031 39.5494 49.9028 38.9812 50.7674 38.8672C51.6303 38.755 52.4247 40.2089 51.5391 40.2545C53.947 40.0721 56.355 39.9125 58.7647 39.7318C57.6282 40.3895 56.5146 41.0489 55.3781 41.7083C58.6051 41.0261 61.8075 40.3439 65.0344 39.6634C61.6952 41.2085 58.3771 42.7536 55.0379 44.2969C58.014 43.8655 60.9902 43.4113 63.9436 42.9798C64.6486 42.8886 65.4887 42.6624 65.6482 41.9802C66.3287 39.0952 68.2368 36.5049 70.7816 34.9826C65.3063 35.2562 59.8538 36.5277 54.8116 38.7094C58.7419 35.6876 63.6261 33.8917 68.6016 33.6427C64.3978 33.2113 60.2185 32.7798 56.0375 32.3712C59.3767 31.6662 62.8527 31.6206 66.2165 32.166C61.3304 30.3035 56.0603 29.4617 50.8358 29.7581C52.7895 28.8268 54.9923 28.3954 57.1512 28.5532C54.6064 28.0534 52.0845 27.5536 49.5398 27.0765C50.6534 26.4189 52.0617 26.3277 53.221 26.8275C53.4472 23.2831 56.355 20.1018 59.8538 19.5563C57.9228 19.4441 55.9919 19.3073 54.0382 19.1933C59.1961 16.5802 65.5115 19.1933 70.0327 22.7833C74.5539 26.3505 78.4386 30.984 83.7771 33.1885C84.0507 28.9847 83.3685 24.737 81.8234 20.8524C84.5505 24.5774 85.8448 29.3266 85.4134 33.9145C87.3443 31.8924 88.5719 29.2126 88.8438 26.4189C89.661 29.2582 88.821 32.529 86.7533 34.6424C88.1387 36.5961 91.3429 36.3014 93.0914 34.6424C94.8417 33.0061 95.4783 30.5297 95.9781 28.1902C96.0009 29.6897 96.022 31.1892 96.0448 32.7114C97.1356 30.2807 98.2265 27.8728 99.3173 25.442C99.4313 28.804 98.0897 32.1888 95.7046 34.574C97.4092 34.2565 99.1121 33.9601 100.84 33.6427C102.702 33.3253 104.907 33.0973 106.224 34.46C107.632 35.9366 107.132 38.3235 106.701 40.3229C106.269 42.3432 106.292 44.9335 108.132 45.842C113.358 39.481 113.539 29.4845 108.54 22.9429C111.948 25.6911 113.879 30.1211 113.858 34.5284C113.858 38.9128 111.971 43.2306 108.995 46.4558C107.746 47.7957 109.359 50.3177 108.132 51.6821C107.041 52.8852 107.723 54.8389 108.677 56.1349C109.609 57.452 110.859 58.7919 110.768 60.4282C110.449 66.2437 111.448 72.1505 113.653 77.5802C113.016 77.0348 112.381 76.5139 111.722 75.9685C112.108 77.8766 112.493 79.7847 112.879 81.6928C112.244 80.6703 111.585 79.6479 110.948 78.6026C111.745 81.0334 111.608 83.7833 110.54 86.1001C110.608 84.3287 110.471 82.5557 110.131 80.8071C109.949 84.0779 109.132 87.3277 107.723 90.2811C108.086 88.2134 108.177 86.1001 108.041 83.9867C107.586 87.1909 106.383 90.2811 104.587 92.9836C105.201 90.8721 105.61 88.6904 105.861 86.5087C104.724 89.9619 102.862 93.2116 100.454 95.9142C101.657 93.5747 102.565 91.0755 103.134 88.508C101.771 91.507 99.7488 94.2113 97.2496 96.3912C98.4773 94.1885 99.7032 92.0068 100.931 89.8268C99.5436 91.1895 98.1581 92.575 96.7726 93.9605C99.0893 90.4617 100.997 86.6911 102.453 82.7381C101.225 84.2603 100.021 85.7826 98.7947 87.3049C100.498 84.1919 101.702 80.8071 102.339 77.3083C97.1128 86.3508 94.0455 96.642 93.5018 107.07C94.5909 106.593 95.6818 106.139 96.7726 105.662C98.1809 109.183 91.7971 112.363 93.2738 115.862C94.7961 119.497 92.4793 123.656 89.526 126.267C84.9819 130.22 78.7104 132.105 72.7581 131.311C66.8057 130.516 61.241 127.04 57.9228 122.019C58.3543 122.314 57.8772 123.087 57.3546 123.019C56.8109 122.973 56.469 122.473 56.1743 122.042C55.0607 120.36 53.947 118.657 52.8579 116.975C53.0614 118.135 53.2666 119.292 53.4928 120.474C50.6078 117.793 48.8593 113.954 48.7225 110.046C49.7222 112.114 50.699 114.182 51.6987 116.248C51.3795 114.816 51.3584 113.34 51.6075 111.909C52.2897 114.294 53.584 116.521 55.2887 118.315C53.8558 115.293 52.993 112 52.7667 108.661C54.7432 113.771 56.7881 118.975 60.3308 123.133C63.8752 127.312 69.2593 130.334 74.689 129.608C69.7153 128.38 64.3294 126.904 61.2182 122.837C68.6244 127.198 77.8247 128.403 86.1166 126.109C81.0517 126.29 75.8938 126.132 71.1008 124.541C66.2831 122.928 61.8303 119.724 59.7187 115.113C66.1937 121.223 75.1678 124.61 84.0735 124.268C86.5498 124.176 89.184 123.745 91.0027 122.065C92.8196 120.383 93.3194 117.112 91.4569 115.499C91.6375 116.884 90.6379 118.224 89.3664 118.838C88.1159 119.452 86.6621 119.52 85.2538 119.497C80.2327 119.429 75.2344 118.589 70.4641 116.998C67.3056 115.953 64.1716 114.545 61.8531 112.159C60.0589 110.295 58.8313 107.933 57.9 105.502C54.7432 97.3015 54.6976 88.2818 54.6976 79.4901C53.7436 87.1909 52.8123 94.8918 51.8583 102.594C51.29 97.2559 51.2216 91.8717 51.6759 86.5315C50.7446 88.5764 49.8134 90.5985 48.8821 92.6434C50.1536 83.6693 53.8348 75.0372 59.4451 67.9028C62.2634 64.3356 65.5798 61.1104 69.5101 58.8375C77.8703 54.0216 88.3667 53.9532 97.5899 56.8154C102.111 58.2237 106.61 60.4738 109.405 64.3128C110.086 60.7456 108.54 56.9978 106.019 54.3847C103.497 51.7715 100.135 50.137 96.6814 49.0006C92.2742 47.5239 87.6161 46.7522 82.9598 46.7066C81.0517 46.7066 79.1208 46.7961 77.3021 46.2068C75.508 45.6386 73.8489 44.1391 73.7121 42.2538C73.5315 39.7774 76.1446 37.7781 78.621 37.8237C81.1201 37.8465 83.3457 39.3442 85.1854 41.0033C87.0496 42.6624 88.707 44.5705 90.8887 45.7964C94.7961 48.0009 100.089 47.4099 103.43 44.4109C104.656 46.3418 104.838 48.8866 103.884 50.9543C104.519 51.6365 105.384 52.0679 106.292 52.1819C107.678 51.1367 107.383 49.0006 106.86 47.3415C106.178 45.1387 105.224 42.843 103.339 41.5031C101.453 40.1633 98.4089 40.2317 97.204 42.2082C95.6818 44.6617 91.7059 43.6165 89.8206 41.4576C87.9125 39.2776 86.8444 36.3242 84.4365 34.7336C81.5743 32.8254 77.7336 33.4375 74.5084 34.688C71.8952 35.7104 69.3049 37.2099 67.7826 39.595C66.2831 41.9574 66.1709 45.4106 68.1702 47.4099C67.488 47.5239 66.8057 46.8417 66.8969 46.1612C63.9664 48.6831 61.4216 51.6365 59.3767 54.9073ZM96.022 75.8773C96.7042 75.7633 97.432 75.6265 98.0897 75.8773C98.7491 76.1263 99.2717 76.8769 99.021 77.5135C98.5211 76.8769 97.5899 76.6261 96.841 76.9453C96.8866 77.6942 97.7495 78.194 98.5211 78.1256C99.2717 78.0344 99.9312 77.5574 100.543 77.1032C100.634 77.0348 100.748 76.9453 100.84 76.8769C99.8172 76.9909 98.7719 76.2631 98.5667 75.2634C98.4317 74.6724 98.5439 74.0586 98.3633 73.4921C98.1581 72.9467 97.3864 72.5153 96.9778 72.9467C96.7726 73.9691 96.4552 74.946 96.022 75.8773ZM68.2596 94.3481C68.1246 91.5754 67.716 88.373 65.3291 86.9629C68.1246 90.8721 66.1025 96.3474 67.2161 101.026C67.3512 101.64 68.3052 102.277 68.442 101.64C68.1474 100.935 68.1474 100.141 68.4192 99.4358C68.7595 100.072 69.1014 100.709 69.4417 101.323C70.7588 100.618 72.0776 99.89 73.3947 99.1868C73.7349 98.9816 74.1225 98.8009 74.5084 98.8465C75.1222 98.9132 75.5308 99.5498 75.5536 100.164C75.5992 100.777 75.3256 101.344 75.0766 101.912C74.4628 103.277 73.8489 104.616 73.2351 105.979C76.3709 107.615 79.8469 108.57 83.3685 108.752C80.5063 109.795 77.2565 109.024 74.5767 107.57C73.7121 107.093 72.5318 106.57 71.8496 107.275C74.5995 109.206 77.9159 110.295 81.2779 110.386C82.937 110.432 84.7995 110.115 85.8448 108.819C87.3443 106.979 86.4358 104.276 86.1622 101.889C85.6624 97.5733 87.5723 93.0292 86.1622 88.8956C84.8679 85.1232 80.6203 82.6241 76.6883 83.3291C78.8244 87.3505 79.4154 92.1892 78.3018 96.5964C76.5305 93.3256 78.6648 88.8272 76.6445 85.6686C73.7121 83.9201 70.3273 82.9204 66.8969 82.8293C69.7819 81.421 73.5087 82.0558 75.7798 84.3059C76.2341 83.7833 75.622 82.9871 75.031 82.6241C71.4182 80.3301 66.2165 81.0106 63.3069 84.1463C67.4424 85.26 69.9415 90.3951 68.2596 94.3481ZM74.0085 61.7909C74.1892 64.176 74.3716 66.5857 74.5539 68.9937C73.4859 67.7204 72.8493 66.0859 72.7809 64.4268C72.3038 65.0634 72.5318 65.9491 72.7581 66.698C73.6455 69.4023 74.5084 72.1049 75.394 74.8092C75.7114 75.1494 76.1885 74.6268 76.3481 74.1954C76.6883 73.2413 77.0531 72.2645 77.3933 71.3104C78.621 67.9256 79.8697 64.3584 79.2558 60.814C79.098 59.8828 78.7788 58.9287 78.1211 58.2237C77.4617 57.5432 76.4165 57.1574 75.5308 57.4976C74.7574 57.7923 74.2576 58.5657 74.0769 59.3601C73.8717 60.1336 73.9401 60.9736 74.0085 61.7909ZM65.6938 103.322C65.2168 103.389 64.5574 103.731 64.7626 104.162C65.7833 103.866 66.7829 103.571 67.8054 103.277C67.965 103.208 68.1702 103.163 68.3052 103.277C68.67 103.503 68.193 104.025 67.7826 104.185C66.8057 104.548 65.8289 104.934 64.852 105.299C63.9664 105.639 63.0123 106.048 62.5809 106.91C62.1039 107.887 62.6037 109.183 63.5121 109.773C64.4434 110.386 65.6482 110.409 66.7163 110.115C67.7598 109.795 68.7156 109.183 69.6469 108.592C70.3045 108.161 71.0552 107.638 71.192 106.842C70.8728 107.047 70.3957 106.979 70.1467 106.684C72.3722 104.98 73.9629 102.389 74.4628 99.6182C71.918 101.549 68.8735 102.843 65.6938 103.322ZM91.7971 56.9522C90.5028 56.9522 89.3436 57.9063 88.0721 57.7923C86.9356 57.7239 86.0044 56.8382 84.8907 56.6804C83.8455 56.5208 82.8002 57.0206 81.755 57.2468C80.6869 57.4748 79.5522 57.4292 78.5298 57.1118C79.4154 58.4061 80.0977 59.86 80.5063 61.3823C81.164 59.9056 82.2092 58.4745 83.7543 57.9975C85.2994 57.5432 87.2987 58.5429 87.3443 60.1564C88.5263 59.0655 89.9574 58.1571 91.5691 58.0887C93.1598 58.0431 94.8645 59.1111 95.0679 60.7C96.613 59.2006 99.5208 59.5197 100.726 61.3139C101.066 61.8137 101.611 62.5187 102.134 62.1767C102.974 61.5647 104.224 62.1329 104.724 63.0413C105.201 63.9498 105.156 65.0406 105.087 66.0859C105.792 65.3125 106.815 64.8127 107.86 64.7215C106.587 64.1094 105.564 63.0641 104.996 61.7681C104.407 60.4738 102.043 61.4279 101.134 60.2914C100.157 59.0655 98.4773 58.4061 96.9094 58.6341C95.1135 58.9059 93.614 56.975 91.7971 56.9522ZM70.3045 113.976C68.8051 114.045 67.6248 112.205 68.2824 110.886C67.2161 110.955 66.1481 111.023 65.08 111.091C64.4206 111.137 63.7401 111.16 63.1263 110.909C62.2407 110.523 61.718 109.546 61.604 108.592C61.4672 107.638 61.6952 106.684 61.8987 105.73C61.3076 105.457 60.7868 106.23 60.7184 106.865C60.3992 109.387 62.3985 111.977 64.9204 112.295C66.5795 112.5 67.5108 114.522 69.147 114.862C69.8503 115.022 70.5781 114.839 71.2814 114.953C72.7809 115.158 73.9173 116.612 75.4168 116.681C76.2797 116.704 77.1215 116.27 77.9615 116.476C78.5754 116.612 79.0524 117.067 79.6434 117.27C80.1415 117.452 80.6641 117.452 81.1867 117.452C83.6859 117.452 86.185 117.43 88.6842 117.43C88.5491 116.362 87.0496 116.225 85.9816 116.384C84.9135 116.567 83.3913 116.362 83.3457 115.293C82.7546 116.113 81.6866 116.544 80.6869 116.384C79.7101 116.204 78.8472 115.407 78.5754 114.431C77.5985 115.022 76.5077 115.567 75.3712 115.453C74.2348 115.339 73.1457 114.227 73.4631 113.136C72.3722 113.068 71.3954 113.954 70.3045 113.976ZM106.224 77.5346C105.996 77.1944 106.087 76.7401 106.178 76.3315C106.632 74.1726 107.109 72.0382 107.586 69.8793C108.155 70.6282 108.041 71.6963 107.883 72.6503C107.723 73.7184 107.541 74.8092 107.383 75.8773C109.086 72.9695 109.154 69.1971 107.564 66.2209C107.315 65.7667 106.587 65.9491 106.201 66.3121C105.019 67.3802 104.884 69.1515 104.973 70.7194C105.087 72.2873 105.315 73.9464 104.656 75.3774C104.407 75.309 104.133 75.2178 103.884 75.1266C103.702 77.2855 103.519 79.4217 103.339 81.556C103.316 81.898 103.316 82.2838 103.565 82.4662C104.565 81.2158 105.429 79.8531 106.133 78.422C106.269 78.1256 106.383 77.7854 106.224 77.5346ZM66.6251 62.6099C65.4659 63.4044 64.2172 64.3356 63.8752 65.7211C63.6489 66.6524 63.898 67.6292 64.2172 68.5394C64.2628 68.6745 64.3294 68.8113 64.4434 68.9253C64.8976 69.3111 65.4887 68.5622 65.5343 67.9484C66.2831 67.9712 66.8057 68.6973 67.5108 68.9937C68.67 69.5163 70.1011 68.585 70.4413 67.3802C70.8044 66.1525 70.3501 64.8127 69.6241 63.7674C68.9418 62.7905 67.602 61.9049 66.6251 62.6099ZM94.0016 64.0182C94.9101 62.4731 94.2279 60.2002 92.5916 59.4741C90.9571 58.7235 88.7982 59.7004 88.2527 61.4051C88.1159 61.7681 88.0721 62.1767 88.0265 62.5871C88.0037 62.8361 87.9581 63.1097 88.0931 63.336C88.2983 63.7218 88.821 63.7902 89.2752 63.813C90.8431 63.8814 92.4337 63.9498 94.0016 64.0182ZM82.346 63.1764C82.0514 62.8133 81.7322 62.4503 81.4375 62.0873C81.3919 63.0185 81.5743 63.9498 81.983 64.7899C82.1198 65.0634 82.3004 65.3581 82.5968 65.4265C83.2317 65.5861 83.5964 64.6759 84.1857 64.3812C84.7539 64.1094 85.4818 64.4496 86.0938 64.2216C86.9128 63.9042 87.004 62.7905 86.9584 61.9049C86.9128 61.2683 86.8672 60.6106 86.4586 60.1108C85.8676 59.3829 84.7767 59.3373 83.8455 59.5197C83.3001 59.6337 82.7318 59.8144 82.4828 60.2914C82.0514 61.1771 83.0054 62.4275 82.346 63.1764ZM58.4683 101.232C58.6963 100.255 59.3311 99.3674 60.2185 98.8676C60.1273 98.1187 59.1733 97.7329 58.4911 98.0275C57.8106 98.3467 57.4458 99.1184 57.423 99.8672C57.3774 100.618 57.6282 101.323 57.8772 102.026C58.1508 102.822 58.4455 103.617 58.7191 104.411C58.8103 104.685 58.9453 105.002 59.1961 105.139C59.6731 105.343 60.1501 104.911 60.4904 104.525C61.241 103.617 62.0127 102.686 62.7843 101.777C63.0807 101.39 63.4209 100.958 63.3297 100.458C63.2403 99.8462 62.4669 99.5498 61.8303 99.6866C61.2182 99.8234 60.7184 100.255 60.2185 100.618C59.7187 101.004 59.1049 101.323 58.4683 101.232ZM68.8051 28.099C67.8738 27.3729 66.6251 26.9187 65.5343 27.3273C64.6942 27.622 64.0804 28.3954 63.9436 29.2582C66.6935 29.9843 69.2593 31.4382 71.327 33.4147C71.3954 31.3716 70.4413 29.3266 68.8051 28.099ZM87.7073 115.476C88.2071 116.248 89.3892 116.27 90.1608 115.748C90.9343 115.248 91.3657 114.385 91.7515 113.545C90.8203 113.84 89.9574 114.317 89.2296 114.953C89.2752 113.84 90.3204 113.068 91.2289 112.409C93.1598 110.955 94.8417 109.138 96.1132 107.093C94.5015 107.296 93.1598 108.387 91.9111 109.432C91.3429 109.909 90.7975 110.364 90.252 110.841C89.7066 111.272 89.1384 111.818 89.0928 112.5C89.0261 113.613 88.5263 114.704 87.7073 115.476ZM60.0361 71.9014C60.308 71.3332 60.6044 70.6282 60.2185 70.1284C57.1512 73.2641 56.583 77.9678 56.1743 82.3066C56.0375 83.7149 55.9007 85.1688 56.4234 86.4631C56.7653 84.5778 57.0828 82.6697 57.423 80.7843C57.6282 79.5128 57.8544 78.2624 58.1736 77.0137C58.6051 75.2406 59.2417 73.5377 60.0361 71.9014ZM100.135 62.0873C99.6576 61.0648 98.2721 60.9508 97.1584 60.9964C96.841 61.0192 96.5008 61.0192 96.2044 61.156C95.1819 61.6769 95.4783 63.1764 95.2959 64.3128C97.0006 63.7902 98.9982 64.3356 100.203 65.6527C100.249 64.9039 100.294 64.1322 100.317 63.3816C100.34 62.9273 100.34 62.4731 100.135 62.0873ZM99.4769 73.3781C99.4541 73.9007 99.3401 74.4462 99.4541 74.9688C99.5436 75.5142 99.9084 76.0369 100.431 76.1035C100.385 75.4002 100.34 74.6952 100.271 73.9691C100.657 74.0375 100.908 74.3778 101.089 74.7408C101.248 75.081 101.385 75.4686 101.702 75.6949C102.043 75.9001 102.588 75.7861 102.634 75.423C102.885 73.4465 102.885 71.47 102.611 69.4935C101.908 69.7197 101.771 70.651 101.771 71.4016C101.748 72.1505 101.566 73.0817 100.84 73.2413C100.543 71.8558 100.748 70.3792 101.431 69.1515C100.543 69.0393 99.7944 69.8565 99.5892 70.7194C99.3857 71.5823 99.5208 72.4925 99.4769 73.3781ZM93.6596 94.3937C94.3419 92.3716 95.0223 90.3495 95.7046 88.3046C96.0676 87.2365 96.4324 86.1457 96.9322 85.1232C97.5215 83.9657 98.2493 82.8521 98.6807 81.6244C98.3861 81.3526 97.9319 81.6928 97.6811 82.0102C94.9785 85.5318 93.5456 89.9847 93.6596 94.3937ZM103.679 63.5184C103.248 63.1097 102.497 63.0641 101.974 63.3588C101.431 63.6762 101.134 64.3128 101.134 64.9267C101.157 65.7439 101.657 66.4717 102.157 67.1294C102.657 67.8116 103.156 68.471 103.656 69.1287C103.951 67.9484 104.156 66.7208 104.202 65.4721C104.247 64.7899 104.202 63.9954 103.679 63.5184ZM92.2742 40.5719C92.7968 40.3667 93.2966 40.1177 93.7508 39.823C92.5249 39.0724 91.0027 38.8234 89.5926 39.118C90.5028 40.0493 91.4341 40.9805 92.3426 41.9118C92.9792 42.5484 94.0016 42.6168 94.8417 42.2994C95.6818 41.9802 96.3412 41.3664 97.0006 40.7543C95.7501 39.709 93.6368 41.4576 92.2742 40.5719ZM74.3032 111.318C74.3944 111.046 74.0541 110.795 73.7805 110.818C73.4859 110.841 73.2123 111 72.9177 111.046C72.3266 111.183 71.669 110.751 71.5322 110.16C71.3498 109.41 70.1923 109.364 69.6697 109.932C69.147 110.5 69.1242 111.34 69.1242 112.114C70.8044 112.954 72.9633 112.614 74.3032 111.318ZM92.888 82.2838C93.5018 82.7153 94.3647 81.8752 94.1823 81.1474C93.9788 80.4441 93.1826 80.0565 92.4565 79.9899C91.9567 79.9443 91.3885 79.9671 91.0693 79.6023C90.6379 79.0797 90.9115 78.0344 90.252 77.8538C90.1381 78.8078 89.8434 79.7619 89.3892 80.6247C90.0924 80.6247 90.8203 80.6247 91.4797 80.8527C92.1374 81.079 92.7512 81.5788 92.888 82.2838ZM90.1381 108.342C90.7291 107.864 91.2289 107.024 90.8203 106.411C90.6151 106.116 90.2748 105.979 89.9346 105.934C88.5035 105.799 87.5495 107.365 86.9584 108.706C86.7533 109.183 86.5498 109.66 86.3446 110.137C87.4583 109.206 88.5719 108.296 89.6838 107.365C89.7522 107.729 89.9118 108.07 90.1381 108.342ZM80.3011 112.977C79.6873 113.091 79.4838 114.022 79.8925 114.522C80.2783 115.022 81.0061 115.158 81.641 115.067C82.7546 114.93 83.7999 114.204 84.2997 113.205C83.6859 112.977 82.9826 113.022 82.4144 113.34C81.7778 113.705 81.0289 112.817 80.3011 112.977ZM88.935 81.2842C89.0928 80.2161 89.2296 79.1481 89.3892 78.08C88.7298 78.7166 88.0493 79.4445 87.9125 80.3529C87.7757 81.2614 88.4579 82.3294 89.3664 82.2154C89.9574 82.147 90.4572 82.6241 90.9343 82.9432C91.4341 83.2607 92.2514 83.3519 92.4793 82.8064C91.5481 81.8752 90.252 81.3298 88.935 81.2842ZM71.441 61.5191C70.4869 61.4735 69.5101 61.4279 68.556 61.4051C69.5785 62.2451 70.6237 63.0869 71.6462 63.927C72.0776 62.3591 72.4862 60.7684 72.8721 59.1567C72.0092 59.6109 71.441 60.5422 71.441 61.5191ZM74.44 112.34C74.212 112.863 74.4628 113.499 74.9398 113.817C75.394 114.159 75.985 114.227 76.5533 114.159C77.5529 114.045 78.4842 113.545 79.1208 112.794C78.8928 112.409 78.3474 112.386 77.9159 112.523C77.4845 112.637 77.0303 112.863 76.5989 112.772C76.1885 112.682 75.8938 112.363 75.508 112.159C75.145 111.954 74.5767 111.954 74.44 112.34ZM56.946 97.4593C57.9 97.1875 58.8313 96.9139 59.7643 96.642C59.8994 96.5964 60.0589 96.5508 60.1729 96.4596C60.4448 96.2106 60.3308 95.7108 60.0361 95.5056C59.7415 95.3021 59.3083 95.3477 58.9681 95.4828C58.1964 95.8248 57.1512 95.4144 56.832 94.5971C56.6058 95.5512 56.6514 96.5508 56.946 97.4593ZM93.002 78.0134C94.1823 77.7398 95.5011 78.2168 96.25 79.1709C96.4096 79.3989 96.613 79.6935 96.9094 79.6707C97.2496 79.6707 97.432 79.2621 97.5004 78.9446C96.955 77.945 95.8185 77.3311 94.6821 77.4223C93.8876 77.4679 94.2051 75.7861 93.4334 75.5809C93.2966 76.3771 93.137 77.1944 93.002 78.0134ZM96.1816 80.0337C95.0451 79.1709 93.6596 78.6482 92.2286 78.5798C92.5021 77.6486 92.7968 76.7173 93.0686 75.7633C92.8196 75.3546 92.2058 75.8317 92.0023 76.2631C91.7515 76.7857 91.5025 77.3311 91.5253 77.8994C91.5691 78.4676 92.0023 79.0797 92.5688 79.0569C93.6368 79.0341 94.6593 79.8303 94.9101 80.8527C95.3187 80.5791 95.7501 80.3073 96.1816 80.0337ZM95.5906 39.2776C96.5008 39.5266 97.4548 39.7774 98.3861 39.6178C98.9982 39.5038 99.5892 39.2092 99.9312 38.6866C98.6807 37.6413 96.5218 37.9132 95.5906 39.2776ZM84.7311 115.271C86.2078 115.453 87.7301 114.385 88.0493 112.931C87.5723 113.228 86.9812 113.271 86.413 113.317C85.8676 113.363 85.2538 113.431 84.8451 113.794C84.4137 114.182 84.2997 114.93 84.7311 115.271ZM95.7046 76.6489C95.1363 75.8545 96.0009 74.8092 95.9781 73.8324C95.9781 73.5377 95.8641 73.2413 95.6134 73.1045C94.7733 74.2182 94.5681 75.7177 95.0451 77.0137C95.2731 76.8997 95.4783 76.7857 95.7046 76.6489ZM88.3667 102.3C88.1159 102.366 87.8669 102.412 87.6161 102.458C87.6617 101.823 87.5267 101.163 87.2303 100.595C87.1163 100.755 87.0935 100.958 87.0724 101.163C87.0496 101.686 87.0724 102.254 87.2987 102.708C87.5267 103.185 88.0265 103.571 88.5719 103.503C89.0928 103.457 89.526 102.843 89.2752 102.366C89.0261 102.163 88.6614 102.095 88.3439 102.209M87.3899 111.318C88.5035 110.637 89.6154 109.978 90.7519 109.318C89.3436 109.069 87.8441 109.955 87.3899 111.318ZM58.2192 93.9149C57.9684 93.4379 57.4458 93.0976 56.9004 93.0748C56.8776 93.8483 57.4002 94.6199 58.1508 94.8918C58.5139 94.8023 58.4227 94.2341 58.242 93.9149M87.7529 105.276C87.7757 105.457 87.8213 105.639 87.8441 105.82C88.1159 105.639 88.3895 105.434 88.6614 105.253C88.935 104.776 88.3439 104.231 87.8441 104.025C87.7985 104.434 87.7757 104.866 87.7529 105.276Z" fill="#050505"/>
</g>
<path d="M91.0694 62.9045C91.5026 62.8133 91.9568 63.0869 92.1147 63.4956C91.6149 63.5868 91.115 63.6324 90.6152 63.5868C90.4346 63.2904 90.7292 62.8361 91.0694 62.9045Z" fill="#050505"/>
<path d="M65.4441 64.7896C66.1947 65.698 66.9436 66.6082 67.6942 67.5167C67.8292 67.6973 67.8292 67.9709 67.6714 68.1515C66.9663 67.8341 66.2403 67.4939 65.7405 66.9257C65.2178 66.3346 65.0126 65.4262 65.4441 64.7896Z" fill="#050505"/>
<path d="M63.5127 107.818C65.4892 107.478 67.3973 106.683 69.0108 105.479C69.2598 105.298 69.6702 105.319 69.8965 105.547C69.0792 106.524 68.2374 107.546 67.0799 108.114C65.9434 108.683 64.444 108.705 63.5127 107.818Z" fill="#050505"/>
<path d="M78.4162 64.1094C78.1882 65.6756 77.8252 67.1978 77.3482 68.6973C77.1658 69.1972 76.9395 69.7654 76.4397 69.9706C76.9167 67.2662 77.485 64.5865 78.0988 61.9277C78.5986 62.5188 78.5302 63.3588 78.4162 64.1094Z" fill="#050505"/>
<path d="M84.5054 88.3265C83.618 87.3497 82.4149 86.6446 81.1206 86.35C80.4156 86.1904 79.6649 86.1448 79.0301 85.8274C78.3707 85.5082 77.8252 84.8505 77.9392 84.1455C80.733 84.3507 83.3917 85.759 85.1175 87.9407C84.9824 88.1441 84.7544 88.2809 84.5054 88.3265Z" fill="#050505"/>
<path d="M68.9874 45.3867C69.2154 46.0918 69.5556 46.8862 69.1926 47.5456C68.0105 46.1374 67.4195 44.252 67.6019 42.4106C67.7825 40.5709 68.7366 38.8223 70.1694 37.6631C70.6465 38.0033 70.2817 38.7311 69.9414 39.2082C68.6928 40.9567 68.328 43.319 68.9874 45.3867Z" fill="#050505"/>
<path d="M68.4424 48.7056C68.602 48.9318 68.7599 49.1598 68.9195 49.386C67.3744 51.8396 66.3519 54.6123 65.9433 57.4973C65.7837 58.6565 65.6259 59.9736 64.6718 60.6769C62.0815 62.5639 59.8086 64.9263 58.0373 67.585C57.6514 67.108 57.9005 66.403 58.1513 65.8347C59.8542 62.0413 61.5361 58.2461 63.2407 54.4299C63.3758 54.7701 63.5126 55.0893 63.6722 55.4296C65.1032 53.09 66.7167 50.8399 68.4424 48.7056Z" fill="#050505"/>
<path d="M91.0029 17.6477C91.8658 16.171 92.7515 14.7171 93.6143 13.2404C93.4109 14.8767 93.1829 16.4902 92.9795 18.1019C94.7052 17.0567 96.1363 15.4905 97.0219 13.6491C97.2727 15.2398 96.6589 16.9444 95.4558 17.9897C96.3643 17.7161 97.2271 17.2163 97.9321 16.5796C97.6129 17.8529 96.7045 18.9665 95.5224 19.533C98.3864 19.1244 101.634 18.8297 103.93 20.6467C100.612 20.2152 97.2043 20.4432 93.9791 21.3061C94.9788 22.1233 95.5014 23.4632 95.319 24.7365C93.4565 21.7831 90.1839 19.7838 86.7079 19.4892C87.6392 20.3292 88.1846 21.5779 88.2074 22.8284C82.6409 16.534 75.8257 11.3551 68.2827 7.69674C68.6703 7.03907 69.6472 7.24251 70.3504 7.5617C74.0772 9.26462 77.576 11.4235 80.7556 14.0139C80.7556 13.4 80.7556 12.809 80.7556 12.1952C81.5746 13.286 82.3919 14.3541 83.2091 15.4221C83.4371 14.6031 83.4599 13.7403 83.2775 12.9002C84.051 13.6263 84.4824 14.6715 84.4824 15.7396C85.3681 15.3309 85.1401 14.0139 84.7314 13.1264C84.3228 12.2408 83.937 11.0149 84.7314 10.4239C85.5276 12.4232 86.3449 14.4225 87.1622 16.4218C87.6392 13.8543 87.6848 11.2183 87.3218 8.628C88.9352 11.1271 89.6841 14.1489 89.4351 17.1023C90.1383 16.1938 90.661 15.1486 90.9574 14.0349C90.9802 15.2398 90.9802 16.4446 91.0029 17.6477Z" fill="#050505"/>
<mask id="mask1_122_1030" style="mask-type:luminance" maskUnits="userSpaceOnUse" x="24" y="32" width="34" height="46">
<path d="M24.0942 32.8987H57.9896V77.7955H24.0942V32.8987Z" fill="white"/>
</mask>
<g mask="url(#mask1_122_1030)">
<path d="M45.2922 50.6814C45.0414 52.0441 44.5416 53.3384 43.8383 54.5205C45.2922 52.4527 46.9723 50.5446 48.8138 48.8172C48.563 49.5906 48.2912 50.3622 48.0176 51.1585C48.8822 50.2938 49.745 49.431 50.6079 48.5681C50.5167 49.1591 50.4483 49.7712 50.3799 50.385C51.5392 49.4766 52.6984 48.5681 53.8559 47.6597C53.8559 48.2051 53.8349 48.7505 53.8349 49.2942C55.0152 48.1595 56.4234 47.2949 57.9685 46.7512C55.743 49.5222 53.5157 52.2932 51.3129 55.0431C51.6532 53.612 52.1302 52.2265 52.744 50.8849C49.745 53.9294 47.3371 57.5422 45.6552 61.4952C46.0183 58.9961 46.7461 56.5654 47.7685 54.2697C44.6328 58.4963 43.1561 63.698 41.7478 68.7647C41.7478 66.1077 42.088 63.449 42.7931 60.8814C40.7937 64.8116 39.4311 69.0383 38.7716 73.3999C38.3174 72.1039 38.1122 70.6956 38.2262 69.3329C37.8632 71.7636 37.5212 74.1716 37.181 76.6023C36.9319 74.6258 36.6811 72.6493 36.4549 70.6728C36.0445 72.9457 35.8183 75.2852 35.7955 77.602C35.0904 76.3077 34.773 74.831 34.8642 73.3543C34.7274 74.4452 34.3644 75.5132 33.7962 76.4901C33.9102 73.8085 33.6138 71.1042 32.9333 68.5156C32.7509 71.0148 32.5913 73.4911 32.4107 75.9902C31.5917 73.0369 31.2058 69.9923 31.2286 66.9478C30.82 69.3785 30.4342 71.832 30.0466 74.2856C29.7063 71.6268 29.6379 68.9243 29.8431 66.2655C29.4801 68.0386 29.1381 69.8099 28.7979 71.604C28.0262 68.128 27.593 64.6082 27.5036 61.0638C27.0038 62.7439 26.7302 64.517 26.7074 66.2655C26.2759 66.2199 26.0935 65.7201 26.0269 65.2887C25.1395 60.3588 25.3219 55.2237 26.5495 50.3394C25.5499 52.1125 24.7309 53.9522 24.0942 55.8603C24.2766 50.2482 26.0725 44.7063 29.2065 40.0254C28.7523 40.2306 28.2981 40.4341 27.8438 40.6393C28.9803 38.5032 30.3202 36.5039 31.8424 34.6185C32.6369 33.6645 34.1136 32.6876 34.9554 33.6189C34.2276 34.3905 33.4787 35.1412 32.6825 35.8672C33.7506 34.8904 35.2728 34.4133 36.7039 34.6185C34.9782 35.3464 33.4559 36.5723 32.3879 38.1173C33.4559 37.1633 34.8642 36.5723 36.2953 36.4811C34.7958 37.3001 33.5226 38.5944 32.7281 40.1166C34.0224 38.9346 35.7043 38.2085 37.4317 38.0261C35.4552 39.366 33.3191 40.9111 32.6597 43.2068C34.182 41.3653 36.3409 40.0482 38.6804 39.5484C37.4773 40.5025 36.3181 41.5021 35.2272 42.593C36.5215 42.1616 37.8176 41.7301 39.1119 41.3197C37.0442 42.6386 35.3412 44.4783 34.1592 46.6144C36.1129 44.8869 38.1806 43.298 40.3395 41.8424C39.6117 42.7526 38.8628 43.661 38.135 44.5923C39.4749 43.433 41.362 42.956 43.0877 43.3191C40.6341 44.0925 38.498 45.8866 37.295 48.1823C39.0891 46.6372 41.1796 45.478 43.4297 44.7957C42.1108 45.841 40.9744 47.1142 40.0887 48.5681C41.7934 47.0458 43.8611 45.9322 46.0639 45.3412C43.8839 47.2282 41.6794 49.1135 39.4977 50.9989C41.7478 49.9308 44.0189 48.8628 46.2918 47.7719C42.2248 52.0897 37.9544 56.7916 37.0442 62.6527C39.3627 58.3823 42.1108 54.3609 45.2922 50.6814Z" fill="#050505"/>
</g>
<g style="mix-blend-mode:difference">
<path d="M428.107 111.672L444.25 26.25H134.815L118 111.672H428.107Z" fill="white"/>
<path d="M169.319 94.4654C166.65 94.4654 164.1 94.0841 161.669 93.3215C159.238 92.6065 157.141 91.4864 155.377 89.9612C153.661 88.436 152.446 86.5056 151.731 84.1701C151.016 81.7869 151.04 78.9509 151.802 75.6621H164.314C163.933 77.664 164.076 79.3084 164.743 80.5953C165.41 81.8822 166.387 82.8355 167.674 83.4551C168.961 84.0747 170.344 84.3846 171.821 84.3846C172.584 84.3846 173.561 84.2654 174.752 84.0271C175.992 83.7411 177.136 83.2645 178.184 82.5972C179.233 81.9299 179.852 81.0243 180.043 79.8803C180.234 78.9271 180.091 78.1644 179.614 77.5925C179.137 76.9729 178.399 76.4724 177.398 76.0911C176.444 75.6621 175.277 75.2808 173.894 74.9471C172.512 74.5658 171.011 74.1607 169.39 73.7317C167.817 73.3027 166.173 72.8023 164.457 72.2303C162.789 71.6107 161.264 70.7766 159.881 69.728C158.547 68.6794 157.546 67.2971 156.879 65.5812C156.211 63.8653 156.14 61.6728 156.664 59.0036C157.188 56.4298 158.165 54.2134 159.595 52.3546C161.073 50.448 162.86 48.8751 164.958 47.6359C167.055 46.3489 169.271 45.4195 171.607 44.8475C173.942 44.2279 176.206 43.9181 178.399 43.9181C180.973 43.9181 183.403 44.2279 185.691 44.8475C187.979 45.4672 189.957 46.4681 191.625 47.8503C193.294 49.1849 194.485 50.9485 195.2 53.141C195.915 55.3335 195.939 57.9789 195.272 61.077H183.26C183.594 58.4078 183.189 56.5966 182.045 55.6434C180.901 54.6901 179.09 54.2134 176.611 54.2134C175.944 54.2134 175.11 54.3564 174.109 54.6424C173.108 54.8807 172.179 55.3097 171.321 55.9293C170.51 56.5013 170.01 57.2877 169.819 58.2887C169.676 59.0036 169.795 59.5994 170.177 60.0761C170.606 60.505 171.249 60.8864 172.107 61.22C172.965 61.5536 173.99 61.8635 175.181 62.1494C176.421 62.3878 177.755 62.6737 179.185 63.0074C180.996 63.4364 182.831 63.9845 184.69 64.6518C186.597 65.2714 188.289 66.1294 189.766 67.2256C191.292 68.3219 192.412 69.7756 193.127 71.5869C193.842 73.3504 193.913 75.6144 193.341 78.3789C192.769 81.3341 191.673 83.8364 190.052 85.886C188.48 87.9355 186.549 89.6037 184.261 90.8906C182.021 92.1299 179.614 93.0355 177.04 93.6075C174.466 94.1794 171.893 94.4654 169.319 94.4654ZM196.731 93.25L206.169 44.633H236.983L234.767 56.0723H216.607L215.248 63.1504H232.693L230.477 74.5182H213.032L211.602 81.8107H229.762L227.546 93.25H196.731ZM234.434 93.25L243.871 44.633H257.455L265.892 73.1598L271.397 44.633H283.98L274.543 93.25H260.959L252.594 64.7948L247.089 93.25H234.434ZM282.4 93.25L291.838 44.633H309.711C313.191 44.633 316.241 45.2765 318.863 46.5634C321.532 47.8027 323.725 49.5424 325.44 51.7826C327.156 54.0228 328.324 56.6205 328.944 59.5756C329.563 62.4831 329.539 65.6051 328.872 68.9415C328.205 72.3733 326.989 75.5668 325.226 78.5219C323.462 81.4294 321.294 84.0032 318.72 86.2434C316.146 88.436 313.286 90.1519 310.14 91.3911C306.995 92.6304 303.706 93.25 300.274 93.25H282.4ZM297.057 81.7392H301.561C303.992 81.7392 306.208 81.1673 308.21 80.0233C310.212 78.8317 311.88 77.2827 313.215 75.3761C314.597 73.4219 315.503 71.277 315.932 68.9415C316.408 66.606 316.337 64.485 315.717 62.5784C315.145 60.6242 314.096 59.0751 312.571 57.9312C311.046 56.7873 309.044 56.2153 306.566 56.2153H302.061L297.057 81.7392ZM335.464 91.8201L344.401 46.0629H357.056L348.119 91.8201H335.464ZM329.316 93.25L331.675 81.8107H355.984L353.624 93.25H329.316ZM336.537 56.0723L338.753 44.633H363.062L360.845 56.0723H336.537ZM373.589 93.3215L380.81 56.0723H366.225L368.441 44.7045H410.194L407.978 56.0723H393.393L386.172 93.3215H373.589Z" fill="#050505"/>
</g>
</svg>
