<svg width="483" height="483" viewBox="0 0 483 483" fill="none" xmlns="http://www.w3.org/2000/svg">
<mask id="mask0_1372_10694" style="mask-type:luminance" maskUnits="userSpaceOnUse" x="142" y="60" width="229" height="362">
<path d="M142.967 60.5356H370.626V421.176H142.967V60.5356Z" fill="white"/>
</mask>
<g mask="url(#mask0_1372_10694)">
<path d="M213.922 200.954C217.248 192.547 221.354 184.467 226.179 176.905C204.343 199.651 195.87 231.781 189.355 262.678C189.611 237.451 196.067 212.36 207.93 190.137C204.67 193.266 201.41 196.325 198.149 199.455C203.498 188.899 210.863 179.446 219.789 171.692C206.688 173.323 193.787 176.578 181.466 181.468C187.921 176.512 194.371 171.627 200.892 166.737C194.24 167.195 187.463 166.344 181.139 164.131C183.876 163.22 186.552 162.239 189.224 161.328C183.423 161.066 177.622 160.09 172.083 158.395C174.296 157.55 176.515 156.634 178.729 155.789C172.41 155.331 166.085 154.028 160.088 151.879C164.128 151.095 168.234 150.833 172.344 150.964C165.627 148.946 158.916 146.858 152.204 144.841C154.745 144.121 157.286 143.341 159.826 142.622C154.549 142.687 149.336 140.016 146.338 135.649C148.421 135.845 150.509 135.976 152.531 136.172C148.617 131.543 147.575 124.635 149.985 119.03C147.902 120.982 145.88 123.005 143.862 124.962C146.207 118.9 149.271 113.033 153.049 107.69C150.836 108.928 148.617 110.165 146.468 111.403C151.681 98.5632 158.523 86.1159 168.626 76.5968C178.663 67.0173 192.223 60.5672 206.104 61.2163C185.184 65.5834 166.543 79.7262 156.702 98.6941C160.546 95.9571 164.324 93.2201 168.173 90.4831C164.324 96.2187 160.546 101.954 156.702 107.625C158.654 107.821 160.546 107.947 162.438 108.077C153.115 111.926 150.966 125.48 156.637 133.888C162.241 142.229 172.993 145.751 183.096 146.013C179.252 146.858 175.403 147.709 171.559 148.554C175.212 151.029 179.77 152.071 184.137 151.422C183.423 152.659 182.769 153.962 182.055 155.2C183.876 156.896 186.744 155.265 189.224 154.938C191.699 154.616 193.979 158.787 191.438 158.918C198.346 158.395 205.254 157.937 212.167 157.419C208.906 159.306 205.711 161.197 202.451 163.089C211.709 161.132 220.896 159.175 230.153 157.223C220.574 161.655 211.055 166.088 201.475 170.515C210.013 169.277 218.551 167.974 227.024 166.737C229.046 166.475 231.456 165.826 231.914 163.869C233.866 155.592 239.34 148.161 246.641 143.794C230.933 144.579 215.291 148.227 200.826 154.486C212.101 145.817 226.113 140.665 240.387 139.95C228.327 138.713 216.337 137.475 204.343 136.303C213.922 134.28 223.894 134.149 233.544 135.714C219.527 130.371 204.408 127.956 189.42 128.806C195.025 126.134 201.344 124.897 207.538 125.35C200.237 123.916 193.003 122.482 185.702 121.113C188.897 119.227 192.937 118.965 196.263 120.399C196.912 110.231 205.254 101.104 215.291 99.5393C209.752 99.2173 204.212 98.8249 198.607 98.4978C213.404 91.0013 231.522 98.4978 244.492 108.797C257.463 119.03 268.607 132.323 283.922 138.647C284.707 126.587 282.75 114.402 278.317 103.257C286.141 113.944 289.854 127.568 288.616 140.73C294.156 134.929 297.678 127.241 298.458 119.227C300.802 127.372 298.392 136.755 292.46 142.818C296.435 148.423 305.627 147.578 310.643 142.818C315.664 138.124 317.491 131.02 318.925 124.308C318.99 128.61 319.05 132.912 319.116 137.279C322.245 130.305 325.375 123.397 328.504 116.424C328.831 126.069 324.982 135.779 318.14 142.622C323.03 141.711 327.916 140.861 332.871 139.95C338.214 139.04 344.539 138.386 348.317 142.295C352.357 146.531 350.923 153.379 349.686 159.114C348.448 164.91 348.513 172.342 353.791 174.948C368.784 156.699 369.303 128.021 354.964 109.255C364.739 117.139 370.279 129.848 370.218 142.491C370.218 155.069 364.805 167.456 356.267 176.709C352.684 180.553 357.313 187.787 353.791 191.702C350.662 195.153 352.619 200.758 355.356 204.476C358.028 208.255 361.615 212.098 361.353 216.793C360.438 233.476 363.305 250.421 369.63 265.998C367.803 264.434 365.982 262.939 364.09 261.375C365.197 266.849 366.304 272.323 367.411 277.797C365.59 274.863 363.698 271.93 361.871 268.931C364.156 275.905 363.763 283.794 360.699 290.44C360.895 285.358 360.503 280.272 359.527 275.256C359.004 284.639 356.659 293.962 352.619 302.435C353.66 296.503 353.922 290.44 353.53 284.377C352.227 293.569 348.775 302.435 343.623 310.188C345.384 304.13 346.556 297.871 347.276 291.612C344.016 301.519 338.672 310.842 331.764 318.595C335.216 311.883 337.822 304.714 339.452 297.348C335.543 305.951 329.742 313.71 322.572 319.963C326.094 313.644 329.611 307.385 333.133 301.131C329.153 305.041 325.179 309.015 321.204 312.99C327.85 302.953 333.324 292.136 337.5 280.795C333.978 285.162 330.522 289.529 327.005 293.897C331.89 284.966 335.347 275.256 337.173 265.218C322.18 291.16 313.38 320.683 311.821 350.599C314.945 349.23 318.074 347.927 321.204 346.559C325.244 356.661 306.93 365.783 311.166 375.82C315.534 386.25 308.887 398.179 300.415 405.671C287.379 417.011 269.387 422.42 252.311 420.141C235.235 417.861 219.271 407.89 209.752 393.485C210.989 394.33 209.621 396.549 208.121 396.353C206.562 396.222 205.581 394.788 204.735 393.55C201.541 388.726 198.346 383.84 195.221 379.015C195.805 382.341 196.394 385.661 197.043 389.053C188.766 381.36 183.75 370.346 183.358 359.137C186.225 365.069 189.028 371 191.896 376.927C190.98 372.822 190.92 368.585 191.634 364.48C193.591 371.322 197.304 377.712 202.195 382.859C198.084 374.19 195.609 364.742 194.96 355.162C200.63 369.823 206.496 384.751 216.659 396.68C226.828 408.669 242.274 417.338 257.85 415.255C243.582 411.733 228.131 407.497 219.205 395.83C240.452 408.342 266.846 411.799 290.634 405.218C276.104 405.736 261.307 405.283 247.556 400.72C233.736 396.091 220.961 386.899 214.904 373.672C233.479 391.201 259.224 400.916 284.773 399.935C291.877 399.674 299.434 398.436 304.651 393.616C309.863 388.791 311.297 379.408 305.954 374.779C306.472 378.754 303.605 382.597 299.957 384.358C296.37 386.119 292.199 386.316 288.159 386.25C273.754 386.054 259.415 383.644 245.73 379.081C236.669 376.082 227.678 372.042 221.027 365.199C215.88 359.851 212.358 353.074 209.686 346.101C200.63 322.575 200.499 296.699 200.499 271.477C197.762 293.569 195.09 315.662 192.353 337.759C190.723 322.444 190.527 306.998 191.83 291.678C189.159 297.544 186.487 303.345 183.815 309.212C187.463 283.467 198.024 258.703 214.119 238.236C222.204 228.002 231.718 218.75 242.993 212.229C266.977 198.413 297.089 198.217 323.548 206.428C336.519 210.468 349.424 216.923 357.444 227.937C359.396 217.703 354.964 206.951 347.729 199.455C340.494 191.958 330.849 187.269 320.942 184.009C308.299 179.773 294.936 177.559 281.578 177.428C276.104 177.428 270.564 177.685 265.347 175.994C260.2 174.364 255.44 170.062 255.048 164.654C254.53 157.55 262.026 151.814 269.13 151.945C276.3 152.01 282.685 156.307 287.962 161.066C293.311 165.826 298.065 171.3 304.324 174.817C315.534 181.141 330.718 179.446 340.302 170.842C343.819 176.382 344.343 183.682 341.606 189.614C343.427 191.571 345.907 192.809 348.513 193.136C352.488 190.137 351.643 184.009 350.144 179.249C348.186 172.93 345.449 166.344 340.041 162.5C334.632 158.657 325.898 158.853 322.442 164.523C318.074 171.562 306.669 168.563 301.26 162.37C295.786 156.116 292.722 147.643 285.814 143.08C277.603 137.606 266.585 139.362 257.332 142.949C249.836 145.882 242.404 150.184 238.037 157.026C233.736 163.803 233.414 173.71 239.149 179.446C237.192 179.773 235.235 177.816 235.496 175.863C227.089 183.098 219.789 191.571 213.922 200.954ZM319.05 261.113C321.008 260.786 323.096 260.393 324.982 261.113C326.874 261.827 328.373 263.981 327.654 265.807C326.22 263.981 323.548 263.261 321.4 264.177C321.531 266.325 324.006 267.759 326.22 267.563C328.373 267.301 330.265 265.933 332.021 264.63C332.283 264.434 332.61 264.177 332.871 263.981C329.938 264.308 326.939 262.22 326.351 259.352C325.963 257.656 326.285 255.895 325.767 254.27C325.179 252.706 322.965 251.468 321.792 252.706C321.204 255.639 320.293 258.441 319.05 261.113ZM239.406 314.102C239.018 306.148 237.846 296.961 230.999 292.915C239.018 304.13 233.217 319.838 236.412 333.261C236.8 335.022 239.537 336.848 239.929 335.022C239.084 332.999 239.084 330.72 239.864 328.698C240.84 330.524 241.821 332.35 242.797 334.111C246.575 332.089 250.359 330.001 254.137 327.983C255.113 327.395 256.225 326.876 257.332 327.007C259.093 327.198 260.265 329.025 260.331 330.786C260.462 332.547 259.677 334.172 258.962 335.802C257.201 339.716 255.44 343.56 253.679 347.469C262.675 352.163 272.647 354.9 282.75 355.424C274.539 358.417 265.216 356.204 257.528 352.033C255.048 350.664 251.662 349.165 249.705 351.187C257.594 356.727 267.108 359.851 276.753 360.113C281.512 360.244 286.855 359.333 289.854 355.615C294.156 350.337 291.55 342.584 290.765 335.736C289.331 323.354 294.81 310.319 290.765 298.46C287.052 287.638 274.866 280.468 263.586 282.491C269.714 294.027 271.41 307.909 268.215 320.552C263.133 311.169 269.256 298.264 263.46 289.202C255.048 284.186 245.338 281.318 235.496 281.057C243.773 277.017 254.464 278.838 260.98 285.293C262.283 283.794 260.527 281.51 258.831 280.468C248.467 273.887 233.544 275.839 225.198 284.835C237.061 288.03 244.231 302.762 239.406 314.102ZM255.898 220.702C256.416 227.544 256.94 234.457 257.463 241.365C254.399 237.713 252.573 233.023 252.376 228.264C251.008 230.09 251.662 232.631 252.311 234.779C254.857 242.538 257.332 250.291 259.873 258.049C260.784 259.025 262.152 257.526 262.61 256.288C263.586 253.551 264.632 250.749 265.609 248.012C269.13 238.301 272.713 228.068 270.952 217.899C270.499 215.228 269.583 212.491 267.696 210.468C265.805 208.516 262.806 207.409 260.265 208.385C258.047 209.231 256.613 211.449 256.094 213.729C255.506 215.947 255.702 218.357 255.898 220.702ZM232.045 339.847C230.677 340.038 228.785 341.019 229.373 342.257C232.302 341.407 235.169 340.561 238.103 339.716C238.561 339.52 239.149 339.389 239.537 339.716C240.583 340.365 239.215 341.864 238.037 342.322C235.235 343.364 232.432 344.471 229.63 345.517C227.089 346.493 224.352 347.665 223.115 350.141C221.746 352.943 223.18 356.661 225.786 358.352C228.458 360.113 231.914 360.178 234.978 359.333C237.972 358.417 240.714 356.661 243.385 354.966C245.272 353.728 247.426 352.229 247.818 349.945C246.902 350.533 245.534 350.337 244.819 349.492C251.204 344.601 255.767 337.17 257.201 329.221C249.901 334.76 241.167 338.473 232.045 339.847ZM306.93 206.821C303.217 206.821 299.891 209.558 296.244 209.231C292.984 209.034 290.312 206.494 287.117 206.041C284.118 205.583 281.12 207.017 278.121 207.666C275.057 208.32 271.802 208.189 268.869 207.279C271.41 210.992 273.367 215.162 274.539 219.53C276.426 215.293 279.424 211.188 283.857 209.819C288.289 208.516 294.025 211.384 294.156 216.013C297.547 212.883 301.652 210.277 306.276 210.081C310.839 209.95 315.73 213.014 316.313 217.572C320.746 213.271 329.088 214.186 332.544 219.333C333.52 220.767 335.085 222.79 336.584 221.809C338.994 220.053 342.582 221.683 344.016 224.289C345.384 226.895 345.253 230.025 345.057 233.023C347.08 230.805 350.013 229.371 353.011 229.109C349.359 227.353 346.425 224.355 344.795 220.636C343.105 216.923 336.323 219.66 333.717 216.4C330.914 212.883 326.094 210.992 321.596 211.646C316.444 212.425 312.143 206.886 306.93 206.821ZM245.272 370.412C240.97 370.608 237.584 365.33 239.471 361.547C236.412 361.743 233.348 361.939 230.284 362.135C228.392 362.266 226.44 362.332 224.679 361.612C222.138 360.505 220.639 357.703 220.312 354.966C219.92 352.229 220.574 349.492 221.157 346.755C219.462 345.97 217.968 348.189 217.771 350.01C216.856 357.245 222.591 364.676 229.826 365.587C234.586 366.175 237.257 371.977 241.952 372.953C243.969 373.41 246.057 372.887 248.075 373.214C252.376 373.803 255.637 377.974 259.938 378.17C262.414 378.235 264.829 376.993 267.239 377.581C269 377.974 270.368 379.277 272.064 379.86C273.492 380.384 274.992 380.384 276.491 380.384C283.661 380.384 290.83 380.318 298 380.318C297.612 377.254 293.311 376.862 290.247 377.32C287.183 377.843 282.815 377.254 282.685 374.19C280.989 376.54 277.925 377.778 275.057 377.32C272.255 376.801 269.779 374.517 269 371.715C266.197 373.41 263.068 374.975 259.807 374.648C256.547 374.321 253.423 371.131 254.333 368.002C251.204 367.806 248.402 370.346 245.272 370.412ZM348.317 265.867C347.663 264.891 347.925 263.588 348.186 262.416C349.49 256.223 350.858 250.099 352.227 243.906C353.857 246.054 353.53 249.118 353.077 251.855C352.619 254.919 352.096 258.049 351.643 261.113C356.528 252.771 356.724 241.949 352.161 233.411C351.447 232.108 349.359 232.631 348.252 233.672C344.861 236.736 344.473 241.818 344.73 246.316C345.057 250.814 345.711 255.573 343.819 259.679C343.105 259.483 342.32 259.221 341.606 258.96C341.082 265.153 340.559 271.281 340.041 277.404C339.975 278.385 339.975 279.492 340.69 280.015C343.558 276.428 346.038 272.519 348.056 268.413C348.448 267.563 348.775 266.587 348.317 265.867ZM234.717 223.051C231.391 225.331 227.809 228.002 226.828 231.977C226.179 234.649 226.893 237.451 227.809 240.062C227.94 240.45 228.131 240.842 228.458 241.169C229.761 242.276 231.456 240.128 231.587 238.367C233.736 238.432 235.235 240.515 237.257 241.365C240.583 242.865 244.689 240.193 245.665 236.736C246.706 233.215 245.403 229.371 243.32 226.372C241.363 223.57 237.519 221.029 234.717 223.051ZM313.254 227.092C315.861 222.659 313.903 216.139 309.209 214.056C304.52 211.902 298.327 214.705 296.762 219.595C296.37 220.636 296.244 221.809 296.113 222.986C296.048 223.701 295.917 224.485 296.304 225.134C296.893 226.241 298.392 226.438 299.695 226.503C304.193 226.699 308.757 226.895 313.254 227.092ZM279.817 224.677C278.971 223.635 278.056 222.594 277.211 221.552C277.08 224.224 277.603 226.895 278.775 229.305C279.168 230.09 279.686 230.935 280.536 231.132C282.358 231.59 283.404 228.978 285.095 228.133C286.725 227.353 288.813 228.329 290.569 227.675C292.918 226.765 293.18 223.57 293.049 221.029C292.918 219.203 292.787 217.316 291.615 215.882C289.92 213.794 286.79 213.663 284.118 214.186C282.554 214.513 280.924 215.032 280.209 216.4C278.971 218.941 281.708 222.528 279.817 224.677ZM211.316 333.85C211.97 331.047 213.792 328.501 216.337 327.068C216.076 324.919 213.339 323.812 211.382 324.658C209.43 325.573 208.383 327.787 208.318 329.935C208.187 332.089 208.906 334.111 209.621 336.129C210.406 338.413 211.251 340.692 212.036 342.971C212.297 343.756 212.685 344.667 213.404 345.059C214.773 345.643 216.141 344.405 217.117 343.298C219.271 340.692 221.484 338.021 223.698 335.414C224.548 334.302 225.525 333.065 225.263 331.631C225.006 329.875 222.788 329.025 220.961 329.417C219.205 329.81 217.771 331.047 216.337 332.089C214.904 333.196 213.143 334.111 211.316 333.85ZM240.97 124.047C238.299 121.964 234.717 120.66 231.587 121.833C229.177 122.678 227.416 124.897 227.024 127.372C234.913 129.455 242.274 133.626 248.205 139.296C248.402 133.435 245.665 127.568 240.97 124.047ZM295.197 374.714C296.631 376.927 300.022 376.993 302.236 375.493C304.455 374.059 305.692 371.584 306.799 369.174C304.128 370.019 301.652 371.388 299.564 373.214C299.695 370.019 302.694 367.806 305.3 365.914C310.839 361.743 315.664 356.531 319.312 350.664C314.688 351.248 310.839 354.377 307.257 357.376C305.627 358.744 304.062 360.047 302.498 361.416C300.933 362.654 299.303 364.218 299.172 366.175C298.981 369.37 297.547 372.5 295.197 374.714ZM215.814 249.707C216.594 248.077 217.444 246.054 216.337 244.62C207.538 253.616 205.908 267.11 204.735 279.557C204.343 283.598 203.951 287.768 205.45 291.482C206.431 286.073 207.342 280.599 208.318 275.19C208.906 271.543 209.555 267.955 210.471 264.373C211.709 259.287 213.535 254.401 215.814 249.707ZM330.849 221.552C329.48 218.619 325.506 218.292 322.311 218.423C321.4 218.488 320.424 218.488 319.574 218.881C316.64 220.375 317.491 224.677 316.968 227.937C321.858 226.438 327.588 228.002 331.045 231.781C331.176 229.632 331.307 227.419 331.372 225.265C331.437 223.962 331.437 222.659 330.849 221.552ZM328.962 253.943C328.897 255.443 328.57 257.007 328.897 258.507C329.153 260.071 330.2 261.571 331.699 261.762C331.568 259.744 331.437 257.722 331.241 255.639C332.348 255.835 333.068 256.811 333.586 257.853C334.044 258.829 334.436 259.941 335.347 260.59C336.323 261.178 337.887 260.851 338.018 259.81C338.738 254.14 338.738 248.469 337.953 242.799C335.935 243.448 335.543 246.12 335.543 248.273C335.477 250.421 334.954 253.093 332.871 253.551C332.021 249.576 332.61 245.34 334.567 241.818C332.021 241.496 329.873 243.841 329.284 246.316C328.7 248.791 329.088 251.403 328.962 253.943ZM312.273 314.233C314.23 308.432 316.183 302.631 318.14 296.764C319.181 293.7 320.228 290.571 321.662 287.638C323.352 284.317 325.44 281.122 326.678 277.6C325.833 276.82 324.529 277.797 323.81 278.707C316.057 288.81 311.946 301.584 312.273 314.233ZM341.017 225.658C339.779 224.485 337.626 224.355 336.127 225.2C334.567 226.11 333.717 227.937 333.717 229.698C333.782 232.042 335.216 234.13 336.65 236.017C338.084 237.974 339.518 239.866 340.951 241.753C341.797 238.367 342.385 234.845 342.516 231.262C342.647 229.305 342.516 227.026 341.017 225.658ZM308.299 159.829C309.798 159.24 311.232 158.526 312.535 157.68C309.018 155.527 304.651 154.813 300.606 155.658C303.217 158.329 305.889 161.001 308.495 163.673C310.321 165.499 313.254 165.695 315.664 164.785C318.074 163.869 319.966 162.108 321.858 160.352C318.271 157.353 312.208 162.37 308.299 159.829ZM256.743 362.784C257.005 362.005 256.029 361.285 255.244 361.35C254.399 361.416 253.614 361.874 252.769 362.005C251.073 362.397 249.187 361.159 248.794 359.464C248.271 357.31 244.95 357.18 243.451 358.81C241.952 360.44 241.886 362.85 241.886 365.069C246.706 367.479 252.9 366.503 256.743 362.784ZM310.06 279.492C311.821 280.73 314.296 278.32 313.773 276.232C313.189 274.214 310.905 273.102 308.822 272.911C307.388 272.78 305.758 272.846 304.842 271.799C303.605 270.3 304.389 267.301 302.498 266.783C302.171 269.52 301.325 272.257 300.022 274.732C302.04 274.732 304.128 274.732 306.02 275.387C307.906 276.036 309.667 277.469 310.06 279.492ZM302.171 354.246C303.866 352.878 305.3 350.468 304.128 348.707C303.539 347.862 302.563 347.469 301.587 347.338C297.481 346.951 294.744 351.444 293.049 355.293C292.46 356.661 291.877 358.03 291.288 359.398C294.483 356.727 297.678 354.116 300.868 351.444C301.064 352.49 301.522 353.467 302.171 354.246ZM273.95 367.544C272.189 367.871 271.606 370.543 272.778 371.977C273.885 373.41 275.973 373.803 277.794 373.541C280.989 373.149 283.988 371.066 285.422 368.198C283.661 367.544 281.643 367.675 280.013 368.585C278.187 369.632 276.038 367.086 273.95 367.544ZM298.719 276.624C299.172 273.56 299.564 270.496 300.022 267.432C298.131 269.258 296.178 271.346 295.786 273.953C295.394 276.559 297.351 279.623 299.957 279.296C301.652 279.1 303.086 280.468 304.455 281.384C305.889 282.294 308.233 282.556 308.887 280.991C306.216 278.32 302.498 276.755 298.719 276.624ZM248.532 219.922C245.795 219.791 242.993 219.66 240.256 219.595C243.189 222.005 246.188 224.42 249.121 226.83C250.359 222.332 251.531 217.769 252.638 213.145C250.163 214.448 248.532 217.12 248.532 219.922ZM257.136 365.718C256.482 367.217 257.201 369.043 258.57 369.954C259.873 370.935 261.568 371.131 263.199 370.935C266.066 370.608 268.738 369.174 270.564 367.021C269.91 365.914 268.346 365.848 267.108 366.241C265.87 366.568 264.567 367.217 263.329 366.955C262.152 366.699 261.307 365.783 260.2 365.199C259.158 364.611 257.528 364.611 257.136 365.718ZM206.949 323.027C209.686 322.248 212.358 321.463 215.034 320.683C215.422 320.552 215.88 320.421 216.207 320.16C216.986 319.445 216.659 318.011 215.814 317.423C214.969 316.839 213.726 316.97 212.75 317.357C210.536 318.338 207.538 317.161 206.622 314.816C205.973 317.553 206.104 320.421 206.949 323.027ZM310.387 267.241C313.773 266.456 317.556 267.825 319.705 270.562C320.162 271.216 320.746 272.061 321.596 271.995C322.572 271.995 323.096 270.823 323.292 269.913C321.727 267.045 318.467 265.284 315.207 265.545C312.927 265.676 313.838 260.851 311.624 260.263C311.232 262.547 310.774 264.891 310.387 267.241ZM319.508 273.037C316.248 270.562 312.273 269.062 308.168 268.866C308.953 266.194 309.798 263.523 310.578 260.786C309.863 259.614 308.102 260.982 307.519 262.22C306.799 263.719 306.085 265.284 306.15 266.914C306.276 268.544 307.519 270.3 309.144 270.235C312.208 270.169 315.141 272.453 315.861 275.387C317.033 274.602 318.271 273.822 319.508 273.037ZM317.813 156.116C320.424 156.83 323.161 157.55 325.833 157.092C327.588 156.765 329.284 155.92 330.265 154.42C326.678 151.422 320.484 152.201 317.813 156.116ZM286.659 374.125C290.896 374.648 295.263 371.584 296.178 367.413C294.81 368.263 293.114 368.389 291.484 368.52C289.92 368.651 288.159 368.847 286.986 369.889C285.749 371 285.422 373.149 286.659 374.125ZM318.14 263.327C316.51 261.047 318.99 258.049 318.925 255.246C318.925 254.401 318.598 253.551 317.878 253.158C315.468 256.353 314.88 260.655 316.248 264.373C316.902 264.046 317.491 263.719 318.14 263.327ZM297.089 336.914C296.37 337.105 295.655 337.236 294.936 337.367C295.066 335.545 294.679 333.653 293.829 332.023C293.502 332.481 293.436 333.065 293.376 333.653C293.311 335.153 293.376 336.783 294.025 338.086C294.679 339.454 296.113 340.561 297.678 340.365C299.172 340.234 300.415 338.473 299.695 337.105C298.981 336.521 297.934 336.325 297.024 336.652M294.287 362.784C297.481 360.832 300.671 358.941 303.932 357.049C299.891 356.334 295.59 358.875 294.287 362.784ZM210.602 312.859C209.882 311.491 208.383 310.515 206.818 310.449C206.753 312.668 208.252 314.882 210.406 315.662C211.447 315.405 211.185 313.775 210.667 312.859M295.328 345.452C295.394 345.97 295.524 346.493 295.59 347.011C296.37 346.493 297.154 345.905 297.934 345.386C298.719 344.018 297.024 342.453 295.59 341.864C295.459 343.037 295.394 344.274 295.328 345.452Z" fill="white"/>
</g>
<path d="M304.843 223.897C306.086 223.635 307.389 224.42 307.842 225.592C306.408 225.854 304.974 225.985 303.54 225.854C303.022 225.003 303.867 223.7 304.843 223.897Z" fill="white"/>
<path d="M231.328 229.305C233.482 231.911 235.63 234.522 237.784 237.128C238.171 237.646 238.171 238.431 237.718 238.95C235.696 238.039 233.613 237.063 232.179 235.433C230.679 233.737 230.091 231.131 231.328 229.305Z" fill="white"/>
<path d="M225.788 352.745C231.458 351.769 236.932 349.49 241.561 346.033C242.275 345.515 243.452 345.575 244.101 346.23C241.757 349.032 239.342 351.965 236.021 353.595C232.761 355.225 228.459 355.291 225.788 352.745Z" fill="white"/>
<path d="M268.543 227.354C267.889 231.847 266.847 236.214 265.479 240.515C264.955 241.949 264.306 243.579 262.873 244.168C264.241 236.41 265.871 228.722 267.632 221.095C269.066 222.79 268.87 225.2 268.543 227.354Z" fill="white"/>
<path d="M286.012 296.828C283.466 294.025 280.015 292.003 276.302 291.157C274.279 290.699 272.126 290.569 270.304 289.658C268.413 288.742 266.848 286.856 267.175 284.833C275.19 285.422 282.817 289.462 287.768 295.721C287.38 296.304 286.726 296.697 286.012 296.828Z" fill="white"/>
<path d="M241.494 173.642C242.148 175.665 243.124 177.944 242.083 179.835C238.691 175.795 236.996 170.387 237.519 165.104C238.037 159.826 240.774 154.81 244.885 151.484C246.253 152.46 245.207 154.548 244.231 155.917C240.649 160.933 239.602 167.71 241.494 173.642Z" fill="white"/>
<path d="M239.93 183.163C240.388 183.812 240.841 184.466 241.299 185.115C236.866 192.153 233.933 200.108 232.761 208.384C232.303 211.71 231.85 215.488 229.113 217.506C221.682 222.92 215.162 229.697 210.08 237.324C208.973 235.956 209.688 233.933 210.407 232.303C215.292 221.42 220.117 210.533 225.008 199.585C225.395 200.561 225.788 201.476 226.245 202.452C230.351 195.741 234.98 189.286 239.93 183.163Z" fill="white"/>
<path d="M304.652 94.0643C307.127 89.8279 309.668 85.657 312.144 81.4207C311.56 86.1149 310.906 90.7436 310.322 95.3673C315.273 92.3687 319.378 87.8758 321.919 82.593C322.639 87.1563 320.878 92.0467 317.426 95.0453C320.033 94.2605 322.508 92.8266 324.53 91.0002C323.615 94.6529 321.009 97.8478 317.618 99.4728C325.834 98.3006 335.151 97.4553 341.737 102.668C332.218 101.43 322.443 102.084 313.19 104.559C316.058 106.904 317.557 110.748 317.034 114.401C311.691 105.928 302.302 100.192 292.33 99.3471C295.002 101.757 296.567 105.339 296.632 108.927C280.663 90.8694 261.112 76.0121 239.472 65.5169C240.584 63.6302 243.386 64.2138 245.404 65.1295C256.095 70.0149 266.133 76.2083 275.254 83.6395C275.254 81.8786 275.254 80.183 275.254 78.4221C277.604 81.5515 279.949 84.6156 282.293 87.6796C282.947 85.33 283.013 82.8546 282.489 80.4447C284.708 82.5276 285.946 85.5262 285.946 88.5903C288.487 87.418 287.833 83.6395 286.66 81.0937C285.488 78.5529 284.381 75.0361 286.66 73.3405C288.944 79.0762 291.289 84.8118 293.634 90.5474C295.002 83.1817 295.133 75.6197 294.091 68.1885C298.72 75.3581 300.869 84.0269 300.154 92.4995C302.172 89.8933 303.671 86.8947 304.521 83.6999C304.587 87.1563 304.587 90.6128 304.652 94.0643Z" fill="white"/>
<mask id="mask1_1372_10694" style="mask-type:luminance" maskUnits="userSpaceOnUse" x="112" y="137" width="98" height="130">
<path d="M112.704 137.816H209.943V266.616H112.704V137.816Z" fill="white"/>
</mask>
<g mask="url(#mask1_1372_10694)">
<path d="M173.517 188.831C172.797 192.741 171.363 196.454 169.346 199.845C173.517 193.913 178.337 188.439 183.62 183.483C182.9 185.702 182.12 187.916 181.335 190.2C183.816 187.719 186.291 185.244 188.767 182.769C188.505 184.464 188.309 186.22 188.112 187.981C191.438 185.375 194.764 182.769 198.084 180.162C198.084 181.727 198.024 183.292 198.024 184.852C201.41 181.596 205.45 179.116 209.883 177.556C203.498 185.506 197.108 193.455 190.789 201.344C191.765 197.239 193.134 193.264 194.895 189.415C186.291 198.149 179.383 208.514 174.558 219.854C175.6 212.684 177.688 205.711 180.621 199.125C171.625 211.251 167.389 226.173 163.349 240.709C163.349 233.086 164.325 225.459 166.347 218.093C160.612 229.368 156.702 241.493 154.811 254.006C153.508 250.288 152.919 246.248 153.246 242.339C152.204 249.312 151.223 256.22 150.247 263.193C149.533 257.523 148.813 251.853 148.164 246.183C146.987 252.703 146.338 259.415 146.273 266.061C144.25 262.348 143.339 258.112 143.601 253.875C143.209 257.005 142.167 260.069 140.537 262.871C140.864 255.178 140.014 247.42 138.062 239.994C137.538 247.164 137.081 254.268 136.562 261.437C134.213 252.965 133.106 244.23 133.171 235.496C131.999 242.469 130.892 249.508 129.78 256.547C128.804 248.92 128.608 241.166 129.197 233.539C128.155 238.626 127.174 243.707 126.198 248.854C123.984 238.882 122.741 228.784 122.485 218.616C121.051 223.436 120.266 228.523 120.201 233.539C118.963 233.408 118.44 231.974 118.249 230.737C115.703 216.594 116.226 201.862 119.748 187.85C116.88 192.937 114.53 198.215 112.704 203.689C113.227 187.589 118.379 171.69 127.37 158.261C126.067 158.85 124.764 159.434 123.461 160.022C126.721 153.894 130.565 148.159 134.932 142.75C137.211 140.013 141.448 137.211 143.863 139.882C141.775 142.096 139.626 144.249 137.342 146.332C140.406 143.53 144.773 142.161 148.879 142.75C143.928 144.838 139.561 148.355 136.497 152.787C139.561 150.05 143.601 148.355 147.707 148.093C143.405 150.443 139.752 154.156 137.473 158.523C141.186 155.132 146.011 153.049 150.967 152.526C145.297 156.37 139.168 160.802 137.277 167.388C141.644 162.105 147.837 158.327 154.549 156.893C151.098 159.63 147.772 162.498 144.642 165.627C148.356 164.389 152.074 163.152 155.787 161.975C149.855 165.758 144.97 171.036 141.578 177.164C147.183 172.208 153.115 167.65 159.309 163.474C157.221 166.085 155.072 168.691 152.984 171.363C156.828 168.037 162.242 166.669 167.193 167.71C160.154 169.929 154.026 175.076 150.574 181.662C155.721 177.229 161.719 173.904 168.174 171.946C164.39 174.945 161.13 178.598 158.589 182.769C163.479 178.402 169.411 175.207 175.731 173.511C169.477 178.925 163.152 184.333 156.894 189.742C163.349 186.678 169.864 183.614 176.385 180.484C164.717 192.871 152.466 206.36 149.855 223.175C156.506 210.924 164.39 199.387 173.517 188.831Z" fill="white"/>
</g>
</svg>
