<svg  viewBox="0 0 146 154" fill="none" xmlns="http://www.w3.org/2000/svg">
<mask id="mask0_919_3467" style="mask-type:luminance" maskUnits="userSpaceOnUse" x="45" y="17" width="66" height="104">
<path d="M45.3477 17.2969H110.393V120.337H45.3477V17.2969Z" fill="white"/>
</mask>
<g mask="url(#mask0_919_3467)">
<path d="M65.6207 57.4165C66.5709 55.0144 67.7439 52.7058 69.1225 50.5452C62.8837 57.0442 60.463 66.224 58.6014 75.0517C58.6747 67.8441 60.519 60.6753 63.9086 54.3258C62.9771 55.22 62.0456 56.094 61.1141 56.9881C62.6422 53.9722 64.7467 51.2712 67.2968 49.056C63.5536 49.5217 59.8678 50.4518 56.3474 51.849C58.1917 50.4331 60.0346 49.0373 61.8976 47.64C59.9972 47.7708 58.0609 47.5279 56.254 46.8954C57.036 46.6352 57.8007 46.3549 58.564 46.0947C56.9066 46.02 55.2491 45.7411 53.6665 45.2567C54.299 45.0152 54.9329 44.7535 55.5654 44.512C53.7599 44.3812 51.953 44.0089 50.2395 43.3951C51.3938 43.1708 52.5668 43.0961 53.7412 43.1335C51.8221 42.557 49.9045 41.9605 47.9869 41.384C48.7128 41.1785 49.4388 40.9557 50.1647 40.7501C48.6568 40.7688 47.1675 40.0055 46.3108 38.7577C46.9059 38.8138 47.5025 38.8512 48.0803 38.9072C46.962 37.5847 46.6644 35.611 47.353 34.0097C46.7578 34.5674 46.18 35.1453 45.6035 35.7045C46.2734 33.9723 47.1488 32.2962 48.2284 30.7695C47.5959 31.1232 46.962 31.4768 46.3481 31.8304C47.8374 28.1619 49.7924 24.6055 52.6789 21.8858C55.5467 19.1488 59.4208 17.3059 63.3868 17.4913C57.4097 18.7391 52.0838 22.7799 49.272 28.1993C50.3703 27.4173 51.4498 26.6353 52.5495 25.8533C51.4498 27.492 50.3703 29.1308 49.272 30.7508C49.8298 30.8069 50.3703 30.8428 50.9108 30.8802C48.2471 31.9799 47.6333 35.8525 49.2533 38.2546C50.8547 40.638 53.9266 41.6442 56.8131 41.719C55.7149 41.9605 54.6152 42.2034 53.517 42.4449C54.5606 43.1522 55.863 43.4497 57.1107 43.2643C56.9066 43.6179 56.7197 43.9902 56.5156 44.3438C57.036 44.8283 57.8553 44.3625 58.564 44.2691C59.2713 44.1771 59.9225 45.3688 59.1965 45.4062C61.1702 45.2567 63.1439 45.1258 65.119 44.9778C64.1875 45.5168 63.2747 46.0573 62.3432 46.5978C64.9882 46.0387 67.6131 45.4795 70.2581 44.9217C67.5211 46.1882 64.8013 47.4546 62.0643 48.7196C64.5038 48.366 66.9432 47.9937 69.364 47.64C69.9418 47.5653 70.6304 47.3798 70.7612 46.8207C71.319 44.456 72.883 42.3328 74.9688 41.085C70.4809 41.3093 66.0117 42.3515 61.8789 44.1397C65.1003 41.6629 69.1038 40.1909 73.182 39.9868C69.7363 39.6332 66.3107 39.2795 62.8837 38.9446C65.6207 38.3667 68.4698 38.3293 71.227 38.7764C67.2221 37.2498 62.9024 36.5598 58.6201 36.8027C60.2215 36.0394 62.027 35.6858 63.7965 35.8152C61.7107 35.4055 59.6436 34.9958 57.5578 34.6048C58.4706 34.0657 59.6249 33.991 60.5751 34.4007C60.7605 31.4955 63.1439 28.8878 66.0117 28.4408C64.429 28.3488 62.8463 28.2367 61.245 28.1432C65.4726 26.0013 70.6491 28.1432 74.355 31.0858C78.0608 34.0097 81.2449 37.8075 85.6206 39.6145C85.8449 36.1688 85.2857 32.6872 84.0193 29.5031C86.2546 32.5563 87.3155 36.4491 86.9618 40.2096C88.5445 38.5522 89.5508 36.3557 89.7736 34.0657C90.4435 36.393 89.7549 39.074 88.0601 40.8062C89.1957 42.4075 91.822 42.166 93.2552 40.8062C94.6898 39.465 95.2116 37.4352 95.6213 35.5176C95.64 36.7467 95.6573 37.9757 95.676 39.2235C96.5701 37.2311 97.4642 35.2574 98.3583 33.265C98.4518 36.0207 97.3521 38.7951 95.3971 40.7501C96.7943 40.4899 98.1901 40.247 99.6061 39.9868C101.133 39.7266 102.94 39.5397 104.019 40.6567C105.174 41.867 104.764 43.8235 104.41 45.4622C104.057 47.1182 104.075 49.2414 105.583 49.986C109.867 44.7722 110.015 36.5785 105.918 31.2166C108.711 33.4692 110.294 37.1003 110.277 40.7127C110.277 44.3065 108.73 47.8456 106.29 50.4892C105.267 51.5874 106.589 53.6545 105.583 54.7729C104.689 55.759 105.248 57.3604 106.03 58.4227C106.794 59.5023 107.819 60.6005 107.744 61.9417C107.482 66.7085 108.302 71.55 110.108 76.0005C109.587 75.5534 109.066 75.1265 108.526 74.6794C108.842 76.2434 109.158 77.8074 109.475 79.3714C108.954 78.5333 108.414 77.6953 107.892 76.8385C108.544 78.8309 108.432 81.0849 107.557 82.9838C107.613 81.532 107.501 80.0787 107.222 78.6455C107.072 81.3264 106.403 83.9901 105.248 86.4108C105.546 84.716 105.621 82.9838 105.508 81.2517C105.136 83.878 104.15 86.4109 102.678 88.626C103.181 86.8953 103.516 85.107 103.722 83.3188C102.79 86.1492 101.264 88.8129 99.2898 91.0281C100.276 89.1105 101.021 87.062 101.486 84.9575C100.369 87.4157 98.712 89.6323 96.6635 91.4191C97.6698 89.6136 98.6746 87.8253 99.6808 86.0385C98.5438 87.1555 97.4081 88.2911 96.2725 89.4267C98.1715 86.5589 99.7355 83.4683 100.929 80.2282C99.9223 81.4759 98.9348 82.7237 97.93 83.9714C99.3258 81.4198 100.313 78.6455 100.835 75.7777C96.5514 83.1894 94.0372 91.6247 93.5916 100.172C94.4843 99.781 95.3784 99.4087 96.2725 99.0177C97.4268 101.904 92.1943 104.51 93.4047 107.378C94.6525 110.358 92.7535 113.766 90.3328 115.907C86.6082 119.147 81.4677 120.692 76.5888 120.041C71.71 119.39 67.1488 116.541 64.429 112.425C64.7826 112.667 64.3916 113.301 63.9633 113.245C63.5176 113.207 63.2373 112.798 62.9958 112.444C62.083 111.065 61.1702 109.67 60.2775 108.291C60.4443 109.241 60.6125 110.19 60.7979 111.159C58.4332 108.961 57 105.814 56.8879 102.611C57.7073 104.306 58.508 106.001 59.3273 107.694C59.0657 106.521 59.0485 105.311 59.2526 104.138C59.8118 106.093 60.8726 107.919 62.2699 109.389C61.0955 106.912 60.3882 104.213 60.2028 101.476C61.8228 105.665 63.499 109.93 66.4027 113.338C69.3079 116.764 73.721 119.24 78.1715 118.645C74.0948 117.639 69.6802 116.429 67.1301 113.095C73.2006 116.67 80.7418 117.658 87.5383 115.778C83.3868 115.926 79.1591 115.796 75.2304 114.492C71.2816 113.17 67.6318 110.544 65.901 106.764C71.2083 111.773 78.564 114.548 85.8636 114.268C87.8933 114.193 90.0525 113.84 91.5431 112.463C93.0324 111.084 93.4421 108.403 91.9155 107.081C92.0635 108.216 91.2441 109.315 90.202 109.818C89.177 110.321 87.9853 110.377 86.831 110.358C82.7155 110.302 78.6186 109.614 74.7086 108.31C72.1196 107.453 69.5508 106.299 67.6505 104.344C66.1799 102.816 65.1736 100.879 64.4103 98.8869C61.8228 92.1652 61.7855 84.7721 61.7855 77.5659C61.0035 83.878 60.2401 90.19 59.4581 96.5035C58.9924 92.1278 58.9363 87.7147 59.3086 83.3375C58.5453 85.0136 57.782 86.671 57.0187 88.3472C58.0609 80.9915 61.0782 73.9161 65.6768 68.0683C67.9868 65.1445 70.7051 62.5009 73.9266 60.6379C80.7791 56.6905 89.3826 56.6345 96.9424 58.9805C100.648 60.1348 104.335 61.9791 106.627 65.1258C107.185 62.2019 105.918 59.13 103.851 56.9881C101.784 54.8462 99.0282 53.5065 96.1978 52.575C92.5853 51.3646 88.7673 50.7321 84.9508 50.6947C83.3868 50.6947 81.8041 50.768 80.3134 50.285C78.8428 49.8193 77.483 48.5902 77.3708 47.0449C77.2228 45.0152 79.3646 43.3764 81.3944 43.4138C83.4428 43.4325 85.267 44.6601 86.775 46.02C88.303 47.3798 89.6615 48.9438 91.4497 49.9487C94.6525 51.7556 98.9908 51.2712 101.729 48.813C102.734 50.3957 102.884 52.4815 102.102 54.1763C102.622 54.7355 103.331 55.0892 104.075 55.1826C105.211 54.3258 104.969 52.575 104.541 51.2151C103.982 49.4096 103.2 47.5279 101.655 46.4297C100.109 45.3314 97.6137 45.3875 96.6261 47.0075C95.3784 49.0186 92.1196 48.1618 90.5743 46.3923C89.0103 44.6055 88.1348 42.1847 86.1611 40.8809C83.8151 39.3169 80.667 39.8186 78.0235 40.8435C75.8816 41.6816 73.7584 42.9107 72.5106 44.8657C71.2816 46.802 71.1896 49.6324 72.8283 51.2712C72.2691 51.3646 71.71 50.8054 71.7847 50.2477C69.3826 52.3148 67.2968 54.7355 65.6207 57.4165ZM95.6573 74.6047C96.2165 74.5112 96.813 74.3991 97.3521 74.6047C97.8926 74.8088 98.321 75.424 98.1154 75.9458C97.7057 75.424 96.9424 75.2185 96.3286 75.4801C96.366 76.0939 97.0732 76.5036 97.7057 76.4475C98.321 76.3728 98.8615 75.9818 99.3631 75.6095C99.4379 75.5534 99.5313 75.4801 99.6061 75.424C98.768 75.5175 97.9113 74.9209 97.7431 74.1015C97.6324 73.6171 97.7244 73.114 97.5763 72.6497C97.4081 72.2026 96.7756 71.849 96.4407 72.2026C96.2725 73.0407 96.0123 73.8413 95.6573 74.6047ZM72.9016 89.7444C72.791 87.4717 72.456 84.8468 70.4996 83.6911C72.791 86.8953 71.1335 91.3832 72.0463 95.2184C72.157 95.7215 72.939 96.2433 73.0511 95.7215C72.8096 95.1437 72.8096 94.4925 73.0325 93.9146C73.3113 94.4364 73.5916 94.9582 73.8705 95.4613C74.9501 94.8835 76.0311 94.2869 77.1106 93.7105C77.3895 93.5423 77.7072 93.3942 78.0235 93.4316C78.5266 93.4862 78.8615 94.008 78.8802 94.5112C78.9176 95.0143 78.6933 95.4786 78.4892 95.9443C77.9861 97.0627 77.483 98.161 76.9798 99.2779C79.5501 100.619 82.3992 101.401 85.2857 101.551C82.9397 102.406 80.276 101.773 78.0795 100.582C77.3708 100.191 76.4034 99.7623 75.8442 100.34C78.0982 101.923 80.8165 102.816 83.5722 102.89C84.9321 102.928 86.4587 102.668 87.3155 101.605C88.5445 100.097 87.7999 97.8821 87.5756 95.9257C87.166 92.388 88.7314 88.6634 87.5756 85.2752C86.5148 82.1832 83.0331 80.1347 79.8103 80.7126C81.5611 84.0088 82.0456 87.9748 81.1328 91.5873C79.6809 88.9063 81.4303 85.2192 79.7743 82.6302C77.3708 81.197 74.5965 80.3777 71.7847 80.3029C74.1494 79.1486 77.2041 79.669 79.0656 81.5133C79.438 81.0849 78.9363 80.4323 78.4518 80.1347C75.4906 78.2545 71.227 78.8122 68.8421 81.3825C72.2318 82.2953 74.2802 86.5043 72.9016 89.7444ZM77.6138 63.0587C77.7618 65.0137 77.9113 66.9888 78.0608 68.9625C77.1854 67.9188 76.6636 66.5791 76.6075 65.2192C76.2165 65.741 76.4034 66.467 76.5888 67.0808C77.3162 69.2974 78.0235 71.5126 78.7494 73.7292C79.0096 74.0081 79.4006 73.5797 79.5314 73.2261C79.8103 72.4441 80.1093 71.6434 80.3881 70.8614C81.3944 68.087 82.4179 65.1632 81.9148 62.258C81.7854 61.4947 81.5238 60.7127 80.9847 60.1348C80.4442 59.577 79.5875 59.2608 78.8615 59.5397C78.2276 59.7812 77.8179 60.4151 77.6698 61.0663C77.5016 61.7002 77.5577 62.3888 77.6138 63.0587ZM70.7986 97.1001C70.4076 97.1547 69.8671 97.435 70.0353 97.7887C70.8719 97.5457 71.6913 97.3042 72.5293 97.0627C72.6601 97.0067 72.8283 96.9693 72.939 97.0627C73.238 97.2482 72.847 97.6765 72.5106 97.8074C71.71 98.1049 70.9093 98.4212 70.1086 98.7202C69.3826 98.999 68.6006 99.334 68.247 100.041C67.856 100.842 68.2657 101.904 69.0103 102.387C69.7736 102.89 70.7612 102.909 71.6366 102.668C72.492 102.406 73.2754 101.904 74.0387 101.42C74.5778 101.066 75.193 100.638 75.3051 99.9852C75.0435 100.153 74.6525 100.097 74.4484 99.8558C76.2726 98.4585 77.5764 96.3354 77.9861 94.0641C75.9003 95.6468 73.4048 96.7077 70.7986 97.1001ZM92.1943 59.0926C91.1335 59.0926 90.1833 59.8746 89.1411 59.7812C88.2096 59.7251 87.4463 58.9992 86.5335 58.8698C85.6767 58.739 84.82 59.1487 83.9632 59.3341C83.0878 59.521 82.1577 59.4836 81.3196 59.2234C82.0456 60.2843 82.6048 61.476 82.9397 62.7237C83.4788 61.5133 84.3355 60.3403 85.602 59.9493C86.8684 59.577 88.5071 60.3964 88.5445 61.7189C89.5134 60.8248 90.6864 60.0802 92.0075 60.0241C93.3113 59.9867 94.7085 60.8622 94.8753 62.1645C96.1417 60.9355 98.5251 61.1971 99.5126 62.6677C99.7915 63.0773 100.239 63.6552 100.667 63.3749C101.356 62.8732 102.38 63.339 102.79 64.0836C103.181 64.8282 103.144 65.7223 103.088 66.5791C103.666 65.9452 104.504 65.5355 105.36 65.4607C104.317 64.959 103.479 64.1023 103.013 63.04C102.53 61.9791 100.592 62.7611 99.8476 61.8296C99.0469 60.8248 97.6698 60.2843 96.3846 60.4712C94.9126 60.694 93.6836 59.1113 92.1943 59.0926ZM74.5778 105.833C73.3487 105.889 72.3813 104.381 72.9203 103.3C72.0463 103.356 71.1709 103.412 70.2955 103.468C69.755 103.506 69.1972 103.524 68.6941 103.319C67.9681 103.002 67.5398 102.202 67.4463 101.42C67.3342 100.638 67.5211 99.8558 67.6878 99.0738C67.2034 98.8495 66.7765 99.4835 66.7204 100.004C66.4588 102.071 68.0975 104.194 70.1646 104.454C71.5245 104.623 72.2878 106.28 73.629 106.559C74.2055 106.69 74.802 106.54 75.3785 106.634C76.6075 106.802 77.539 107.993 78.7681 108.05C79.4753 108.068 80.1653 107.713 80.8539 107.881C81.357 107.993 81.748 108.366 82.2325 108.533C82.6407 108.682 83.0691 108.682 83.4975 108.682C85.5459 108.682 87.5943 108.663 89.6428 108.663C89.5321 107.788 88.303 107.676 87.4276 107.807C86.5521 107.956 85.3044 107.788 85.267 106.912C84.7826 107.584 83.9071 107.937 83.0878 107.807C82.2871 107.659 81.5798 107.006 81.357 106.205C80.5563 106.69 79.6622 107.137 78.7307 107.043C77.7992 106.95 76.9065 106.038 77.1667 105.144C76.2726 105.088 75.4719 105.814 74.5778 105.833ZM104.019 75.9631C103.832 75.6842 103.907 75.3119 103.982 74.977C104.354 73.2074 104.745 71.458 105.136 69.6884C105.602 70.3022 105.508 71.1777 105.379 71.9597C105.248 72.8351 105.099 73.7292 104.969 74.6047C106.365 72.2213 106.421 69.1292 105.117 66.6898C104.913 66.3175 104.317 66.467 104.001 66.7645C103.032 67.64 102.921 69.0918 102.994 70.377C103.088 71.6621 103.275 73.022 102.734 74.195C102.53 74.1389 102.306 74.0642 102.102 73.9894C101.952 75.759 101.803 77.5098 101.655 79.2593C101.636 79.5396 101.636 79.8558 101.84 80.0053C102.659 78.9804 103.368 77.8635 103.944 76.6905C104.057 76.4475 104.15 76.1687 104.019 75.9631ZM71.5619 63.73C70.6117 64.3812 69.5882 65.1445 69.3079 66.2801C69.1225 67.0434 69.3266 67.8441 69.5882 68.5902C69.6256 68.7008 69.6802 68.813 69.7736 68.9064C70.146 69.2227 70.6304 68.6088 70.6678 68.1057C71.2816 68.1244 71.71 68.7195 72.2878 68.9625C73.238 69.3908 74.411 68.6275 74.6899 67.64C74.9875 66.6337 74.6151 65.5355 74.02 64.6787C73.4608 63.878 72.3626 63.1521 71.5619 63.73ZM94.0013 64.8843C94.7459 63.6178 94.1867 61.7548 92.8455 61.1597C91.5058 60.5445 89.7362 61.3452 89.2891 62.7424C89.177 63.04 89.1411 63.3749 89.1037 63.7113C89.085 63.9154 89.0476 64.1397 89.1583 64.3251C89.3265 64.6413 89.7549 64.6974 90.1272 64.7161C91.4123 64.7722 92.7161 64.8282 94.0013 64.8843ZM84.4476 64.1943C84.2061 63.8967 83.9445 63.5992 83.703 63.3016C83.6656 64.0649 83.8151 64.8282 84.1501 65.5168C84.2622 65.741 84.4103 65.9825 84.6532 66.0386C85.1736 66.1694 85.4726 65.4233 85.9556 65.1818C86.4213 64.959 87.0179 65.2379 87.5196 65.051C88.1909 64.7908 88.2656 63.878 88.2283 63.1521C88.1909 62.6303 88.1535 62.0912 87.8186 61.6815C87.3341 61.085 86.44 61.0476 85.6767 61.1971C85.2296 61.2905 84.7639 61.4386 84.5598 61.8296C84.2061 62.5555 84.9881 63.5805 84.4476 64.1943ZM64.8761 95.3866C65.063 94.5859 65.5833 93.8585 66.3107 93.4488C66.236 92.835 65.454 92.5188 64.8948 92.7603C64.337 93.0219 64.038 93.6544 64.0193 94.2682C63.982 94.8835 64.1875 95.4613 64.3916 96.0378C64.6159 96.6904 64.8574 97.3416 65.0816 97.9928C65.1564 98.217 65.2671 98.4772 65.4726 98.5893C65.8636 98.7561 66.2546 98.4025 66.5335 98.0862C67.1488 97.3416 67.7813 96.5783 68.4138 95.8337C68.6567 95.516 68.9356 95.1623 68.8608 94.7527C68.7875 94.251 68.1536 94.008 67.6318 94.1202C67.1301 94.2323 66.7204 94.5859 66.3107 94.8835C65.901 95.1997 65.3979 95.4613 64.8761 95.3866ZM73.3487 35.4428C72.5854 34.8477 71.5619 34.4754 70.6678 34.8103C69.9792 35.0518 69.4761 35.6858 69.364 36.393C71.618 36.9882 73.721 38.1798 75.4158 39.7999C75.4719 38.1252 74.6899 36.4491 73.3487 35.4428ZM88.8421 107.062C89.2518 107.694 90.2206 107.713 90.8531 107.285C91.4871 106.875 91.8407 106.168 92.157 105.479C91.3936 105.721 90.6864 106.112 90.0898 106.634C90.1272 105.721 90.984 105.088 91.7286 104.548C93.3113 103.356 94.6898 101.867 95.732 100.191C94.411 100.357 93.3113 101.252 92.2878 102.108C91.822 102.499 91.375 102.872 90.9279 103.263C90.4808 103.616 90.0151 104.063 89.9777 104.623C89.9231 105.535 89.5134 106.429 88.8421 107.062ZM66.1612 71.3458C66.384 70.8801 66.627 70.3022 66.3107 69.8925C63.7965 72.4628 63.3308 76.3182 62.9958 79.8745C62.8837 81.0288 62.7716 82.2205 63.2 83.2814C63.4803 81.7361 63.7405 80.1721 64.0193 78.6268C64.1875 77.5846 64.373 76.5597 64.6346 75.5362C64.9882 74.0828 65.51 72.687 66.1612 71.3458ZM99.0282 63.3016C98.6372 62.4635 97.5016 62.3701 96.5888 62.4075C96.3286 62.4262 96.0497 62.4262 95.8068 62.5383C94.9687 62.9652 95.2116 64.1943 95.0621 65.1258C96.4594 64.6974 98.0967 65.1445 99.0843 66.224C99.1216 65.6102 99.159 64.9777 99.1777 64.3625C99.1964 63.9902 99.1964 63.6178 99.0282 63.3016ZM98.4891 72.5562C98.4705 72.9846 98.377 73.4317 98.4705 73.86C98.5438 74.3071 98.8428 74.7355 99.2711 74.7901C99.2338 74.2137 99.1964 73.6358 99.1403 73.0407C99.4566 73.0967 99.6621 73.3756 99.8102 73.6732C99.941 73.952 100.053 74.2697 100.313 74.4552C100.592 74.6233 101.039 74.5299 101.077 74.2323C101.282 72.6123 101.282 70.9922 101.058 69.3722C100.482 69.5576 100.369 70.3209 100.369 70.9362C100.351 71.55 100.201 72.3133 99.6061 72.4441C99.3631 71.3085 99.5313 70.0981 100.091 69.0918C99.3631 68.9998 98.7493 69.6697 98.5811 70.377C98.4144 71.0842 98.5251 71.8303 98.4891 72.5562ZM93.721 89.7818C94.2801 88.1243 94.8379 86.4669 95.3971 84.7908C95.6946 83.9153 95.9936 83.0212 96.4033 82.1832C96.8863 81.2344 97.4829 80.3216 97.8365 79.3153C97.595 79.0925 97.2227 79.3714 97.0171 79.6316C94.802 82.5181 93.6275 86.1679 93.721 89.7818ZM101.933 64.4746C101.58 64.1397 100.965 64.1023 100.536 64.3438C100.091 64.604 99.8476 65.1258 99.8476 65.6289C99.8663 66.2988 100.276 66.8953 100.686 67.4344C101.095 67.9936 101.505 68.5341 101.915 69.0732C102.156 68.1057 102.324 67.0995 102.362 66.076C102.399 65.5168 102.362 64.8656 101.933 64.4746ZM92.5853 45.6663C93.0137 45.4982 93.4234 45.294 93.7957 45.0525C92.7909 44.4373 91.5431 44.2332 90.3874 44.4747C91.1335 45.238 91.8968 46.0013 92.6414 46.7646C93.1632 47.2864 94.0013 47.3425 94.6898 47.0823C95.3784 46.8207 95.9189 46.3175 96.4594 45.8158C95.4345 44.9591 93.7023 46.3923 92.5853 45.6663ZM77.8553 103.654C77.93 103.431 77.6511 103.225 77.4269 103.244C77.1854 103.263 76.9611 103.393 76.7196 103.431C76.2352 103.543 75.6961 103.189 75.584 102.705C75.4345 102.09 74.4858 102.052 74.0574 102.518C73.629 102.984 73.6103 103.672 73.6103 104.306C74.9875 104.995 76.757 104.716 77.8553 103.654ZM93.0885 79.8558C93.5916 80.2095 94.2988 79.5209 94.1493 78.9243C93.9826 78.3479 93.33 78.0302 92.7348 77.9756C92.3251 77.9382 91.8594 77.9569 91.5978 77.6579C91.2441 77.2295 91.4684 76.3728 90.9279 76.2247C90.8345 77.0067 90.593 77.7887 90.2206 78.496C90.7971 78.496 91.3936 78.496 91.9341 78.6828C92.4732 78.8683 92.9763 79.278 93.0885 79.8558ZM90.8345 101.214C91.3189 100.823 91.7286 100.135 91.3936 99.6315C91.2255 99.39 90.9466 99.2779 90.6677 99.2405C89.4947 99.1298 88.7127 100.414 88.2283 101.513C88.0601 101.904 87.8933 102.295 87.7251 102.686C88.638 101.923 89.5508 101.177 90.4621 100.414C90.5182 100.713 90.649 100.991 90.8345 101.214ZM82.7715 105.014C82.2684 105.107 82.1016 105.87 82.4366 106.28C82.7528 106.69 83.3494 106.802 83.8698 106.727C84.7826 106.615 85.6393 106.02 86.049 105.2C85.5459 105.014 84.9695 105.051 84.5037 105.311C83.9819 105.61 83.3681 104.883 82.7715 105.014ZM89.8483 79.0365C89.9777 78.161 90.0898 77.2856 90.2206 76.4102C89.6801 76.932 89.1224 77.5285 89.0103 78.2732C88.8981 79.0178 89.4573 79.8932 90.202 79.7998C90.6864 79.7437 91.0961 80.1347 91.4871 80.3963C91.8968 80.6565 92.5666 80.7313 92.7535 80.2842C91.9902 79.5209 90.9279 79.0738 89.8483 79.0365ZM75.5093 62.8358C74.7273 62.7985 73.9266 62.7611 73.1446 62.7424C73.9826 63.431 74.8394 64.121 75.6775 64.8095C76.0311 63.5244 76.366 62.2206 76.6823 60.8995C75.975 61.2718 75.5093 62.0352 75.5093 62.8358ZM77.9674 104.492C77.7805 104.92 77.9861 105.442 78.3771 105.702C78.7494 105.982 79.2338 106.038 79.6996 105.982C80.519 105.889 81.2823 105.479 81.8041 104.864C81.6172 104.548 81.1701 104.529 80.8165 104.641C80.4629 104.735 80.0906 104.92 79.737 104.845C79.4006 104.772 79.1591 104.51 78.8428 104.344C78.5453 104.175 78.0795 104.175 77.9674 104.492ZM63.6283 92.2945C64.4103 92.0717 65.1736 91.8475 65.9384 91.6247C66.0491 91.5873 66.1799 91.5499 66.2733 91.4752C66.4961 91.271 66.4027 90.8613 66.1612 90.6932C65.9197 90.5264 65.5646 90.5638 65.2858 90.6745C64.6533 90.9548 63.7965 90.6184 63.5349 89.9485C63.3495 90.7305 63.3868 91.5499 63.6283 92.2945ZM93.1819 76.3555C94.1493 76.1313 95.2303 76.5223 95.8441 77.3043C95.975 77.4912 96.1417 77.7327 96.3846 77.714C96.6635 77.714 96.813 77.379 96.8691 77.1188C96.422 76.2995 95.4905 75.7963 94.559 75.8711C93.9078 75.9085 94.168 74.5299 93.5355 74.3617C93.4234 75.0143 93.2926 75.6842 93.1819 76.3555ZM95.7881 78.0115C94.8566 77.3043 93.721 76.8759 92.548 76.8198C92.7722 76.0565 93.0137 75.2932 93.2365 74.5112C93.0324 74.1763 92.5293 74.5673 92.3625 74.9209C92.157 75.3493 91.9528 75.7963 91.9715 76.2621C92.0075 76.7278 92.3625 77.2295 92.8268 77.2108C93.7023 77.1922 94.5403 77.8448 94.7459 78.6828C95.0808 78.4586 95.4345 78.2358 95.7881 78.0115ZM95.3036 44.6055C96.0497 44.8096 96.8317 45.0152 97.595 44.8843C98.0967 44.7909 98.5811 44.5494 98.8615 44.121C97.8365 43.2643 96.067 43.4871 95.3036 44.6055ZM86.4026 106.894C87.613 107.043 88.8608 106.168 89.1224 104.976C88.7314 105.219 88.247 105.255 87.7812 105.292C87.3341 105.33 86.831 105.386 86.4961 105.683C86.1425 106.001 86.049 106.615 86.4026 106.894ZM95.3971 75.2372C94.9313 74.586 95.64 73.7292 95.6213 72.9285C95.6213 72.687 95.5279 72.4441 95.3223 72.332C94.6338 73.2448 94.4656 74.4738 94.8566 75.5362C95.0435 75.4427 95.2116 75.3493 95.3971 75.2372ZM89.3826 96.262C89.177 96.3167 88.9729 96.354 88.7673 96.3914C88.8047 95.871 88.694 95.3305 88.4511 94.8648C88.3576 94.9956 88.339 95.1623 88.3217 95.3305C88.303 95.7589 88.3217 96.2247 88.5071 96.597C88.694 96.988 89.1037 97.3042 89.5508 97.2482C89.9777 97.2108 90.3328 96.7077 90.1272 96.3167C89.9231 96.1499 89.6241 96.0938 89.3639 96.1873M88.5819 103.654C89.4947 103.096 90.4061 102.555 91.3376 102.015C90.1833 101.811 88.9542 102.537 88.5819 103.654ZM64.672 89.3893C64.4664 88.9983 64.038 88.7195 63.591 88.7008C63.5723 89.3347 64.0006 89.9672 64.6159 90.19C64.9135 90.1167 64.8387 89.651 64.6906 89.3893M88.8795 98.7015C88.8981 98.8495 88.9355 98.999 88.9542 99.1471C89.177 98.999 89.4013 98.8308 89.6241 98.6828C89.8483 98.2918 89.3639 97.8447 88.9542 97.6765C88.9168 98.0115 88.8981 98.3651 88.8795 98.7015Z" fill="#050505"/>
</g>
<path d="M91.597 63.9714C91.9521 63.8967 92.3244 64.1209 92.4538 64.4559C92.0441 64.5306 91.6344 64.568 91.2247 64.5306C91.0766 64.2877 91.3181 63.9154 91.597 63.9714Z" fill="#050505"/>
<path d="M70.5938 65.5156C71.2091 66.2603 71.8229 67.0063 72.4381 67.7509C72.5488 67.899 72.5488 68.1233 72.4195 68.2713C71.8416 68.0111 71.2465 67.7323 70.8368 67.2665C70.4084 66.7821 70.2402 66.0374 70.5938 65.5156Z" fill="#050505"/>
<path d="M69.0117 100.784C70.6318 100.505 72.1958 99.8542 73.5183 98.8667C73.7224 98.7186 74.0588 98.7358 74.2442 98.9227C73.5743 99.7234 72.8843 100.561 71.9356 101.027C71.0041 101.493 69.775 101.512 69.0117 100.784Z" fill="#050505"/>
<path d="M81.2255 64.9582C81.0387 66.2419 80.7411 67.4896 80.3501 68.7187C80.2006 69.1284 80.0152 69.5941 79.6055 69.7623C79.9965 67.5457 80.4622 65.3492 80.9653 63.1699C81.375 63.6544 81.319 64.3429 81.2255 64.9582Z" fill="#050505"/>
<path d="M86.2186 84.8079C85.4913 84.0072 84.5051 83.4293 83.4443 83.1878C82.8664 83.057 82.2511 83.0196 81.7308 82.7594C81.1903 82.4978 80.7432 81.9587 80.8366 81.3809C83.1266 81.549 85.3058 82.7034 86.7203 84.4916C86.6096 84.6584 86.4228 84.7705 86.2186 84.8079Z" fill="#050505"/>
<path d="M73.4983 49.612C73.6851 50.1899 73.964 50.8411 73.6664 51.3816C72.6976 50.2273 72.2131 48.6819 72.3626 47.1726C72.5107 45.6646 73.2927 44.2314 74.4671 43.2812C74.8581 43.5601 74.5591 44.1567 74.2803 44.5477C73.2568 45.9809 72.9578 47.9172 73.4983 49.612Z" fill="#050505"/>
<path d="M73.0517 52.332C73.1825 52.5175 73.3119 52.7043 73.4427 52.8898C72.1762 54.9008 71.3382 57.1735 71.0032 59.5382C70.8724 60.4884 70.7431 61.568 69.9611 62.1444C67.8379 63.6912 65.9749 65.6275 64.523 67.8067C64.2067 67.4157 64.4109 66.8378 64.6164 66.3721C66.0122 63.2628 67.3908 60.152 68.7881 57.024C68.8987 57.3029 69.0109 57.5645 69.1417 57.8434C70.3147 55.9258 71.6372 54.0815 73.0517 52.332Z" fill="#050505"/>
<path d="M91.5427 26.8756C92.25 25.6652 92.9759 24.4736 93.6832 23.2632C93.5164 24.6044 93.3295 25.9269 93.1628 27.2479C94.5773 26.3912 95.7503 25.1075 96.4762 23.5981C96.6818 24.9019 96.1787 26.2992 95.1925 27.1559C95.9372 26.9317 96.6444 26.522 97.2223 26.0002C96.9607 27.0438 96.216 27.9566 95.2472 28.4209C97.5946 28.086 100.257 27.8445 102.139 29.3337C99.4188 28.9801 96.6257 29.167 93.9822 29.8742C94.8015 30.5441 95.2299 31.6424 95.0804 32.686C93.5538 30.2652 90.8714 28.6265 88.0223 28.385C88.7856 29.0736 89.2327 30.0971 89.2514 31.122C84.6887 25.9628 79.1026 21.7179 72.9199 18.7192C73.2376 18.1802 74.0383 18.3469 74.6147 18.6086C77.6694 20.0044 80.5372 21.7739 83.1434 23.8971C83.1434 23.394 83.1434 22.9096 83.1434 22.4064C83.8147 23.3006 84.4846 24.176 85.1545 25.0514C85.3414 24.3801 85.36 23.6729 85.2105 22.9843C85.8445 23.5794 86.1981 24.4362 86.1981 25.3116C86.924 24.9767 86.7372 23.8971 86.4022 23.1697C86.0673 22.4438 85.751 21.439 86.4022 20.9546C87.0549 22.5933 87.7247 24.2321 88.3946 25.8708C88.7856 23.7663 88.823 21.6057 88.5254 19.4826C89.8479 21.531 90.4617 24.0078 90.2576 26.4286C90.834 25.6839 91.2624 24.8272 91.5054 23.9144C91.524 24.9019 91.524 25.8895 91.5427 26.8756Z" fill="#050505"/>
<mask id="mask1_919_3467" style="mask-type:luminance" maskUnits="userSpaceOnUse" x="36" y="39" width="29" height="38">
<path d="M36.7012 39.375H64.4837V76.175H36.7012V39.375Z" fill="white"/>
</mask>
<g mask="url(#mask1_919_3467)">
<path d="M54.0762 53.9499C53.8707 55.0668 53.461 56.1277 52.8845 57.0965C54.0762 55.4017 55.4534 53.8377 56.9627 52.4218C56.7572 53.0557 56.5344 53.6882 56.3101 54.3409C57.0188 53.6322 57.726 52.9249 58.4333 52.2177C58.3585 52.7021 58.3025 53.2038 58.2464 53.7069C59.1966 52.9623 60.1468 52.2177 61.0956 51.473C61.0956 51.9201 61.0783 52.3672 61.0783 52.8128C62.0457 51.8827 63.2001 51.174 64.4665 50.7284C62.6423 52.9997 60.8167 55.2709 59.0112 57.5249C59.2901 56.3519 59.681 55.2163 60.1842 54.1166C57.726 56.6121 55.7524 59.5734 54.3738 62.8135C54.6714 60.765 55.2679 58.7727 56.106 56.891C53.5357 60.3554 52.3254 64.619 51.171 68.7719C51.171 66.5941 51.4499 64.4149 52.0278 62.3104C50.389 65.5318 49.2721 68.9962 48.7316 72.5712C48.3593 71.5089 48.1911 70.3546 48.2845 69.2377C47.987 71.23 47.7067 73.2037 47.4278 75.1961C47.2237 73.576 47.0181 71.956 46.8327 70.3359C46.4963 72.1989 46.3109 74.1165 46.2922 76.0155C45.7143 74.9546 45.4541 73.7442 45.5289 72.5339C45.4167 73.428 45.1192 74.3034 44.6534 75.1041C44.7469 72.9062 44.5039 70.6895 43.9462 68.5678C43.7967 70.6162 43.6659 72.646 43.5178 74.6944C42.8465 72.2737 42.5302 69.7782 42.5489 67.2827C42.214 69.275 41.8977 71.2861 41.58 73.2972C41.3012 71.1179 41.2451 68.9027 41.4133 66.7235C41.1157 68.1768 40.8354 69.6287 40.5565 71.0992C39.924 68.2501 39.569 65.365 39.4957 62.4599C39.086 63.837 38.8617 65.2903 38.843 66.7235C38.4894 66.6861 38.3399 66.2764 38.2853 65.9228C37.5579 61.882 37.7074 57.673 38.7137 53.6695C37.8943 55.1229 37.223 56.6308 36.7012 58.1948C36.8507 53.5948 38.3227 49.0523 40.8915 45.2156C40.5192 45.3838 40.1469 45.5505 39.7745 45.7187C40.706 43.9679 41.8043 42.3291 43.052 40.7838C43.7032 40.0018 44.9136 39.2011 45.6036 39.9644C45.007 40.5969 44.3932 41.2122 43.7406 41.8073C44.616 41.0066 45.8638 40.6156 47.0368 40.7838C45.6223 41.3804 44.3745 42.3852 43.4991 43.6516C44.3745 42.8696 45.5289 42.3852 46.7019 42.3104C45.4728 42.9817 44.4292 44.0426 43.778 45.2904C44.8389 44.3215 46.2174 43.7264 47.6334 43.5769C46.0133 44.6751 44.2624 45.9415 43.7219 47.8232C44.9697 46.3139 46.7392 45.2343 48.6569 44.8246C47.6707 45.6066 46.7205 46.426 45.8264 47.3201C46.8873 46.9665 47.9496 46.6129 49.0105 46.2765C47.3157 47.3575 45.9199 48.8654 44.951 50.6163C46.5524 49.2004 48.2472 47.898 50.0167 46.7049C49.4202 47.4509 48.8064 48.1955 48.2098 48.9589C49.308 48.0087 50.8548 47.6177 52.2693 47.9152C50.2582 48.5492 48.5074 50.0197 47.5212 51.9014C48.9918 50.635 50.7053 49.6848 52.5496 49.1256C51.4686 49.9824 50.5371 51.026 49.8112 52.2177C51.2084 50.9699 52.9032 50.0571 54.7087 49.5727C52.9219 51.1194 51.115 52.6647 49.3267 54.21C51.171 53.3346 53.0326 52.4592 54.8956 51.565C51.562 55.1042 48.0617 58.9581 47.3157 63.7622C49.216 60.2619 51.4686 56.9657 54.0762 53.9499Z" fill="#050505"/>
</g>
<g style="mix-blend-mode:difference">
<path d="M138.325 153.965L145.5 116H7.97348L0.5 153.965H138.325Z" fill="white"/>
<path d="M23.3083 146.54C22.122 146.54 20.9887 146.371 19.9083 146.032C18.8279 145.714 17.8959 145.216 17.1121 144.538C16.3494 143.86 15.8092 143.002 15.4915 141.964C15.1737 140.905 15.1843 139.645 15.5233 138.183H21.084C20.9146 139.073 20.9781 139.804 21.2747 140.376C21.5713 140.948 22.0055 141.371 22.5775 141.647C23.1495 141.922 23.7638 142.06 24.4205 142.06C24.7594 142.06 25.1937 142.007 25.7233 141.901C26.2741 141.774 26.7825 141.562 27.2485 141.265C27.7146 140.969 27.99 140.566 28.0747 140.058C28.1594 139.634 28.0959 139.295 27.884 139.041C27.6722 138.766 27.3439 138.543 26.899 138.374C26.4753 138.183 25.9563 138.014 25.342 137.865C24.7277 137.696 24.0604 137.516 23.3401 137.325C22.641 137.135 21.9102 136.912 21.1476 136.658C20.4061 136.383 19.7283 136.012 19.1139 135.546C18.5208 135.08 18.0759 134.465 17.7793 133.703C17.4828 132.94 17.451 131.966 17.684 130.779C17.917 129.635 18.3513 128.65 18.9868 127.824C19.6435 126.977 20.4379 126.278 21.37 125.727C22.3021 125.155 23.2871 124.742 24.3252 124.488C25.3632 124.212 26.3694 124.075 27.3439 124.075C28.4878 124.075 29.5682 124.212 30.585 124.488C31.6018 124.763 32.4809 125.208 33.2224 125.822C33.9638 126.416 34.4934 127.199 34.8112 128.174C35.1289 129.148 35.1395 130.324 34.8429 131.701H29.5046C29.6529 130.515 29.4728 129.71 28.9644 129.286C28.456 128.862 27.651 128.65 26.5495 128.65C26.2529 128.65 25.8822 128.714 25.4373 128.841C24.9924 128.947 24.5794 129.138 24.1981 129.413C23.8379 129.667 23.6155 130.017 23.5308 130.462C23.4672 130.779 23.5202 131.044 23.6896 131.256C23.8803 131.447 24.1663 131.616 24.5476 131.764C24.9289 131.913 25.3844 132.05 25.9139 132.178C26.4647 132.283 27.0579 132.411 27.6934 132.559C28.4984 132.749 29.314 132.993 30.1401 133.29C30.9875 133.565 31.7395 133.946 32.3962 134.434C33.0741 134.921 33.5719 135.567 33.8897 136.372C34.2074 137.156 34.2392 138.162 33.985 139.391C33.7308 140.704 33.2436 141.816 32.5233 142.727C31.8242 143.638 30.9663 144.379 29.9495 144.951C28.9538 145.502 27.884 145.905 26.7401 146.159C25.5962 146.413 24.4523 146.54 23.3083 146.54ZM35.4916 146L39.686 124.392H53.3814L52.3963 129.477H44.3253L43.7215 132.622H51.4748L50.4898 137.675H42.7365L42.101 140.916H50.172L49.187 146H35.4916ZM52.2484 146L56.4428 124.392H62.4802L66.2297 137.071L68.6765 124.392H74.269L70.0746 146H64.0372L60.3194 133.353L57.8727 146H52.2484ZM73.5667 146L77.7611 124.392H85.7051C87.2515 124.392 88.6073 124.678 89.7724 125.25C90.9587 125.801 91.9331 126.574 92.6957 127.57C93.4584 128.566 93.9774 129.72 94.2528 131.034C94.5281 132.326 94.5175 133.713 94.221 135.196C93.9244 136.721 93.3842 138.141 92.6004 139.454C91.8166 140.746 90.8527 141.89 89.7088 142.886C88.5649 143.86 87.2939 144.623 85.8957 145.174C84.4976 145.725 83.0359 146 81.5107 146H73.5667ZM80.0807 140.884H82.0826C83.163 140.884 84.148 140.63 85.0378 140.121C85.9275 139.592 86.6689 138.903 87.2621 138.056C87.8764 137.188 88.2789 136.234 88.4696 135.196C88.6814 134.158 88.6496 133.216 88.3742 132.368C88.12 131.5 87.654 130.811 86.9761 130.303C86.2982 129.794 85.4085 129.54 84.3069 129.54H82.3051L80.0807 140.884ZM97.1508 145.364L101.123 125.028H106.747L102.775 145.364H97.1508ZM94.4181 146L95.4667 140.916H106.27L105.222 146H94.4181ZM97.6274 129.477L98.6125 124.392H109.416L108.431 129.477H97.6274ZM114.095 146.032L117.304 129.477H110.822L111.807 124.424H130.364L129.379 129.477H122.897L119.688 146.032H114.095Z" fill="#050505"/>
</g>
</svg>
