<svg width="508" height="539" viewBox="0 0 508 539" fill="none" xmlns="http://www.w3.org/2000/svg">
<mask id="mask0_1372_10670" style="mask-type:luminance" maskUnits="userSpaceOnUse" x="156" y="60" width="229" height="362">
<path d="M156.967 60.5356H384.626V421.176H156.967V60.5356Z" fill="white"/>
</mask>
<g mask="url(#mask0_1372_10670)">
<path d="M227.922 200.954C231.248 192.547 235.354 184.467 240.179 176.905C218.343 199.651 209.87 231.781 203.355 262.678C203.611 237.451 210.067 212.36 221.93 190.137C218.67 193.266 215.41 196.325 212.149 199.455C217.498 188.899 224.863 179.446 233.789 171.692C220.688 173.323 207.787 176.578 195.466 181.468C201.921 176.512 208.371 171.627 214.892 166.737C208.24 167.195 201.463 166.344 195.139 164.131C197.876 163.22 200.552 162.239 203.224 161.328C197.423 161.066 191.622 160.09 186.083 158.395C188.296 157.55 190.515 156.634 192.729 155.789C186.41 155.331 180.085 154.028 174.088 151.879C178.128 151.095 182.234 150.833 186.344 150.964C179.627 148.946 172.916 146.858 166.204 144.841C168.745 144.121 171.286 143.341 173.826 142.622C168.549 142.687 163.336 140.016 160.338 135.649C162.421 135.845 164.509 135.976 166.531 136.172C162.617 131.543 161.575 124.635 163.985 119.03C161.902 120.982 159.88 123.005 157.862 124.962C160.207 118.9 163.271 113.033 167.049 107.69C164.836 108.928 162.617 110.165 160.468 111.403C165.681 98.5632 172.523 86.1159 182.626 76.5968C192.663 67.0173 206.223 60.5672 220.104 61.2163C199.184 65.5834 180.543 79.7262 170.702 98.6941C174.546 95.9571 178.324 93.2201 182.173 90.4831C178.324 96.2187 174.546 101.954 170.702 107.625C172.654 107.821 174.546 107.947 176.438 108.077C167.115 111.926 164.966 125.48 170.637 133.888C176.241 142.229 186.993 145.751 197.096 146.013C193.252 146.858 189.403 147.709 185.559 148.554C189.212 151.029 193.77 152.071 198.137 151.422C197.423 152.659 196.769 153.962 196.055 155.2C197.876 156.896 200.744 155.265 203.224 154.938C205.699 154.616 207.979 158.787 205.438 158.918C212.346 158.395 219.254 157.937 226.167 157.419C222.906 159.306 219.711 161.197 216.451 163.089C225.709 161.132 234.896 159.175 244.153 157.223C234.574 161.655 225.055 166.088 215.475 170.515C224.013 169.277 232.551 167.974 241.024 166.737C243.046 166.475 245.456 165.826 245.914 163.869C247.866 155.592 253.34 148.161 260.641 143.794C244.933 144.579 229.291 148.227 214.826 154.486C226.101 145.817 240.113 140.665 254.387 139.95C242.327 138.713 230.337 137.475 218.343 136.303C227.922 134.28 237.894 134.149 247.544 135.714C233.527 130.371 218.408 127.956 203.42 128.806C209.025 126.134 215.344 124.897 221.538 125.35C214.237 123.916 207.003 122.482 199.702 121.113C202.897 119.227 206.937 118.965 210.263 120.399C210.912 110.231 219.254 101.104 229.291 99.5393C223.752 99.2173 218.212 98.8249 212.607 98.4978C227.404 91.0013 245.522 98.4978 258.492 108.797C271.463 119.03 282.607 132.323 297.922 138.647C298.707 126.587 296.75 114.402 292.317 103.257C300.141 113.944 303.854 127.568 302.616 140.73C308.156 134.929 311.678 127.241 312.458 119.227C314.802 127.372 312.392 136.755 306.46 142.818C310.435 148.423 319.627 147.578 324.643 142.818C329.664 138.124 331.491 131.02 332.925 124.308C332.99 128.61 333.05 132.912 333.116 137.279C336.245 130.305 339.375 123.397 342.504 116.424C342.831 126.069 338.982 135.779 332.14 142.622C337.03 141.711 341.916 140.861 346.871 139.95C352.214 139.04 358.539 138.386 362.317 142.295C366.357 146.531 364.923 153.379 363.686 159.114C362.448 164.91 362.513 172.342 367.791 174.948C382.784 156.699 383.303 128.021 368.964 109.255C378.739 117.139 384.279 129.848 384.218 142.491C384.218 155.069 378.805 167.456 370.267 176.709C366.684 180.553 371.313 187.787 367.791 191.702C364.662 195.153 366.619 200.758 369.356 204.476C372.028 208.255 375.615 212.098 375.353 216.793C374.438 233.476 377.305 250.421 383.63 265.998C381.803 264.434 379.982 262.939 378.09 261.375C379.197 266.849 380.304 272.323 381.411 277.797C379.59 274.863 377.698 271.93 375.871 268.931C378.156 275.905 377.763 283.794 374.699 290.44C374.895 285.358 374.503 280.272 373.527 275.256C373.004 284.639 370.659 293.962 366.619 302.435C367.66 296.503 367.922 290.44 367.53 284.377C366.227 293.569 362.775 302.435 357.623 310.188C359.384 304.13 360.556 297.871 361.276 291.612C358.016 301.519 352.672 310.842 345.764 318.595C349.216 311.883 351.822 304.714 353.452 297.348C349.543 305.951 343.742 313.71 336.572 319.963C340.094 313.644 343.611 307.385 347.133 301.131C343.153 305.041 339.179 309.015 335.204 312.99C341.85 302.953 347.324 292.136 351.5 280.795C347.978 285.162 344.522 289.529 341.005 293.897C345.89 284.966 349.347 275.256 351.173 265.218C336.18 291.16 327.38 320.683 325.821 350.599C328.945 349.23 332.074 347.927 335.204 346.559C339.244 356.661 320.93 365.783 325.166 375.82C329.534 386.25 322.887 398.179 314.415 405.671C301.379 417.011 283.387 422.42 266.311 420.141C249.235 417.861 233.271 407.89 223.752 393.485C224.989 394.33 223.621 396.549 222.121 396.353C220.562 396.222 219.581 394.788 218.735 393.55C215.541 388.726 212.346 383.84 209.221 379.015C209.805 382.341 210.394 385.661 211.043 389.053C202.766 381.36 197.75 370.346 197.358 359.137C200.225 365.069 203.028 371 205.896 376.927C204.98 372.822 204.92 368.585 205.634 364.48C207.591 371.322 211.304 377.712 216.195 382.859C212.084 374.19 209.609 364.742 208.96 355.162C214.63 369.823 220.496 384.751 230.659 396.68C240.828 408.669 256.274 417.338 271.85 415.255C257.582 411.733 242.131 407.497 233.205 395.83C254.452 408.342 280.846 411.799 304.634 405.218C290.104 405.736 275.307 405.283 261.556 400.72C247.736 396.091 234.961 386.899 228.904 373.672C247.479 391.201 273.224 400.916 298.773 399.935C305.877 399.674 313.434 398.436 318.651 393.616C323.863 388.791 325.297 379.408 319.954 374.779C320.472 378.754 317.605 382.597 313.957 384.358C310.37 386.119 306.199 386.316 302.159 386.25C287.754 386.054 273.415 383.644 259.73 379.081C250.669 376.082 241.678 372.042 235.027 365.199C229.88 359.851 226.358 353.074 223.686 346.101C214.63 322.575 214.499 296.699 214.499 271.477C211.762 293.569 209.09 315.662 206.353 337.759C204.723 322.444 204.527 306.998 205.83 291.678C203.159 297.544 200.487 303.345 197.815 309.212C201.463 283.467 212.024 258.703 228.119 238.236C236.204 228.002 245.718 218.75 256.993 212.229C280.977 198.413 311.089 198.217 337.548 206.428C350.519 210.468 363.424 216.923 371.444 227.937C373.396 217.703 368.964 206.951 361.729 199.455C354.494 191.958 344.849 187.269 334.942 184.009C322.299 179.773 308.936 177.559 295.578 177.428C290.104 177.428 284.564 177.685 279.347 175.994C274.2 174.364 269.44 170.062 269.048 164.654C268.53 157.55 276.026 151.814 283.13 151.945C290.3 152.01 296.685 156.307 301.962 161.066C307.311 165.826 312.065 171.3 318.324 174.817C329.534 181.141 344.718 179.446 354.302 170.842C357.819 176.382 358.343 183.682 355.606 189.614C357.427 191.571 359.907 192.809 362.513 193.136C366.488 190.137 365.643 184.009 364.144 179.249C362.186 172.93 359.449 166.344 354.041 162.5C348.632 158.657 339.898 158.853 336.442 164.523C332.074 171.562 320.669 168.563 315.26 162.37C309.786 156.116 306.722 147.643 299.814 143.08C291.603 137.606 280.585 139.362 271.332 142.949C263.836 145.882 256.404 150.184 252.037 157.026C247.736 163.803 247.414 173.71 253.149 179.446C251.192 179.773 249.235 177.816 249.496 175.863C241.089 183.098 233.789 191.571 227.922 200.954ZM333.05 261.113C335.008 260.786 337.096 260.393 338.982 261.113C340.874 261.827 342.373 263.981 341.654 265.807C340.22 263.981 337.548 263.261 335.4 264.177C335.531 266.325 338.006 267.759 340.22 267.563C342.373 267.301 344.265 265.933 346.021 264.63C346.283 264.434 346.61 264.177 346.871 263.981C343.938 264.308 340.939 262.22 340.351 259.352C339.963 257.656 340.285 255.895 339.767 254.27C339.179 252.706 336.965 251.468 335.792 252.706C335.204 255.639 334.293 258.441 333.05 261.113ZM253.406 314.102C253.018 306.148 251.846 296.961 244.999 292.915C253.018 304.13 247.217 319.838 250.412 333.261C250.8 335.022 253.537 336.848 253.929 335.022C253.084 332.999 253.084 330.72 253.864 328.698C254.84 330.524 255.821 332.35 256.797 334.111C260.575 332.089 264.359 330.001 268.137 327.983C269.113 327.395 270.225 326.876 271.332 327.007C273.093 327.198 274.265 329.025 274.331 330.786C274.462 332.547 273.677 334.172 272.962 335.802C271.201 339.716 269.44 343.56 267.679 347.469C276.675 352.163 286.647 354.9 296.75 355.424C288.539 358.417 279.216 356.204 271.528 352.033C269.048 350.664 265.662 349.165 263.705 351.187C271.594 356.727 281.108 359.851 290.753 360.113C295.512 360.244 300.855 359.333 303.854 355.615C308.156 350.337 305.55 342.584 304.765 335.736C303.331 323.354 308.81 310.319 304.765 298.46C301.052 287.638 288.866 280.468 277.586 282.491C283.714 294.027 285.41 307.909 282.215 320.552C277.133 311.169 283.256 298.264 277.46 289.202C269.048 284.186 259.338 281.318 249.496 281.057C257.773 277.017 268.464 278.838 274.98 285.293C276.283 283.794 274.527 281.51 272.831 280.468C262.467 273.887 247.544 275.839 239.198 284.835C251.061 288.03 258.231 302.762 253.406 314.102ZM269.898 220.702C270.416 227.544 270.94 234.457 271.463 241.365C268.399 237.713 266.573 233.023 266.376 228.264C265.008 230.09 265.662 232.631 266.311 234.779C268.857 242.538 271.332 250.291 273.873 258.049C274.784 259.025 276.152 257.526 276.61 256.288C277.586 253.551 278.632 250.749 279.609 248.012C283.13 238.301 286.713 228.068 284.952 217.899C284.499 215.228 283.583 212.491 281.696 210.468C279.805 208.516 276.806 207.409 274.265 208.385C272.047 209.231 270.613 211.449 270.094 213.729C269.506 215.947 269.702 218.357 269.898 220.702ZM246.045 339.847C244.677 340.038 242.785 341.019 243.373 342.257C246.302 341.407 249.169 340.561 252.103 339.716C252.561 339.52 253.149 339.389 253.537 339.716C254.583 340.365 253.215 341.864 252.037 342.322C249.235 343.364 246.432 344.471 243.63 345.517C241.089 346.493 238.352 347.665 237.115 350.141C235.746 352.943 237.18 356.661 239.786 358.352C242.458 360.113 245.914 360.178 248.978 359.333C251.972 358.417 254.714 356.661 257.385 354.966C259.272 353.728 261.426 352.229 261.818 349.945C260.902 350.533 259.534 350.337 258.819 349.492C265.204 344.601 269.767 337.17 271.201 329.221C263.901 334.76 255.167 338.473 246.045 339.847ZM320.93 206.821C317.217 206.821 313.891 209.558 310.244 209.231C306.984 209.034 304.312 206.494 301.117 206.041C298.118 205.583 295.12 207.017 292.121 207.666C289.057 208.32 285.802 208.189 282.869 207.279C285.41 210.992 287.367 215.162 288.539 219.53C290.426 215.293 293.424 211.188 297.857 209.819C302.289 208.516 308.025 211.384 308.156 216.013C311.547 212.883 315.652 210.277 320.276 210.081C324.839 209.95 329.73 213.014 330.313 217.572C334.746 213.271 343.088 214.186 346.544 219.333C347.52 220.767 349.085 222.79 350.584 221.809C352.994 220.053 356.582 221.683 358.016 224.289C359.384 226.895 359.253 230.025 359.057 233.023C361.08 230.805 364.013 229.371 367.011 229.109C363.359 227.353 360.425 224.355 358.795 220.636C357.105 216.923 350.323 219.66 347.717 216.4C344.914 212.883 340.094 210.992 335.596 211.646C330.444 212.425 326.143 206.886 320.93 206.821ZM259.272 370.412C254.97 370.608 251.584 365.33 253.471 361.547C250.412 361.743 247.348 361.939 244.284 362.135C242.392 362.266 240.44 362.332 238.679 361.612C236.138 360.505 234.639 357.703 234.312 354.966C233.92 352.229 234.574 349.492 235.157 346.755C233.462 345.97 231.968 348.189 231.771 350.01C230.856 357.245 236.591 364.676 243.826 365.587C248.586 366.175 251.257 371.977 255.952 372.953C257.969 373.41 260.057 372.887 262.075 373.214C266.376 373.803 269.637 377.974 273.938 378.17C276.414 378.235 278.829 376.993 281.239 377.581C283 377.974 284.368 379.277 286.064 379.86C287.492 380.384 288.992 380.384 290.491 380.384C297.661 380.384 304.83 380.318 312 380.318C311.612 377.254 307.311 376.862 304.247 377.32C301.183 377.843 296.815 377.254 296.685 374.19C294.989 376.54 291.925 377.778 289.057 377.32C286.255 376.801 283.779 374.517 283 371.715C280.197 373.41 277.068 374.975 273.807 374.648C270.547 374.321 267.423 371.131 268.333 368.002C265.204 367.806 262.402 370.346 259.272 370.412ZM362.317 265.867C361.663 264.891 361.925 263.588 362.186 262.416C363.49 256.223 364.858 250.099 366.227 243.906C367.857 246.054 367.53 249.118 367.077 251.855C366.619 254.919 366.096 258.049 365.643 261.113C370.528 252.771 370.724 241.949 366.161 233.411C365.447 232.108 363.359 232.631 362.252 233.672C358.861 236.736 358.473 241.818 358.73 246.316C359.057 250.814 359.711 255.573 357.819 259.679C357.105 259.483 356.32 259.221 355.606 258.96C355.082 265.153 354.559 271.281 354.041 277.404C353.975 278.385 353.975 279.492 354.69 280.015C357.558 276.428 360.038 272.519 362.056 268.413C362.448 267.563 362.775 266.587 362.317 265.867ZM248.717 223.051C245.391 225.331 241.809 228.002 240.828 231.977C240.179 234.649 240.893 237.451 241.809 240.062C241.94 240.45 242.131 240.842 242.458 241.169C243.761 242.276 245.456 240.128 245.587 238.367C247.736 238.432 249.235 240.515 251.257 241.365C254.583 242.865 258.689 240.193 259.665 236.736C260.706 233.215 259.403 229.371 257.32 226.372C255.363 223.57 251.519 221.029 248.717 223.051ZM327.254 227.092C329.861 222.659 327.903 216.139 323.209 214.056C318.52 211.902 312.327 214.705 310.762 219.595C310.37 220.636 310.244 221.809 310.113 222.986C310.048 223.701 309.917 224.485 310.304 225.134C310.893 226.241 312.392 226.438 313.695 226.503C318.193 226.699 322.757 226.895 327.254 227.092ZM293.817 224.677C292.971 223.635 292.056 222.594 291.211 221.552C291.08 224.224 291.603 226.895 292.775 229.305C293.168 230.09 293.686 230.935 294.536 231.132C296.358 231.59 297.404 228.978 299.095 228.133C300.725 227.353 302.813 228.329 304.569 227.675C306.918 226.765 307.18 223.57 307.049 221.029C306.918 219.203 306.787 217.316 305.615 215.882C303.92 213.794 300.79 213.663 298.118 214.186C296.554 214.513 294.924 215.032 294.209 216.4C292.971 218.941 295.708 222.528 293.817 224.677ZM225.316 333.85C225.97 331.047 227.792 328.501 230.337 327.068C230.076 324.919 227.339 323.812 225.382 324.658C223.43 325.573 222.383 327.787 222.318 329.935C222.187 332.089 222.906 334.111 223.621 336.129C224.406 338.413 225.251 340.692 226.036 342.971C226.297 343.756 226.685 344.667 227.404 345.059C228.773 345.643 230.141 344.405 231.117 343.298C233.271 340.692 235.484 338.021 237.698 335.414C238.548 334.302 239.525 333.065 239.263 331.631C239.006 329.875 236.788 329.025 234.961 329.417C233.205 329.81 231.771 331.047 230.337 332.089C228.904 333.196 227.143 334.111 225.316 333.85ZM254.97 124.047C252.299 121.964 248.717 120.66 245.587 121.833C243.177 122.678 241.416 124.897 241.024 127.372C248.913 129.455 256.274 133.626 262.205 139.296C262.402 133.435 259.665 127.568 254.97 124.047ZM309.197 374.714C310.631 376.927 314.022 376.993 316.236 375.493C318.455 374.059 319.692 371.584 320.799 369.174C318.128 370.019 315.652 371.388 313.564 373.214C313.695 370.019 316.694 367.806 319.3 365.914C324.839 361.743 329.664 356.531 333.312 350.664C328.688 351.248 324.839 354.377 321.257 357.376C319.627 358.744 318.062 360.047 316.498 361.416C314.933 362.654 313.303 364.218 313.172 366.175C312.981 369.37 311.547 372.5 309.197 374.714ZM229.814 249.707C230.594 248.077 231.444 246.054 230.337 244.62C221.538 253.616 219.908 267.11 218.735 279.557C218.343 283.598 217.951 287.768 219.45 291.482C220.431 286.073 221.342 280.599 222.318 275.19C222.906 271.543 223.555 267.955 224.471 264.373C225.709 259.287 227.535 254.401 229.814 249.707ZM344.849 221.552C343.48 218.619 339.506 218.292 336.311 218.423C335.4 218.488 334.424 218.488 333.574 218.881C330.64 220.375 331.491 224.677 330.968 227.937C335.858 226.438 341.588 228.002 345.045 231.781C345.176 229.632 345.307 227.419 345.372 225.265C345.437 223.962 345.437 222.659 344.849 221.552ZM342.962 253.943C342.897 255.443 342.57 257.007 342.897 258.507C343.153 260.071 344.2 261.571 345.699 261.762C345.568 259.744 345.437 257.722 345.241 255.639C346.348 255.835 347.068 256.811 347.586 257.853C348.044 258.829 348.436 259.941 349.347 260.59C350.323 261.178 351.887 260.851 352.018 259.81C352.738 254.14 352.738 248.469 351.953 242.799C349.935 243.448 349.543 246.12 349.543 248.273C349.477 250.421 348.954 253.093 346.871 253.551C346.021 249.576 346.61 245.34 348.567 241.818C346.021 241.496 343.873 243.841 343.284 246.316C342.7 248.791 343.088 251.403 342.962 253.943ZM326.273 314.233C328.23 308.432 330.183 302.631 332.14 296.764C333.181 293.7 334.228 290.571 335.662 287.638C337.352 284.317 339.44 281.122 340.678 277.6C339.833 276.82 338.529 277.797 337.81 278.707C330.057 288.81 325.946 301.584 326.273 314.233ZM355.017 225.658C353.779 224.485 351.626 224.355 350.127 225.2C348.567 226.11 347.717 227.937 347.717 229.698C347.782 232.042 349.216 234.13 350.65 236.017C352.084 237.974 353.518 239.866 354.951 241.753C355.797 238.367 356.385 234.845 356.516 231.262C356.647 229.305 356.516 227.026 355.017 225.658ZM322.299 159.829C323.798 159.24 325.232 158.526 326.535 157.68C323.018 155.527 318.651 154.813 314.606 155.658C317.217 158.329 319.889 161.001 322.495 163.673C324.321 165.499 327.254 165.695 329.664 164.785C332.074 163.869 333.966 162.108 335.858 160.352C332.271 157.353 326.208 162.37 322.299 159.829ZM270.743 362.784C271.005 362.005 270.029 361.285 269.244 361.35C268.399 361.416 267.614 361.874 266.769 362.005C265.073 362.397 263.187 361.159 262.794 359.464C262.271 357.31 258.95 357.18 257.451 358.81C255.952 360.44 255.886 362.85 255.886 365.069C260.706 367.479 266.9 366.503 270.743 362.784ZM324.06 279.492C325.821 280.73 328.296 278.32 327.773 276.232C327.189 274.214 324.905 273.102 322.822 272.911C321.388 272.78 319.758 272.846 318.842 271.799C317.605 270.3 318.389 267.301 316.498 266.783C316.171 269.52 315.325 272.257 314.022 274.732C316.04 274.732 318.128 274.732 320.02 275.387C321.906 276.036 323.667 277.469 324.06 279.492ZM316.171 354.246C317.866 352.878 319.3 350.468 318.128 348.707C317.539 347.862 316.563 347.469 315.587 347.338C311.481 346.951 308.744 351.444 307.049 355.293C306.46 356.661 305.877 358.03 305.288 359.398C308.483 356.727 311.678 354.116 314.868 351.444C315.064 352.49 315.522 353.467 316.171 354.246ZM287.95 367.544C286.189 367.871 285.606 370.543 286.778 371.977C287.885 373.41 289.973 373.803 291.794 373.541C294.989 373.149 297.988 371.066 299.422 368.198C297.661 367.544 295.643 367.675 294.013 368.585C292.187 369.632 290.038 367.086 287.95 367.544ZM312.719 276.624C313.172 273.56 313.564 270.496 314.022 267.432C312.131 269.258 310.178 271.346 309.786 273.953C309.394 276.559 311.351 279.623 313.957 279.296C315.652 279.1 317.086 280.468 318.455 281.384C319.889 282.294 322.233 282.556 322.887 280.991C320.216 278.32 316.498 276.755 312.719 276.624ZM262.532 219.922C259.795 219.791 256.993 219.66 254.256 219.595C257.189 222.005 260.188 224.42 263.121 226.83C264.359 222.332 265.531 217.769 266.638 213.145C264.163 214.448 262.532 217.12 262.532 219.922ZM271.136 365.718C270.482 367.217 271.201 369.043 272.57 369.954C273.873 370.935 275.568 371.131 277.199 370.935C280.066 370.608 282.738 369.174 284.564 367.021C283.91 365.914 282.346 365.848 281.108 366.241C279.87 366.568 278.567 367.217 277.329 366.955C276.152 366.699 275.307 365.783 274.2 365.199C273.158 364.611 271.528 364.611 271.136 365.718ZM220.949 323.027C223.686 322.248 226.358 321.463 229.034 320.683C229.422 320.552 229.88 320.421 230.207 320.16C230.986 319.445 230.659 318.011 229.814 317.423C228.969 316.839 227.726 316.97 226.75 317.357C224.536 318.338 221.538 317.161 220.622 314.816C219.973 317.553 220.104 320.421 220.949 323.027ZM324.387 267.241C327.773 266.456 331.556 267.825 333.705 270.562C334.162 271.216 334.746 272.061 335.596 271.995C336.572 271.995 337.096 270.823 337.292 269.913C335.727 267.045 332.467 265.284 329.207 265.545C326.927 265.676 327.838 260.851 325.624 260.263C325.232 262.547 324.774 264.891 324.387 267.241ZM333.508 273.037C330.248 270.562 326.273 269.062 322.168 268.866C322.953 266.194 323.798 263.523 324.578 260.786C323.863 259.614 322.102 260.982 321.519 262.22C320.799 263.719 320.085 265.284 320.15 266.914C320.276 268.544 321.519 270.3 323.144 270.235C326.208 270.169 329.141 272.453 329.861 275.387C331.033 274.602 332.271 273.822 333.508 273.037ZM331.813 156.116C334.424 156.83 337.161 157.55 339.833 157.092C341.588 156.765 343.284 155.92 344.265 154.42C340.678 151.422 334.484 152.201 331.813 156.116ZM300.659 374.125C304.896 374.648 309.263 371.584 310.178 367.413C308.81 368.263 307.114 368.389 305.484 368.52C303.92 368.651 302.159 368.847 300.986 369.889C299.749 371 299.422 373.149 300.659 374.125ZM332.14 263.327C330.51 261.047 332.99 258.049 332.925 255.246C332.925 254.401 332.598 253.551 331.878 253.158C329.468 256.353 328.88 260.655 330.248 264.373C330.902 264.046 331.491 263.719 332.14 263.327ZM311.089 336.914C310.37 337.105 309.655 337.236 308.936 337.367C309.066 335.545 308.679 333.653 307.829 332.023C307.502 332.481 307.436 333.065 307.376 333.653C307.311 335.153 307.376 336.783 308.025 338.086C308.679 339.454 310.113 340.561 311.678 340.365C313.172 340.234 314.415 338.473 313.695 337.105C312.981 336.521 311.934 336.325 311.024 336.652M308.287 362.784C311.481 360.832 314.671 358.941 317.932 357.049C313.891 356.334 309.59 358.875 308.287 362.784ZM224.602 312.859C223.882 311.491 222.383 310.515 220.818 310.449C220.753 312.668 222.252 314.882 224.406 315.662C225.447 315.405 225.185 313.775 224.667 312.859M309.328 345.452C309.394 345.97 309.524 346.493 309.59 347.011C310.37 346.493 311.154 345.905 311.934 345.386C312.719 344.018 311.024 342.453 309.59 341.864C309.459 343.037 309.394 344.274 309.328 345.452Z" fill="white"/>
</g>
<path d="M318.843 223.897C320.086 223.635 321.389 224.42 321.842 225.592C320.408 225.854 318.974 225.985 317.54 225.854C317.022 225.003 317.867 223.7 318.843 223.897Z" fill="white"/>
<path d="M245.328 229.305C247.482 231.911 249.63 234.522 251.784 237.128C252.171 237.646 252.171 238.431 251.718 238.95C249.696 238.039 247.613 237.063 246.179 235.433C244.679 233.737 244.091 231.131 245.328 229.305Z" fill="white"/>
<path d="M239.788 352.745C245.458 351.769 250.932 349.49 255.561 346.033C256.275 345.515 257.452 345.575 258.101 346.23C255.757 349.032 253.342 351.965 250.021 353.595C246.761 355.225 242.459 355.291 239.788 352.745Z" fill="white"/>
<path d="M282.543 227.354C281.889 231.847 280.847 236.214 279.479 240.515C278.955 241.949 278.306 243.579 276.873 244.168C278.241 236.41 279.871 228.722 281.632 221.095C283.066 222.79 282.87 225.2 282.543 227.354Z" fill="white"/>
<path d="M300.012 296.828C297.466 294.025 294.015 292.003 290.302 291.157C288.279 290.699 286.126 290.569 284.304 289.658C282.413 288.742 280.848 286.856 281.175 284.833C289.19 285.422 296.817 289.462 301.768 295.721C301.38 296.304 300.726 296.697 300.012 296.828Z" fill="white"/>
<path d="M255.494 173.642C256.148 175.665 257.124 177.944 256.083 179.835C252.691 175.795 250.996 170.387 251.519 165.104C252.037 159.826 254.774 154.81 258.885 151.484C260.253 152.46 259.207 154.548 258.231 155.917C254.649 160.933 253.602 167.71 255.494 173.642Z" fill="white"/>
<path d="M253.93 183.163C254.388 183.812 254.841 184.466 255.299 185.115C250.866 192.153 247.933 200.108 246.761 208.384C246.303 211.71 245.85 215.488 243.113 217.506C235.682 222.92 229.161 229.697 224.08 237.324C222.973 235.956 223.687 233.933 224.407 232.303C229.292 221.42 234.117 210.533 239.007 199.585C239.395 200.561 239.787 201.476 240.245 202.452C244.351 195.741 248.979 189.286 253.93 183.163Z" fill="white"/>
<path d="M318.652 94.0643C321.128 89.8279 323.668 85.657 326.144 81.4207C325.56 86.1149 324.906 90.7436 324.322 95.3673C329.273 92.3687 333.379 87.8758 335.92 82.593C336.639 87.1563 334.878 92.0467 331.427 95.0453C334.033 94.2605 336.508 92.8266 338.531 91.0002C337.615 94.6529 335.009 97.8478 331.618 99.4728C339.834 98.3006 349.152 97.4553 355.738 102.668C346.218 101.43 336.443 102.084 327.19 104.559C330.058 106.904 331.557 110.748 331.034 114.401C325.691 105.928 316.303 100.192 306.331 99.3471C309.002 101.757 310.567 105.339 310.632 108.927C294.663 90.8694 275.112 76.0121 253.472 65.5169C254.584 63.6302 257.387 64.2138 259.404 65.1295C270.096 70.0149 280.133 76.2083 289.255 83.6395C289.255 81.8786 289.255 80.183 289.255 78.4221C291.604 81.5515 293.949 84.6156 296.293 87.6796C296.947 85.33 297.013 82.8546 296.49 80.4447C298.708 82.5276 299.946 85.5262 299.946 88.5903C302.487 87.418 301.833 83.6395 300.661 81.0937C299.488 78.5529 298.381 75.0361 300.661 73.3405C302.945 79.0762 305.289 84.8118 307.634 90.5474C309.002 83.1817 309.133 75.6197 308.092 68.1885C312.72 75.3581 314.869 84.0269 314.154 92.4995C316.172 89.8933 317.671 86.8947 318.521 83.6999C318.587 87.1563 318.587 90.6128 318.652 94.0643Z" fill="white"/>
<mask id="mask1_1372_10670" style="mask-type:luminance" maskUnits="userSpaceOnUse" x="126" y="137" width="98" height="130">
<path d="M126.704 137.816H223.943V266.616H126.704V137.816Z" fill="white"/>
</mask>
<g mask="url(#mask1_1372_10670)">
<path d="M187.517 188.831C186.797 192.741 185.363 196.454 183.346 199.845C187.517 193.913 192.337 188.439 197.62 183.483C196.9 185.702 196.12 187.916 195.335 190.2C197.816 187.719 200.291 185.244 202.767 182.769C202.505 184.464 202.309 186.22 202.112 187.981C205.438 185.375 208.764 182.769 212.084 180.162C212.084 181.727 212.024 183.292 212.024 184.852C215.41 181.596 219.45 179.116 223.883 177.556C217.498 185.506 211.108 193.455 204.789 201.344C205.765 197.239 207.134 193.264 208.895 189.415C200.291 198.149 193.383 208.514 188.558 219.854C189.6 212.684 191.688 205.711 194.621 199.125C185.625 211.251 181.389 226.173 177.349 240.709C177.349 233.086 178.325 225.459 180.347 218.093C174.612 229.368 170.702 241.493 168.811 254.006C167.508 250.288 166.919 246.248 167.246 242.339C166.204 249.312 165.223 256.22 164.247 263.193C163.533 257.523 162.813 251.853 162.164 246.183C160.987 252.703 160.338 259.415 160.273 266.061C158.25 262.348 157.339 258.112 157.601 253.875C157.209 257.005 156.167 260.069 154.537 262.871C154.864 255.178 154.014 247.42 152.062 239.994C151.538 247.164 151.081 254.268 150.562 261.437C148.213 252.965 147.106 244.23 147.171 235.496C145.999 242.469 144.892 249.508 143.78 256.547C142.804 248.92 142.608 241.166 143.197 233.539C142.155 238.626 141.174 243.707 140.198 248.854C137.984 238.882 136.741 228.784 136.485 218.616C135.051 223.436 134.266 228.523 134.201 233.539C132.963 233.408 132.44 231.974 132.249 230.737C129.703 216.594 130.226 201.862 133.748 187.85C130.88 192.937 128.53 198.215 126.704 203.689C127.227 187.589 132.379 171.69 141.37 158.261C140.067 158.85 138.764 159.434 137.461 160.022C140.721 153.894 144.565 148.159 148.932 142.75C151.211 140.013 155.448 137.211 157.863 139.882C155.775 142.096 153.626 144.249 151.342 146.332C154.406 143.53 158.773 142.161 162.879 142.75C157.928 144.838 153.561 148.355 150.497 152.787C153.561 150.05 157.601 148.355 161.707 148.093C157.405 150.443 153.752 154.156 151.473 158.523C155.186 155.132 160.011 153.049 164.967 152.526C159.297 156.37 153.168 160.802 151.277 167.388C155.644 162.105 161.837 158.327 168.549 156.893C165.098 159.63 161.772 162.498 158.642 165.627C162.356 164.389 166.074 163.152 169.787 161.975C163.855 165.758 158.97 171.036 155.578 177.164C161.183 172.208 167.115 167.65 173.309 163.474C171.221 166.085 169.072 168.691 166.984 171.363C170.828 168.037 176.242 166.669 181.193 167.71C174.154 169.929 168.026 175.076 164.574 181.662C169.721 177.229 175.719 173.904 182.174 171.946C178.39 174.945 175.13 178.598 172.589 182.769C177.479 178.402 183.411 175.207 189.731 173.511C183.477 178.925 177.152 184.333 170.894 189.742C177.349 186.678 183.864 183.614 190.385 180.484C178.717 192.871 166.466 206.36 163.855 223.175C170.506 210.924 178.39 199.387 187.517 188.831Z" fill="white"/>
</g>
<g style="mix-blend-mode:difference">
<path d="M482.389 538.878L507.5 406H26.1572L0 538.878H482.389Z" fill="white"/>
<path d="M79.8292 511.891C75.6771 511.891 71.7105 511.298 67.9291 510.111C64.1478 508.999 60.8855 507.257 58.1422 504.884C55.473 502.512 53.5824 499.509 52.4702 495.876C51.3581 492.168 51.3951 487.757 52.5814 482.641H72.0441C71.451 485.755 71.6734 488.313 72.7114 490.315C73.7494 492.317 75.2693 493.8 77.2712 494.764C79.2731 495.727 81.4233 496.209 83.7217 496.209C84.908 496.209 86.4279 496.024 88.2815 495.653C90.2093 495.208 91.9887 494.467 93.6199 493.429C95.251 492.391 96.2149 490.982 96.5115 489.203C96.808 487.72 96.5856 486.534 95.8442 485.644C95.1027 484.68 93.9535 483.901 92.3965 483.308C90.9136 482.641 89.0971 482.048 86.9469 481.529C84.7968 480.936 82.4613 480.306 79.9404 479.638C77.4936 478.971 74.9357 478.192 72.2665 477.303C69.6715 476.339 67.2989 475.041 65.1488 473.41C63.0727 471.779 61.5157 469.629 60.4777 466.96C59.4397 464.291 59.3285 460.88 60.1441 456.728C60.9596 452.724 62.4796 449.276 64.7039 446.385C67.0023 443.419 69.7827 440.972 73.045 439.045C76.3074 437.043 79.755 435.597 83.3881 434.707C87.0211 433.743 90.5429 433.261 93.9535 433.261C97.9573 433.261 101.739 433.743 105.297 434.707C108.856 435.671 111.933 437.228 114.528 439.378C117.123 441.454 118.977 444.198 120.089 447.608C121.201 451.019 121.238 455.134 120.2 459.953H101.516C102.035 455.801 101.405 452.984 99.6255 451.501C97.846 450.018 95.0286 449.276 91.1731 449.276C90.1351 449.276 88.8376 449.499 87.2806 449.944C85.7236 450.314 84.2778 450.982 82.9432 451.946C81.6828 452.835 80.9043 454.059 80.6077 455.616C80.3852 456.728 80.5706 457.655 81.1638 458.396C81.831 459.063 82.832 459.657 84.1666 460.176C85.5011 460.695 87.0952 461.176 88.9488 461.621C90.8766 461.992 92.9526 462.437 95.1769 462.956C97.9943 463.623 100.849 464.476 103.74 465.514C106.706 466.478 109.338 467.812 111.637 469.518C114.009 471.223 115.752 473.484 116.864 476.302C117.976 479.045 118.087 482.567 117.198 486.867C116.308 491.464 114.602 495.357 112.082 498.545C109.635 501.733 106.632 504.328 103.073 506.33C99.5884 508.258 95.8442 509.666 91.8404 510.556C87.8367 511.446 83.8329 511.891 79.8292 511.891ZM122.471 510L137.151 434.374H185.085L181.637 452.168H153.389L151.275 463.178H178.412L174.964 480.862H147.828L145.603 492.206H173.852L170.404 510H122.471ZM181.119 510L195.8 434.374H216.931L230.054 478.749L238.618 434.374H258.192L243.511 510H222.38L209.368 465.736L200.804 510H181.119ZM255.734 510L270.414 434.374H298.218C303.63 434.374 308.375 435.375 312.453 437.376C316.605 439.304 320.016 442.01 322.685 445.495C325.354 448.98 327.171 453.021 328.135 457.618C329.099 462.14 329.061 466.997 328.023 472.187C326.985 477.525 325.095 482.493 322.351 487.09C319.608 491.612 316.235 495.616 312.231 499.101C308.227 502.512 303.779 505.181 298.885 507.108C293.992 509.036 288.876 510 283.537 510H255.734ZM278.533 492.094H285.539C289.321 492.094 292.768 491.205 295.882 489.425C298.996 487.572 301.591 485.162 303.667 482.196C305.817 479.156 307.226 475.82 307.893 472.187C308.635 468.554 308.524 465.254 307.56 462.289C306.67 459.249 305.039 456.839 302.666 455.06C300.294 453.28 297.18 452.39 293.324 452.39H286.318L278.533 492.094ZM338.278 507.776L352.18 436.598H371.865L357.963 507.776H338.278ZM328.713 510L332.383 492.206H370.197L366.527 510H328.713ZM339.946 452.168L343.394 434.374H381.207L377.759 452.168H339.946ZM397.583 510.111L408.815 452.168H386.127L389.575 434.485H454.525L451.077 452.168H428.389L417.156 510.111H397.583Z" fill="#050505"/>
</g>
</svg>
