<svg width="138" height="138" viewBox="0 0 138 138" fill="none" xmlns="http://www.w3.org/2000/svg">
<mask id="mask0_528_4301" style="mask-type:luminance" maskUnits="userSpaceOnUse" x="40" y="17" width="66" height="104">
<path d="M40.8477 17.2969H105.893V120.337H40.8477V17.2969Z" fill="white"/>
</mask>
<g mask="url(#mask0_528_4301)">
<path d="M61.1207 57.4165C62.0709 55.0144 63.2439 52.7058 64.6225 50.5452C58.3837 57.0442 55.963 66.224 54.1014 75.0517C54.1747 67.8441 56.019 60.6753 59.4086 54.3258C58.4771 55.22 57.5456 56.094 56.6141 56.9881C58.1422 53.9722 60.2467 51.2712 62.7968 49.056C59.0536 49.5217 55.3678 50.4518 51.8474 51.849C53.6917 50.4331 55.5346 49.0373 57.3976 47.64C55.4972 47.7708 53.5609 47.5279 51.754 46.8954C52.536 46.6352 53.3007 46.3549 54.064 46.0947C52.4066 46.02 50.7491 45.7411 49.1665 45.2567C49.799 45.0152 50.4329 44.7535 51.0654 44.512C49.2599 44.3812 47.453 44.0089 45.7395 43.3951C46.8938 43.1708 48.0668 43.0961 49.2412 43.1335C47.3221 42.557 45.4045 41.9605 43.4869 41.384C44.2128 41.1785 44.9388 40.9557 45.6647 40.7501C44.1568 40.7688 42.6675 40.0055 41.8108 38.7577C42.4059 38.8138 43.0025 38.8512 43.5803 38.9072C42.462 37.5847 42.1644 35.611 42.853 34.0097C42.2578 34.5674 41.68 35.1453 41.1035 35.7045C41.7734 33.9723 42.6488 32.2962 43.7284 30.7695C43.0959 31.1232 42.462 31.4768 41.8481 31.8304C43.3374 28.1619 45.2924 24.6055 48.1789 21.8858C51.0467 19.1488 54.9208 17.3059 58.8868 17.4913C52.9097 18.7391 47.5838 22.7799 44.772 28.1993C45.8703 27.4173 46.9498 26.6353 48.0495 25.8533C46.9498 27.492 45.8703 29.1308 44.772 30.7508C45.3298 30.8069 45.8703 30.8428 46.4108 30.8802C43.7471 31.9799 43.1333 35.8525 44.7533 38.2546C46.3547 40.638 49.4266 41.6442 52.3131 41.719C51.2149 41.9605 50.1152 42.2034 49.017 42.4449C50.0606 43.1522 51.363 43.4497 52.6107 43.2643C52.4066 43.6179 52.2197 43.9902 52.0156 44.3438C52.536 44.8283 53.3553 44.3625 54.064 44.2691C54.7713 44.1771 55.4225 45.3688 54.6965 45.4062C56.6702 45.2567 58.6439 45.1258 60.619 44.9778C59.6875 45.5168 58.7747 46.0573 57.8432 46.5978C60.4882 46.0387 63.1131 45.4795 65.7581 44.9217C63.0211 46.1882 60.3013 47.4546 57.5643 48.7196C60.0038 48.366 62.4432 47.9937 64.864 47.64C65.4418 47.5653 66.1304 47.3798 66.2612 46.8207C66.819 44.456 68.383 42.3328 70.4688 41.085C65.9809 41.3093 61.5117 42.3515 57.3789 44.1397C60.6003 41.6629 64.6038 40.1909 68.682 39.9868C65.2363 39.6332 61.8107 39.2795 58.3837 38.9446C61.1207 38.3667 63.9698 38.3293 66.727 38.7764C62.7221 37.2498 58.4024 36.5598 54.1201 36.8027C55.7215 36.0394 57.527 35.6858 59.2965 35.8152C57.2107 35.4055 55.1436 34.9958 53.0578 34.6048C53.9706 34.0657 55.1249 33.991 56.0751 34.4007C56.2605 31.4955 58.6439 28.8878 61.5117 28.4408C59.929 28.3488 58.3463 28.2367 56.745 28.1432C60.9726 26.0013 66.1491 28.1432 69.855 31.0858C73.5608 34.0097 76.7449 37.8075 81.1206 39.6145C81.3449 36.1688 80.7857 32.6872 79.5193 29.5031C81.7546 32.5563 82.8155 36.4491 82.4618 40.2096C84.0445 38.5522 85.0508 36.3557 85.2736 34.0657C85.9435 36.393 85.2549 39.074 83.5601 40.8062C84.6957 42.4075 87.322 42.166 88.7552 40.8062C90.1898 39.465 90.7116 37.4352 91.1213 35.5176C91.14 36.7467 91.1573 37.9757 91.176 39.2235C92.0701 37.2311 92.9642 35.2574 93.8583 33.265C93.9518 36.0207 92.8521 38.7951 90.8971 40.7501C92.2943 40.4899 93.6901 40.247 95.1061 39.9868C96.6327 39.7266 98.4396 39.5397 99.5192 40.6567C100.674 41.867 100.264 43.8235 99.9102 45.4622C99.5566 47.1182 99.5753 49.2414 101.083 49.986C105.367 44.7722 105.515 36.5785 101.418 31.2166C104.211 33.4692 105.794 37.1003 105.777 40.7127C105.777 44.3065 104.23 47.8456 101.79 50.4892C100.767 51.5874 102.089 53.6545 101.083 54.7729C100.189 55.759 100.748 57.3604 101.53 58.4227C102.294 59.5023 103.319 60.6005 103.244 61.9417C102.982 66.7085 103.802 71.55 105.608 76.0005C105.087 75.5534 104.566 75.1265 104.026 74.6794C104.342 76.2434 104.658 77.8074 104.975 79.3714C104.454 78.5333 103.914 77.6953 103.392 76.8385C104.044 78.8309 103.932 81.0849 103.057 82.9838C103.113 81.532 103.001 80.0787 102.722 78.6455C102.572 81.3264 101.903 83.9901 100.748 86.4108C101.046 84.716 101.121 82.9838 101.008 81.2517C100.636 83.878 99.65 86.4109 98.178 88.626C98.6811 86.8953 99.0161 85.107 99.2216 83.3188C98.2901 86.1492 96.7635 88.8129 94.7898 91.0281C95.776 89.1105 96.5206 87.062 96.9863 84.9575C95.8694 87.4157 94.212 89.6323 92.1635 91.4191C93.1698 89.6136 94.1746 87.8253 95.1808 86.0385C94.0438 87.1555 92.9081 88.2911 91.7725 89.4267C93.6715 86.5589 95.2355 83.4683 96.4286 80.2282C95.4223 81.4759 94.4348 82.7237 93.43 83.9714C94.8258 81.4198 95.8133 78.6455 96.3351 75.7777C92.0514 83.1894 89.5372 91.6247 89.0916 100.172C89.9843 99.781 90.8784 99.4087 91.7725 99.0177C92.9268 101.904 87.6943 104.51 88.9047 107.378C90.1525 110.358 88.2535 113.766 85.8328 115.907C82.1082 119.147 76.9677 120.692 72.0888 120.041C67.21 119.39 62.6488 116.541 59.929 112.425C60.2826 112.667 59.8916 113.301 59.4633 113.245C59.0176 113.207 58.7373 112.798 58.4958 112.444C57.583 111.065 56.6702 109.67 55.7775 108.291C55.9443 109.241 56.1125 110.19 56.2979 111.159C53.9332 108.961 52.5 105.814 52.3879 102.611C53.2073 104.306 54.008 106.001 54.8273 107.694C54.5657 106.521 54.5485 105.311 54.7526 104.138C55.3118 106.093 56.3726 107.919 57.7699 109.389C56.5955 106.912 55.8882 104.213 55.7028 101.476C57.3228 105.665 58.999 109.93 61.9027 113.338C64.8079 116.764 69.221 119.24 73.6715 118.645C69.5948 117.639 65.1802 116.429 62.6301 113.095C68.7006 116.67 76.2418 117.658 83.0383 115.778C78.8868 115.926 74.6591 115.796 70.7304 114.492C66.7816 113.17 63.1318 110.544 61.401 106.764C66.7083 111.773 74.064 114.548 81.3636 114.268C83.3933 114.193 85.5525 113.84 87.0431 112.463C88.5324 111.084 88.9421 108.403 87.4155 107.081C87.5635 108.216 86.7441 109.315 85.702 109.818C84.677 110.321 83.4853 110.377 82.331 110.358C78.2155 110.302 74.1186 109.614 70.2086 108.31C67.6196 107.453 65.0508 106.299 63.1505 104.344C61.6799 102.816 60.6736 100.879 59.9103 98.8869C57.3228 92.1652 57.2855 84.7721 57.2855 77.5659C56.5035 83.878 55.7401 90.19 54.9581 96.5035C54.4924 92.1278 54.4363 87.7147 54.8086 83.3375C54.0453 85.0136 53.282 86.671 52.5187 88.3472C53.5609 80.9915 56.5782 73.9161 61.1768 68.0683C63.4868 65.1445 66.2051 62.5009 69.4266 60.6379C76.2791 56.6905 84.8826 56.6345 92.4424 58.9805C96.1483 60.1348 99.8355 61.9791 102.127 65.1258C102.685 62.2019 101.418 59.13 99.351 56.9881C97.2839 54.8462 94.5282 53.5065 91.6978 52.575C88.0853 51.3646 84.2673 50.7321 80.4508 50.6947C78.8868 50.6947 77.3041 50.768 75.8134 50.285C74.3428 49.8193 72.983 48.5902 72.8708 47.0449C72.7228 45.0152 74.8646 43.3764 76.8944 43.4138C78.9428 43.4325 80.767 44.6601 82.275 46.02C83.803 47.3798 85.1615 48.9438 86.9497 49.9487C90.1525 51.7556 94.4908 51.2712 97.2293 48.813C98.2341 50.3957 98.3836 52.4815 97.6016 54.1763C98.122 54.7355 98.8306 55.0892 99.5753 55.1826C100.711 54.3258 100.469 52.575 100.041 51.2151C99.4818 49.4096 98.6998 47.5279 97.1545 46.4297C95.6092 45.3314 93.1137 45.3875 92.1261 47.0075C90.8784 49.0186 87.6196 48.1618 86.0743 46.3923C84.5103 44.6055 83.6348 42.1847 81.6611 40.8809C79.3151 39.3169 76.167 39.8186 73.5235 40.8435C71.3816 41.6816 69.2584 42.9107 68.0106 44.8657C66.7816 46.802 66.6896 49.6324 68.3283 51.2712C67.7691 51.3646 67.21 50.8054 67.2847 50.2477C64.8826 52.3148 62.7968 54.7355 61.1207 57.4165ZM91.1573 74.6047C91.7165 74.5112 92.313 74.3991 92.8521 74.6047C93.3926 74.8088 93.821 75.424 93.6154 75.9458C93.2057 75.424 92.4424 75.2185 91.8286 75.4801C91.866 76.0939 92.5732 76.5036 93.2057 76.4475C93.821 76.3728 94.3615 75.9818 94.8631 75.6095C94.9379 75.5534 95.0313 75.4801 95.1061 75.424C94.268 75.5175 93.4113 74.9209 93.2431 74.1015C93.1324 73.6171 93.2244 73.114 93.0763 72.6497C92.9081 72.2026 92.2756 71.849 91.9407 72.2026C91.7725 73.0407 91.5123 73.8413 91.1573 74.6047ZM68.4016 89.7444C68.291 87.4717 67.956 84.8468 65.9996 83.6911C68.291 86.8953 66.6335 91.3832 67.5463 95.2184C67.657 95.7215 68.439 96.2433 68.5511 95.7215C68.3096 95.1437 68.3096 94.4925 68.5325 93.9146C68.8113 94.4364 69.0916 94.9582 69.3705 95.4613C70.4501 94.8835 71.5311 94.2869 72.6106 93.7105C72.8895 93.5423 73.2072 93.3942 73.5235 93.4316C74.0266 93.4862 74.3615 94.008 74.3802 94.5112C74.4176 95.0143 74.1933 95.4786 73.9892 95.9443C73.4861 97.0627 72.983 98.161 72.4798 99.2779C75.0501 100.619 77.8992 101.401 80.7857 101.551C78.4397 102.406 75.776 101.773 73.5795 100.582C72.8708 100.191 71.9034 99.7623 71.3442 100.34C73.5982 101.923 76.3165 102.816 79.0722 102.89C80.4321 102.928 81.9587 102.668 82.8155 101.605C84.0445 100.097 83.2999 97.8821 83.0756 95.9257C82.666 92.388 84.2314 88.6634 83.0756 85.2752C82.0148 82.1832 78.5331 80.1347 75.3103 80.7126C77.0611 84.0088 77.5456 87.9748 76.6328 91.5873C75.1809 88.9063 76.9303 85.2192 75.2743 82.6302C72.8708 81.197 70.0965 80.3777 67.2847 80.3029C69.6494 79.1486 72.7041 79.669 74.5656 81.5133C74.938 81.0849 74.4363 80.4323 73.9518 80.1347C70.9906 78.2545 66.727 78.8122 64.3421 81.3825C67.7318 82.2953 69.7802 86.5043 68.4016 89.7444ZM73.1138 63.0587C73.2618 65.0137 73.4113 66.9888 73.5608 68.9625C72.6854 67.9188 72.1636 66.5791 72.1075 65.2192C71.7165 65.741 71.9034 66.467 72.0888 67.0808C72.8162 69.2974 73.5235 71.5126 74.2494 73.7292C74.5096 74.0081 74.9006 73.5797 75.0314 73.2261C75.3103 72.4441 75.6093 71.6434 75.8881 70.8614C76.8944 68.087 77.9179 65.1632 77.4148 62.258C77.2854 61.4947 77.0238 60.7127 76.4847 60.1348C75.9442 59.577 75.0875 59.2608 74.3615 59.5397C73.7276 59.7812 73.3179 60.4151 73.1698 61.0663C73.0016 61.7002 73.0577 62.3888 73.1138 63.0587ZM66.2986 97.1001C65.9076 97.1547 65.3671 97.435 65.5353 97.7887C66.3719 97.5457 67.1913 97.3042 68.0293 97.0627C68.1601 97.0067 68.3283 96.9693 68.439 97.0627C68.738 97.2482 68.347 97.6765 68.0106 97.8074C67.21 98.1049 66.4093 98.4212 65.6086 98.7202C64.8826 98.999 64.1006 99.334 63.747 100.041C63.356 100.842 63.7657 101.904 64.5103 102.387C65.2736 102.89 66.2612 102.909 67.1366 102.668C67.992 102.406 68.7754 101.904 69.5387 101.42C70.0778 101.066 70.693 100.638 70.8051 99.9852C70.5435 100.153 70.1525 100.097 69.9484 99.8558C71.7726 98.4585 73.0764 96.3354 73.4861 94.0641C71.4003 95.6468 68.9048 96.7077 66.2986 97.1001ZM87.6943 59.0926C86.6335 59.0926 85.6833 59.8746 84.6411 59.7812C83.7096 59.7251 82.9463 58.9992 82.0335 58.8698C81.1767 58.739 80.32 59.1487 79.4632 59.3341C78.5878 59.521 77.6577 59.4836 76.8196 59.2234C77.5456 60.2843 78.1048 61.476 78.4397 62.7237C78.9788 61.5133 79.8355 60.3403 81.102 59.9493C82.3684 59.577 84.0071 60.3964 84.0445 61.7189C85.0134 60.8248 86.1864 60.0802 87.5075 60.0241C88.8113 59.9867 90.2085 60.8622 90.3753 62.1645C91.6417 60.9355 94.0251 61.1971 95.0126 62.6677C95.2915 63.0773 95.7386 63.6552 96.167 63.3749C96.8555 62.8732 97.8805 63.339 98.2901 64.0836C98.6811 64.8282 98.6438 65.7223 98.5877 66.5791C99.1656 65.9452 100.004 65.5355 100.86 65.4607C99.8168 64.959 98.9787 64.1023 98.513 63.04C98.03 61.9791 96.0922 62.7611 95.3476 61.8296C94.5469 60.8248 93.1698 60.2843 91.8846 60.4712C90.4126 60.694 89.1836 59.1113 87.6943 59.0926ZM70.0778 105.833C68.8487 105.889 67.8813 104.381 68.4203 103.3C67.5463 103.356 66.6709 103.412 65.7955 103.468C65.255 103.506 64.6972 103.524 64.1941 103.319C63.4681 103.002 63.0398 102.202 62.9463 101.42C62.8342 100.638 63.0211 99.8558 63.1878 99.0738C62.7034 98.8495 62.2765 99.4835 62.2204 100.004C61.9588 102.071 63.5975 104.194 65.6646 104.454C67.0245 104.623 67.7878 106.28 69.129 106.559C69.7055 106.69 70.302 106.54 70.8785 106.634C72.1075 106.802 73.039 107.993 74.2681 108.05C74.9753 108.068 75.6653 107.713 76.3539 107.881C76.857 107.993 77.248 108.366 77.7325 108.533C78.1407 108.682 78.5691 108.682 78.9975 108.682C81.0459 108.682 83.0943 108.663 85.1428 108.663C85.0321 107.788 83.803 107.676 82.9276 107.807C82.0521 107.956 80.8044 107.788 80.767 106.912C80.2826 107.584 79.4071 107.937 78.5878 107.807C77.7871 107.659 77.0798 107.006 76.857 106.205C76.0563 106.69 75.1622 107.137 74.2307 107.043C73.2992 106.95 72.4065 106.038 72.6667 105.144C71.7726 105.088 70.9719 105.814 70.0778 105.833ZM99.5192 75.9631C99.3323 75.6842 99.4071 75.3119 99.4818 74.977C99.8541 73.2074 100.245 71.458 100.636 69.6884C101.102 70.3022 101.008 71.1777 100.879 71.9597C100.748 72.8351 100.599 73.7292 100.469 74.6047C101.865 72.2213 101.921 69.1292 100.617 66.6898C100.413 66.3175 99.8168 66.467 99.5005 66.7645C98.5316 67.64 98.421 69.0918 98.4943 70.377C98.5877 71.6621 98.7746 73.022 98.2341 74.195C98.03 74.1389 97.8057 74.0642 97.6016 73.9894C97.4521 75.759 97.3026 77.5098 97.1545 79.2593C97.1358 79.5396 97.1358 79.8558 97.34 80.0053C98.1593 78.9804 98.868 77.8635 99.4445 76.6905C99.5566 76.4475 99.65 76.1687 99.5192 75.9631ZM67.0619 63.73C66.1117 64.3812 65.0882 65.1445 64.8079 66.2801C64.6225 67.0434 64.8266 67.8441 65.0882 68.5902C65.1256 68.7008 65.1802 68.813 65.2736 68.9064C65.646 69.2227 66.1304 68.6088 66.1678 68.1057C66.7816 68.1244 67.21 68.7195 67.7878 68.9625C68.738 69.3908 69.911 68.6275 70.1899 67.64C70.4875 66.6337 70.1151 65.5355 69.52 64.6787C68.9608 63.878 67.8626 63.1521 67.0619 63.73ZM89.5013 64.8843C90.2459 63.6178 89.6867 61.7548 88.3455 61.1597C87.0058 60.5445 85.2362 61.3452 84.7891 62.7424C84.677 63.04 84.6411 63.3749 84.6037 63.7113C84.585 63.9154 84.5476 64.1397 84.6583 64.3251C84.8265 64.6413 85.2549 64.6974 85.6272 64.7161C86.9123 64.7722 88.2161 64.8282 89.5013 64.8843ZM79.9476 64.1943C79.7061 63.8967 79.4445 63.5992 79.203 63.3016C79.1656 64.0649 79.3151 64.8282 79.6501 65.5168C79.7622 65.741 79.9103 65.9825 80.1532 66.0386C80.6736 66.1694 80.9726 65.4233 81.4556 65.1818C81.9213 64.959 82.5179 65.2379 83.0196 65.051C83.6909 64.7908 83.7656 63.878 83.7283 63.1521C83.6909 62.6303 83.6535 62.0912 83.3186 61.6815C82.8341 61.085 81.94 61.0476 81.1767 61.1971C80.7296 61.2905 80.2639 61.4386 80.0598 61.8296C79.7061 62.5555 80.4881 63.5805 79.9476 64.1943ZM60.3761 95.3866C60.563 94.5859 61.0833 93.8585 61.8107 93.4488C61.736 92.835 60.954 92.5188 60.3948 92.7603C59.837 93.0219 59.538 93.6544 59.5193 94.2682C59.482 94.8835 59.6875 95.4613 59.8916 96.0378C60.1159 96.6904 60.3574 97.3416 60.5816 97.9928C60.6564 98.217 60.7671 98.4772 60.9726 98.5893C61.3636 98.7561 61.7546 98.4025 62.0335 98.0862C62.6488 97.3416 63.2813 96.5783 63.9138 95.8337C64.1567 95.516 64.4356 95.1623 64.3608 94.7527C64.2875 94.251 63.6536 94.008 63.1318 94.1202C62.6301 94.2323 62.2204 94.5859 61.8107 94.8835C61.401 95.1997 60.8979 95.4613 60.3761 95.3866ZM68.8487 35.4428C68.0854 34.8477 67.0619 34.4754 66.1678 34.8103C65.4792 35.0518 64.9761 35.6858 64.864 36.393C67.118 36.9882 69.221 38.1798 70.9158 39.7999C70.9719 38.1252 70.1899 36.4491 68.8487 35.4428ZM84.3421 107.062C84.7518 107.694 85.7206 107.713 86.3531 107.285C86.9871 106.875 87.3407 106.168 87.657 105.479C86.8936 105.721 86.1864 106.112 85.5898 106.634C85.6272 105.721 86.484 105.088 87.2286 104.548C88.8113 103.356 90.1898 101.867 91.232 100.191C89.911 100.357 88.8113 101.252 87.7878 102.108C87.322 102.499 86.875 102.872 86.4279 103.263C85.9808 103.616 85.5151 104.063 85.4777 104.623C85.4231 105.535 85.0134 106.429 84.3421 107.062ZM61.6612 71.3458C61.884 70.8801 62.127 70.3022 61.8107 69.8925C59.2965 72.4628 58.8308 76.3182 58.4958 79.8745C58.3837 81.0288 58.2716 82.2205 58.7 83.2814C58.9803 81.7361 59.2405 80.1721 59.5193 78.6268C59.6875 77.5846 59.873 76.5597 60.1346 75.5362C60.4882 74.0828 61.01 72.687 61.6612 71.3458ZM94.5282 63.3016C94.1372 62.4635 93.0016 62.3701 92.0888 62.4075C91.8286 62.4262 91.5497 62.4262 91.3068 62.5383C90.4687 62.9652 90.7116 64.1943 90.5621 65.1258C91.9594 64.6974 93.5967 65.1445 94.5843 66.224C94.6216 65.6102 94.659 64.9777 94.6777 64.3625C94.6964 63.9902 94.6964 63.6178 94.5282 63.3016ZM93.9891 72.5562C93.9705 72.9846 93.877 73.4317 93.9705 73.86C94.0438 74.3071 94.3428 74.7355 94.7711 74.7901C94.7338 74.2137 94.6964 73.6358 94.6403 73.0407C94.9566 73.0967 95.1621 73.3756 95.3102 73.6732C95.441 73.952 95.5531 74.2697 95.8133 74.4552C96.0922 74.6233 96.5393 74.5299 96.5766 74.2323C96.7822 72.6123 96.7822 70.9922 96.558 69.3722C95.9815 69.5576 95.8694 70.3209 95.8694 70.9362C95.8507 71.55 95.7012 72.3133 95.1061 72.4441C94.8631 71.3085 95.0313 70.0981 95.5905 69.0918C94.8631 68.9998 94.2493 69.6697 94.0811 70.377C93.9144 71.0842 94.0251 71.8303 93.9891 72.5562ZM89.221 89.7818C89.7801 88.1243 90.3379 86.4669 90.8971 84.7908C91.1946 83.9153 91.4936 83.0212 91.9033 82.1832C92.3863 81.2344 92.9829 80.3216 93.3365 79.3153C93.095 79.0925 92.7227 79.3714 92.5171 79.6316C90.302 82.5181 89.1275 86.1679 89.221 89.7818ZM97.4334 64.4746C97.0798 64.1397 96.4645 64.1023 96.0361 64.3438C95.5905 64.604 95.3476 65.1258 95.3476 65.6289C95.3663 66.2988 95.776 66.8953 96.1856 67.4344C96.5953 67.9936 97.005 68.5341 97.4147 69.0732C97.6562 68.1057 97.8244 67.0995 97.8618 66.076C97.8991 65.5168 97.8618 64.8656 97.4334 64.4746ZM88.0853 45.6663C88.5137 45.4982 88.9234 45.294 89.2957 45.0525C88.2909 44.4373 87.0431 44.2332 85.8874 44.4747C86.6335 45.238 87.3968 46.0013 88.1414 46.7646C88.6632 47.2864 89.5013 47.3425 90.1898 47.0823C90.8784 46.8207 91.4189 46.3175 91.9594 45.8158C90.9345 44.9591 89.2023 46.3923 88.0853 45.6663ZM73.3553 103.654C73.43 103.431 73.1511 103.225 72.9269 103.244C72.6854 103.263 72.4611 103.393 72.2196 103.431C71.7352 103.543 71.1961 103.189 71.084 102.705C70.9345 102.09 69.9858 102.052 69.5574 102.518C69.129 102.984 69.1103 103.672 69.1103 104.306C70.4875 104.995 72.257 104.716 73.3553 103.654ZM88.5885 79.8558C89.0916 80.2095 89.7988 79.5209 89.6493 78.9243C89.4826 78.3479 88.83 78.0302 88.2348 77.9756C87.8251 77.9382 87.3594 77.9569 87.0978 77.6579C86.7441 77.2295 86.9684 76.3728 86.4279 76.2247C86.3345 77.0067 86.093 77.7887 85.7206 78.496C86.2971 78.496 86.8936 78.496 87.4341 78.6828C87.9732 78.8683 88.4763 79.278 88.5885 79.8558ZM86.3345 101.214C86.8189 100.823 87.2286 100.135 86.8936 99.6315C86.7255 99.39 86.4466 99.2779 86.1677 99.2405C84.9947 99.1298 84.2127 100.414 83.7283 101.513C83.5601 101.904 83.3933 102.295 83.2251 102.686C84.138 101.923 85.0508 101.177 85.9621 100.414C86.0182 100.713 86.149 100.991 86.3345 101.214ZM78.2715 105.014C77.7684 105.107 77.6016 105.87 77.9366 106.28C78.2528 106.69 78.8494 106.802 79.3698 106.727C80.2826 106.615 81.1393 106.02 81.549 105.2C81.0459 105.014 80.4695 105.051 80.0037 105.311C79.4819 105.61 78.8681 104.883 78.2715 105.014ZM85.3483 79.0365C85.4777 78.161 85.5898 77.2856 85.7206 76.4102C85.1801 76.932 84.6224 77.5285 84.5103 78.2732C84.3981 79.0178 84.9573 79.8932 85.702 79.7998C86.1864 79.7437 86.5961 80.1347 86.9871 80.3963C87.3968 80.6565 88.0666 80.7313 88.2535 80.2842C87.4902 79.5209 86.4279 79.0738 85.3483 79.0365ZM71.0093 62.8358C70.2273 62.7985 69.4266 62.7611 68.6446 62.7424C69.4826 63.431 70.3394 64.121 71.1775 64.8095C71.5311 63.5244 71.866 62.2206 72.1823 60.8995C71.475 61.2718 71.0093 62.0352 71.0093 62.8358ZM73.4674 104.492C73.2805 104.92 73.4861 105.442 73.8771 105.702C74.2494 105.982 74.7338 106.038 75.1996 105.982C76.019 105.889 76.7823 105.479 77.3041 104.864C77.1172 104.548 76.6701 104.529 76.3165 104.641C75.9629 104.735 75.5906 104.92 75.237 104.845C74.9006 104.772 74.6591 104.51 74.3428 104.344C74.0453 104.175 73.5795 104.175 73.4674 104.492ZM59.1283 92.2945C59.9103 92.0717 60.6736 91.8475 61.4384 91.6247C61.5491 91.5873 61.6799 91.5499 61.7733 91.4752C61.9961 91.271 61.9027 90.8613 61.6612 90.6932C61.4197 90.5264 61.0646 90.5638 60.7858 90.6745C60.1533 90.9548 59.2965 90.6184 59.0349 89.9485C58.8495 90.7305 58.8868 91.5499 59.1283 92.2945ZM88.6819 76.3555C89.6493 76.1313 90.7303 76.5223 91.3441 77.3043C91.475 77.4912 91.6417 77.7327 91.8846 77.714C92.1635 77.714 92.313 77.379 92.3691 77.1188C91.922 76.2995 90.9905 75.7963 90.059 75.8711C89.4078 75.9085 89.668 74.5299 89.0355 74.3617C88.9234 75.0143 88.7926 75.6842 88.6819 76.3555ZM91.2881 78.0115C90.3566 77.3043 89.221 76.8759 88.048 76.8198C88.2722 76.0565 88.5137 75.2932 88.7365 74.5112C88.5324 74.1763 88.0293 74.5673 87.8625 74.9209C87.657 75.3493 87.4528 75.7963 87.4715 76.2621C87.5075 76.7278 87.8625 77.2295 88.3268 77.2108C89.2023 77.1922 90.0403 77.8448 90.2459 78.6828C90.5808 78.4586 90.9345 78.2358 91.2881 78.0115ZM90.8036 44.6055C91.5497 44.8096 92.3317 45.0152 93.095 44.8843C93.5967 44.7909 94.0811 44.5494 94.3615 44.121C93.3365 43.2643 91.567 43.4871 90.8036 44.6055ZM81.9026 106.894C83.113 107.043 84.3608 106.168 84.6224 104.976C84.2314 105.219 83.747 105.255 83.2812 105.292C82.8341 105.33 82.331 105.386 81.9961 105.683C81.6425 106.001 81.549 106.615 81.9026 106.894ZM90.8971 75.2372C90.4313 74.586 91.14 73.7292 91.1213 72.9285C91.1213 72.687 91.0279 72.4441 90.8223 72.332C90.1338 73.2448 89.9656 74.4738 90.3566 75.5362C90.5435 75.4427 90.7116 75.3493 90.8971 75.2372ZM84.8826 96.262C84.677 96.3167 84.4729 96.354 84.2673 96.3914C84.3047 95.871 84.194 95.3305 83.9511 94.8648C83.8576 94.9956 83.839 95.1623 83.8217 95.3305C83.803 95.7589 83.8217 96.2247 84.0071 96.597C84.194 96.988 84.6037 97.3042 85.0508 97.2482C85.4777 97.2108 85.8328 96.7077 85.6272 96.3167C85.4231 96.1499 85.1241 96.0938 84.8639 96.1873M84.0819 103.654C84.9947 103.096 85.9061 102.555 86.8376 102.015C85.6833 101.811 84.4542 102.537 84.0819 103.654ZM60.172 89.3893C59.9664 88.9983 59.538 88.7195 59.091 88.7008C59.0723 89.3347 59.5006 89.9672 60.1159 90.19C60.4135 90.1167 60.3387 89.651 60.1906 89.3893M84.3795 98.7015C84.3981 98.8495 84.4355 98.999 84.4542 99.1471C84.677 98.999 84.9013 98.8308 85.1241 98.6828C85.3483 98.2918 84.8639 97.8447 84.4542 97.6765C84.4168 98.0115 84.3981 98.3651 84.3795 98.7015Z" fill="#050505"/>
</g>
<path d="M87.097 63.9714C87.4521 63.8967 87.8244 64.1209 87.9538 64.4559C87.5441 64.5306 87.1344 64.568 86.7247 64.5306C86.5766 64.2877 86.8181 63.9154 87.097 63.9714Z" fill="#050505"/>
<path d="M66.0938 65.5156C66.7091 66.2603 67.3229 67.0063 67.9381 67.7509C68.0488 67.899 68.0488 68.1233 67.9195 68.2713C67.3416 68.0111 66.7465 67.7323 66.3368 67.2665C65.9084 66.7821 65.7402 66.0374 66.0938 65.5156Z" fill="#050505"/>
<path d="M64.5117 100.784C66.1318 100.505 67.6958 99.8542 69.0183 98.8667C69.2224 98.7186 69.5588 98.7358 69.7442 98.9227C69.0743 99.7234 68.3843 100.561 67.4356 101.027C66.5041 101.493 65.275 101.512 64.5117 100.784Z" fill="#050505"/>
<path d="M76.7255 64.9582C76.5387 66.2419 76.2411 67.4896 75.8501 68.7187C75.7006 69.1284 75.5152 69.5941 75.1055 69.7623C75.4965 67.5457 75.9622 65.3492 76.4653 63.1699C76.875 63.6544 76.819 64.3429 76.7255 64.9582Z" fill="#050505"/>
<path d="M81.7186 84.8079C80.9913 84.0072 80.0051 83.4293 78.9443 83.1878C78.3664 83.057 77.7511 83.0196 77.2308 82.7594C76.6903 82.4978 76.2432 81.9587 76.3366 81.3809C78.6266 81.549 80.8058 82.7034 82.2203 84.4916C82.1096 84.6584 81.9228 84.7705 81.7186 84.8079Z" fill="#050505"/>
<path d="M68.9983 49.612C69.1851 50.1899 69.464 50.8411 69.1664 51.3816C68.1976 50.2273 67.7131 48.6819 67.8626 47.1726C68.0107 45.6646 68.7927 44.2314 69.9671 43.2812C70.3581 43.5601 70.0591 44.1567 69.7803 44.5477C68.7568 45.9809 68.4578 47.9172 68.9983 49.612Z" fill="#050505"/>
<path d="M68.5517 52.332C68.6825 52.5175 68.8119 52.7043 68.9427 52.8898C67.6762 54.9008 66.8382 57.1735 66.5032 59.5382C66.3724 60.4884 66.2431 61.568 65.4611 62.1444C63.3379 63.6912 61.4749 65.6275 60.023 67.8067C59.7067 67.4157 59.9109 66.8378 60.1164 66.3721C61.5122 63.2628 62.8908 60.152 64.2881 57.024C64.3987 57.3029 64.5109 57.5645 64.6417 57.8434C65.8147 55.9258 67.1372 54.0815 68.5517 52.332Z" fill="#050505"/>
<path d="M87.0427 26.8756C87.75 25.6652 88.4759 24.4736 89.1832 23.2632C89.0164 24.6044 88.8295 25.9269 88.6628 27.2479C90.0773 26.3912 91.2503 25.1075 91.9762 23.5981C92.1818 24.9019 91.6787 26.2992 90.6925 27.1559C91.4372 26.9317 92.1444 26.522 92.7223 26.0002C92.4607 27.0438 91.716 27.9566 90.7472 28.4209C93.0946 28.086 95.7569 27.8445 97.6385 29.3337C94.9188 28.9801 92.1257 29.167 89.4822 29.8742C90.3015 30.5441 90.7299 31.6424 90.5804 32.686C89.0538 30.2652 86.3714 28.6265 83.5223 28.385C84.2856 29.0736 84.7327 30.0971 84.7514 31.122C80.1887 25.9628 74.6026 21.7179 68.4199 18.7192C68.7376 18.1802 69.5383 18.3469 70.1147 18.6086C73.1694 20.0044 76.0372 21.7739 78.6434 23.8971C78.6434 23.394 78.6434 22.9096 78.6434 22.4064C79.3147 23.3006 79.9846 24.176 80.6545 25.0514C80.8414 24.3801 80.86 23.6729 80.7105 22.9843C81.3445 23.5794 81.6981 24.4362 81.6981 25.3116C82.424 24.9767 82.2372 23.8971 81.9022 23.1697C81.5673 22.4438 81.251 21.439 81.9022 20.9546C82.5549 22.5933 83.2247 24.2321 83.8946 25.8708C84.2856 23.7663 84.323 21.6057 84.0254 19.4826C85.3479 21.531 85.9617 24.0078 85.7576 26.4286C86.334 25.6839 86.7624 24.8272 87.0054 23.9144C87.024 24.9019 87.024 25.8895 87.0427 26.8756Z" fill="#050505"/>
<mask id="mask1_528_4301" style="mask-type:luminance" maskUnits="userSpaceOnUse" x="32" y="39" width="28" height="38">
<path d="M32.2012 39.375H59.9837V76.175H32.2012V39.375Z" fill="white"/>
</mask>
<g mask="url(#mask1_528_4301)">
<path d="M49.5762 53.9499C49.3707 55.0668 48.961 56.1277 48.3845 57.0965C49.5762 55.4017 50.9534 53.8377 52.4627 52.4218C52.2572 53.0557 52.0344 53.6882 51.8101 54.3409C52.5188 53.6322 53.226 52.9249 53.9333 52.2177C53.8585 52.7021 53.8025 53.2038 53.7464 53.7069C54.6966 52.9623 55.6468 52.2177 56.5956 51.473C56.5956 51.9201 56.5783 52.3672 56.5783 52.8128C57.5457 51.8827 58.7001 51.174 59.9665 50.7284C58.1423 52.9997 56.3167 55.2709 54.5112 57.5249C54.7901 56.3519 55.181 55.2163 55.6842 54.1166C53.226 56.6121 51.2524 59.5734 49.8738 62.8135C50.1714 60.765 50.7679 58.7727 51.606 56.891C49.0357 60.3554 47.8254 64.619 46.671 68.7719C46.671 66.5941 46.9499 64.4149 47.5278 62.3104C45.889 65.5318 44.7721 68.9962 44.2316 72.5712C43.8593 71.5089 43.6911 70.3546 43.7845 69.2377C43.487 71.23 43.2067 73.2037 42.9278 75.1961C42.7237 73.576 42.5181 71.956 42.3327 70.3359C41.9963 72.1989 41.8109 74.1165 41.7922 76.0155C41.2143 74.9546 40.9541 73.7442 41.0289 72.5339C40.9167 73.428 40.6192 74.3034 40.1534 75.1041C40.2469 72.9062 40.0039 70.6895 39.4462 68.5678C39.2967 70.6162 39.1659 72.646 39.0178 74.6944C38.3465 72.2737 38.0302 69.7782 38.0489 67.2827C37.714 69.275 37.3977 71.2861 37.08 73.2972C36.8012 71.1179 36.7451 68.9027 36.9133 66.7235C36.6157 68.1768 36.3354 69.6287 36.0565 71.0992C35.424 68.2501 35.069 65.365 34.9957 62.4599C34.586 63.837 34.3617 65.2903 34.343 66.7235C33.9894 66.6861 33.8399 66.2764 33.7853 65.9228C33.0579 61.882 33.2074 57.673 34.2137 53.6695C33.3943 55.1229 32.723 56.6308 32.2012 58.1948C32.3507 53.5948 33.8227 49.0523 36.3915 45.2156C36.0192 45.3838 35.6469 45.5505 35.2745 45.7187C36.206 43.9679 37.3043 42.3291 38.552 40.7838C39.2032 40.0018 40.4136 39.2011 41.1036 39.9644C40.507 40.5969 39.8932 41.2122 39.2406 41.8073C40.116 41.0066 41.3638 40.6156 42.5368 40.7838C41.1223 41.3804 39.8745 42.3852 38.9991 43.6516C39.8745 42.8696 41.0289 42.3852 42.2019 42.3104C40.9728 42.9817 39.9292 44.0426 39.278 45.2904C40.3389 44.3215 41.7174 43.7264 43.1334 43.5769C41.5133 44.6751 39.7624 45.9415 39.2219 47.8232C40.4697 46.3139 42.2392 45.2343 44.1569 44.8246C43.1707 45.6066 42.2205 46.426 41.3264 47.3201C42.3873 46.9665 43.4496 46.6129 44.5105 46.2765C42.8157 47.3575 41.4199 48.8654 40.451 50.6163C42.0524 49.2004 43.7472 47.898 45.5167 46.7049C44.9202 47.4509 44.3064 48.1955 43.7098 48.9589C44.808 48.0087 46.3548 47.6177 47.7693 47.9152C45.7582 48.5492 44.0074 50.0197 43.0212 51.9014C44.4918 50.635 46.2053 49.6848 48.0496 49.1256C46.9686 49.9824 46.0371 51.026 45.3112 52.2177C46.7084 50.9699 48.4032 50.0571 50.2087 49.5727C48.4219 51.1194 46.615 52.6647 44.8267 54.21C46.671 53.3346 48.5326 52.4592 50.3956 51.565C47.062 55.1042 43.5617 58.9581 42.8157 63.7622C44.716 60.2619 46.9686 56.9657 49.5762 53.9499Z" fill="#050505"/>
</g>
</svg>
