<svg width="26" height="29" viewBox="0 0 26 29" fill="none" xmlns="http://www.w3.org/2000/svg">
<g id="logo" clip-path="url(#clip0_2833_5083)">
<g id="Group">
<path id="Vector" d="M12.0358 1.87405C12.2358 1.87405 12.3358 1.97405 12.5358 2.07405C11.3358 2.57405 10.1358 3.87405 9.53584 6.67405L7.33584 7.27405C8.03584 5.27405 9.43584 1.87405 12.0358 1.87405ZM13.1358 2.87405C13.3358 3.47405 13.5358 4.17405 13.5358 5.27405C13.5358 5.37405 13.5358 5.37405 13.5358 5.47405L10.6358 6.27405C11.2358 4.17405 12.2358 3.27405 13.1358 2.87405ZM15.7358 4.67405L14.4358 5.07405C14.4358 4.97405 14.4358 4.87405 14.4358 4.77405C14.4358 3.87405 14.3358 3.17405 14.1358 2.57405C14.8358 2.77405 15.4358 3.67405 15.7358 4.67405ZM22.2358 6.27405C22.2358 6.17405 22.1358 6.07405 22.0358 6.07405C21.8358 6.07405 19.7358 5.87405 19.7358 5.87405C19.7358 5.87405 18.2358 4.37405 18.0358 4.27405C17.8358 4.07405 17.5358 4.17405 17.4358 4.17405C17.4358 4.17405 17.1358 4.27405 16.6358 4.47405C16.1358 3.07405 15.2358 1.77405 13.7358 1.77405L13.6358 1.77405C13.2358 1.17405 12.6358 0.974051 12.1358 0.974051C8.53584 0.874051 6.83584 5.37405 6.23584 7.67405C5.43584 7.87405 4.63584 8.17405 3.73584 8.47405C2.93584 8.67405 2.93584 8.77405 2.83584 9.47405C2.73584 9.97405 0.73584 25.7741 0.73584 25.7741L16.6358 28.7741L25.2358 26.8741C25.2358 26.8741 22.2358 6.47405 22.2358 6.27405Z" fill="#75757D"/>
<path id="Vector_2" d="M21.9357 6.07407C21.8357 6.07407 19.7357 5.87407 19.7357 5.87407C19.7357 5.87407 18.2357 4.37407 18.0357 4.27407C17.9357 4.17407 17.9357 4.17407 17.8357 4.17407L16.6357 28.7741L25.2357 26.8741C25.2357 26.8741 22.2357 6.47407 22.2357 6.27407C22.2357 6.17407 22.0357 6.07407 21.9357 6.07407Z" fill="#2D2D33"/>
<path id="Vector_3" d="M13.736 10.8742L12.636 14.0742C12.636 14.0742 11.736 13.5742 10.536 13.5742C8.83604 13.5742 8.73604 14.5742 8.73604 14.8742C8.73604 16.2742 12.536 16.8742 12.536 20.2742C12.536 22.9742 10.836 24.6742 8.53604 24.6742C5.83604 24.6742 4.43604 22.9742 4.43604 22.9742L5.13604 20.5742C5.13604 20.5742 6.53604 21.7742 7.73604 21.7742C8.53604 21.7742 8.83604 21.1742 8.83604 20.6742C8.83604 18.7742 5.73604 18.6742 5.73604 15.5742C5.73604 12.9742 7.63604 10.4742 11.336 10.4742C13.036 10.3742 13.736 10.8742 13.736 10.8742Z" fill="#FFFFFE"/>
</g>
</g>
<defs>
<clipPath id="clip0_2833_5083">
<rect width="25" height="28" fill="white" transform="translate(0.73584 0.874023)"/>
</clipPath>
</defs>
</svg>
