<svg width="25" height="25" viewBox="0 0 25 25" fill="none" xmlns="http://www.w3.org/2000/svg">
<path d="M6.44249 16.2325C6.55111 16.1239 6.70045 16.0605 6.85885 16.0605H21.223C21.4855 16.0605 21.6167 16.3773 21.4312 16.5629L18.5936 19.4004C18.485 19.509 18.3357 19.5724 18.1773 19.5724H3.81314C3.55066 19.5724 3.41942 19.2556 3.60496 19.0701L6.44249 16.2325Z" fill="url(#paint0_linear_2028_13712)"/>
<path d="M6.44249 5.63877C6.55563 5.53015 6.70498 5.4668 6.85885 5.4668H21.223C21.4855 5.4668 21.6167 5.78359 21.4312 5.96914L18.5936 8.80667C18.485 8.91528 18.3357 8.97864 18.1773 8.97864H3.81314C3.55066 8.97864 3.41942 8.66185 3.60496 8.4763L6.44249 5.63877Z" fill="url(#paint1_linear_2028_13712)"/>
<path d="M18.5936 10.9005C18.485 10.7919 18.3357 10.7285 18.1773 10.7285H3.81314C3.55066 10.7285 3.41942 11.0453 3.60496 11.2309L6.44249 14.0684C6.55111 14.177 6.70045 14.2404 6.85885 14.2404H21.223C21.4855 14.2404 21.6167 13.9236 21.4312 13.738L18.5936 10.9005Z" fill="url(#paint2_linear_2028_13712)"/>
<defs>
<linearGradient id="paint0_linear_2028_13712" x1="17.7692" y1="15.2426" x2="4.10591" y2="30.9257" gradientUnits="userSpaceOnUse">
<stop stop-color="#8B8B92"/>
<stop offset="1" stop-color="#3A3A41"/>
</linearGradient>
<linearGradient id="paint1_linear_2028_13712" x1="17.7692" y1="4.64887" x2="4.10591" y2="20.3319" gradientUnits="userSpaceOnUse">
<stop stop-color="#8B8B92"/>
<stop offset="1" stop-color="#3A3A41"/>
</linearGradient>
<linearGradient id="paint2_linear_2028_13712" x1="17.7692" y1="9.91059" x2="4.10591" y2="25.5936" gradientUnits="userSpaceOnUse">
<stop stop-color="#8B8B92"/>
<stop offset="1" stop-color="#3A3A41"/>
</linearGradient>
</defs>
</svg>
