<svg width="10" height="10" viewBox="0 0 10 10" fill="none" xmlns="http://www.w3.org/2000/svg">
<path d="M6.99735 2.99805C6.99735 3.52848 6.78664 4.03719 6.41157 4.41226C6.03649 4.78733 5.52779 4.99805 4.99735 4.99805C4.46692 4.99805 3.95821 4.78733 3.58314 4.41226C3.20807 4.03719 2.99735 3.52848 2.99735 2.99805M0.813962 2.69874L0.463962 6.89874C0.388773 7.801 0.351179 8.25213 0.503695 8.60014C0.637696 8.9059 0.869867 9.15823 1.16345 9.31716C1.49759 9.49805 1.95028 9.49805 2.85567 9.49805H7.13903C8.04442 9.49805 8.49712 9.49805 8.83126 9.31716C9.12484 9.15823 9.35701 8.9059 9.49101 8.60014C9.64353 8.25213 9.60593 7.801 9.53074 6.89873L9.18074 2.69874C9.11605 1.92242 9.0837 1.53426 8.91179 1.24048C8.7604 0.981768 8.53498 0.774348 8.2646 0.64497C7.95755 0.498047 7.56804 0.498047 6.78903 0.498047L3.20567 0.498047C2.42666 0.498047 2.03716 0.498047 1.73011 0.644969C1.45972 0.774347 1.2343 0.981767 1.08292 1.24047C0.911002 1.53426 0.878655 1.92242 0.813962 2.69874Z" stroke="#B0AFA9" stroke-width="0.8" stroke-linecap="round" stroke-linejoin="round"/>
</svg>
