<svg width="12" height="8" viewBox="0 0 12 8" fill="none" xmlns="http://www.w3.org/2000/svg">
<path d="M1.21006 4.35659C1.14197 4.24877 1.10792 4.19486 1.08886 4.11171C1.07455 4.04925 1.07455 3.95075 1.08886 3.88829C1.10792 3.80514 1.14197 3.75123 1.21006 3.64341C1.77276 2.75242 3.4477 0.5 6.0002 0.5C8.5527 0.5 10.2276 2.75242 10.7903 3.64341C10.8584 3.75123 10.8925 3.80514 10.9115 3.88829C10.9259 3.95075 10.9259 4.04925 10.9115 4.11171C10.8925 4.19486 10.8584 4.24877 10.7903 4.35659C10.2276 5.24758 8.5527 7.5 6.0002 7.5C3.4477 7.5 1.77276 5.24758 1.21006 4.35659Z" stroke="#B0AFA9" stroke-width="0.8" stroke-linecap="round" stroke-linejoin="round"/>
<path d="M6.0002 5.5C6.82863 5.5 7.5002 4.82843 7.5002 4C7.5002 3.17157 6.82863 2.5 6.0002 2.5C5.17177 2.5 4.5002 3.17157 4.5002 4C4.5002 4.82843 5.17177 5.5 6.0002 5.5Z" stroke="#B0AFA9" stroke-width="0.8" stroke-linecap="round" stroke-linejoin="round"/>
</svg>
