<svg width="12" height="12" viewBox="0 0 12 12" fill="none" xmlns="http://www.w3.org/2000/svg">
<path d="M4.545 4.49329C4.66255 4.15912 4.89458 3.87734 5.19998 3.69785C5.50538 3.51837 5.86445 3.45276 6.21359 3.51264C6.56273 3.57253 6.87941 3.75405 7.10754 4.02505C7.33567 4.29605 7.46053 4.63905 7.46 4.99329C7.46 5.99329 5.96 6.49329 5.96 6.49329M6 8.49329H6.005M11 5.99329C11 8.75471 8.76142 10.9933 6 10.9933C3.23858 10.9933 1 8.75471 1 5.99329C1 3.23186 3.23858 0.993286 6 0.993286C8.76142 0.993286 11 3.23186 11 5.99329Z" stroke="#8B8B92" stroke-width="1.125" stroke-linecap="round" stroke-linejoin="round"/>
</svg>
